<svg xmlns="http://www.w3.org/2000/svg" viewBox="0 0 301.24 388.85"><g id="Camada_2" data-name="Camada 2"><path d="M207.06,120.38c0,57.43-34.77,105.6-81.12,117.53l-1.2.31a88.94,88.94,0,0,1-10.95,1.95l-1.6.17q-4.27.42-8.66.42a90.13,90.13,0,0,1-10.94-.67,88.63,88.63,0,0,1-12-2.31C34.51,225.63,0,177.6,0,120.38A135.68,135.68,0,0,1,14.2,59.47a6,6,0,1,1,10.71,5.42A123.51,123.51,0,0,0,12,120.38c0,59.76,41.06,108.38,91.53,108.38,1.06,0,2.12,0,3.17-.07a75,75,0,0,0,12.41-1.51c43.07-8.77,76-53.33,76-106.8a124.08,124.08,0,0,0-9.67-48.45,112.66,112.66,0,0,0-5.45-11.14C163.56,31.42,135.42,12,103.53,12A79,79,0,0,0,66,21.51a6,6,0,1,1-5.65-10.58A90.82,90.82,0,0,1,103.53,0c37.8,0,70.94,23.68,89,59a124.17,124.17,0,0,1,5.31,11.79A136.29,136.29,0,0,1,207.06,120.38Z"/><path d="M188.67,283.71l.12,0-1.58,11.9q-3.84-.51-7.59-1.35a94.9,94.9,0,0,1-43.46-22.92,111.43,111.43,0,0,1-17-19.58l-.07-.1-.26-.38a116.38,116.38,0,0,1-6.63-11c-.68-1.25-1.33-2.52-2-3.8-1.26-2.57-2.44-5.18-3.53-7.85a75,75,0,0,0,12.41-1.51c.6,1.37,1.23,2.72,1.89,4.06.1.2.2.41.31.61,1.08,2.17,2.23,4.3,3.43,6.37,1.36,2.31,2.78,4.56,4.27,6.72l.07.11.24.34C144.31,267,165.36,280.57,188.67,283.71Z"/><path d="M301.24,177.57c0,28.49-8.79,56-24.76,77.58-14.28,19.26-33.42,32.64-54.53,38.26q-3.76,1-7.61,1.68l-2.06-11.82.12,0c43.81-7.72,76.84-53.13,76.84-105.68,0-58.92-40.47-106.85-90.22-106.85-.39,0-.79,0-1.18,0a74.75,74.75,0,0,0-8.09.54c-1.47.18-2.92.39-4.36.65a112.66,112.66,0,0,0-5.45-11.14q4.14-.91,8.37-1.43c1.39-.17,2.81-.3,4.22-.41,2.16-.15,4.33-.23,6.49-.23C255.38,58.72,301.24,112,301.24,177.57Z"/><path d="M234.25,319.38l-12.3-26-5.18-10.93-4.37.77-.12,0h0a76.94,76.94,0,0,1-23.47.46h0l-.12,0-4.46-.6-4.59,11.17L169.09,319.9A10.75,10.75,0,0,0,179,334.72h45.52a10.74,10.74,0,0,0,9.7-15.34Zm-53.34,3.34,10.93-26.59a89.69,89.69,0,0,0,17.95-.36l12.77,27Z"/><path d="M126.85,276.74H81.07a10.73,10.73,0,0,1-10-14.66l12.09-30.81,11.17,4.38L82.91,264.74h42l-13-28.66,10.94-4.94,13.76,30.44a10.73,10.73,0,0,1-9.79,15.16Z"/><path d="M197.75,388.85a6,6,0,0,1-5.49-3.56c-10-22.36-9.88-42.07.24-60.25A6,6,0,1,1,203,330.88c-8.27,14.85-8.19,30.59.24,49.53a6,6,0,0,1-5.47,8.44Z"/><path d="M102.25,386.81a6,6,0,0,1-4.46-10c18.12-20.15,10.13-33.68,0-50.82-9.42-16-21.13-35.8,0-59.26a6,6,0,0,1,8.92,8c-15.23,16.91-7.88,29.36,1.42,45.12,10.06,17,22.59,38.26-1.42,64.94A6,6,0,0,1,102.25,386.81Z"/><circle cx="40.08" cy="36.94" r="6.68"/></g></svg>