<svg xmlns="http://www.w3.org/2000/svg" viewBox="0 0 310.79 410.64"><g id="Camada_2" data-name="Camada 2"><rect x="44.3" y="109.62" width="81.7" height="12"/><rect x="38.3" y="175.36" width="12" height="100.6"/><rect x="120" y="236.98" width="12" height="39.49"/><path d="M152.76,136.7c-.15-.26-.32-.52-.49-.78A31.26,31.26,0,0,0,126,121.62v-12a43.36,43.36,0,0,1,32.38,14.56,44.14,44.14,0,0,1,4,5.21c.27.43.54.84.78,1.25Z"/><polygon points="169.28 227.47 157.28 227.47 160.42 167.03 172.42 167.03 169.28 227.47"/><path d="M138,292.5c-11.11-1.8-18-7.94-18-16V237h12v39.49c0,1.43,3,3.38,7.93,4.19Z"/><path d="M25.32,293.15a43.21,43.21,0,0,1-7.89-.7C6.52,290.4,0,284.42,0,276.47V153.92a44.32,44.32,0,0,1,44.3-44.3v12A32.3,32.3,0,0,0,12,153.92V276.47c0,1.33,2.68,3.25,7.65,4.19,8.4,1.58,16.7-.63,18.71-3.08a9.29,9.29,0,0,1-.06-1.11V175.36h12V276.47s0,.15,0,.26a9,9,0,0,1-.45,4.66C46.52,290,35.27,293.15,25.32,293.15ZM38.71,277h0Z"/><path d="M105.58,410.64a26.46,26.46,0,0,1-26.43-26.43L78.64,276.5l12-.06.51,107.74a14.43,14.43,0,1,0,28.85,0V276h12V384.21A26.46,26.46,0,0,1,105.58,410.64Z"/><path d="M64.22,410.64c-14.53,0-25.92-11.61-25.92-26.43V276h12V384.21c0,8.09,6.11,14.43,13.92,14.43a14.44,14.44,0,0,0,14.42-14.43V276.47h12V384.21A26.46,26.46,0,0,1,64.22,410.64Z"/><path d="M84.61,105A51.93,51.93,0,1,1,136.54,53.1,52,52,0,0,1,84.61,105Zm0-91.85A39.93,39.93,0,1,0,124.54,53.1,40,40,0,0,0,84.61,13.17Z"/><path d="M295.28,409.62H120l0-6c-.21-45.31,4.22-85.22,13.17-118.62,6.12-22.85,14.52-43.26,25-60.65A177.35,177.35,0,0,1,169,208.24l.28-.38,3.06-3.81,34.15,17.47,36.64-17.38,2.88,3.67.06.07c35.22,40.62,51.34,104.69,49.3,195.87ZM132,397.62H283.52c1.15-82.5-13.18-141-43.72-178.59L206.33,234.9l-30.52-15.62c-2.6,3.63-5.07,7.41-7.38,11.27-9.88,16.44-17.84,35.81-23.66,57.58C136.48,319,132.19,355.85,132,397.62Z"/><polygon points="152.06 134.87 148.78 118.81 168.16 118.81 168.16 130.81 171.36 135.21 152.06 134.87"/><path d="M240.9,176.26l25.42,86.15.11.32c2.22,6,7.13,9.89,13.82,11a24.2,24.2,0,0,0,4,.33c8.23,0,17.06-3.9,22.17-10.08,4.32-5.22,5.47-11.39,3.26-17.32l-45-123.92-5.64-4h-14.5v12H259l-5.64-4,45,124c.44,1.19.79,3.06-1.25,5.54-3.18,3.84-10,6.39-14.93,5.56-3.06-.52-4.06-2.06-4.52-3.24l-24.58-86.51-11.36,4.09-5.65,31.87-29.61,13.45-27.24-13.34-7-42.41-11.76,2.4,7.46,44.7.69,3.48,37.64,18.43,40.33-18.3,6.9-37.92Z"/><path d="M101.57,270.46a25.31,25.31,0,0,1-22.91-16.6,17.83,17.83,0,0,1,2.38-16l80.2-127.14,2,20.82-4.91.88-67.19,112-.14.18a5.83,5.83,0,0,0-.89,5.52A12.16,12.16,0,0,0,94.71,256a11.85,11.85,0,0,0,7,2.45,5.77,5.77,0,0,0,4.84-2.56l52.24-80.61,1.69-.93,11.81-2.11-.86,5.58-3.15,4.88-51.88,80a17.79,17.79,0,0,1-14.42,7.7Z"/><path d="M206.35,146.2c-19.91,0-37.37-7.44-43.45-18.5a18.49,18.49,0,0,1-2.38-9v-.14l1.7-74.82a43.79,43.79,0,0,1,87.57,0l2.38,75a18.46,18.46,0,0,1-2.39,9C243.72,138.76,226.27,146.2,206.35,146.2Zm-33.83-27.46a6.6,6.6,0,0,0,.89,3.17c3.36,6.11,15.75,12.29,32.94,12.29s29.57-6.17,32.92-12.27a6.64,6.64,0,0,0,.9-3.17l-2.38-75a31.79,31.79,0,1,0-63.57,0v.14Z"/></g></svg>