<svg xmlns="http://www.w3.org/2000/svg" viewBox="0 0 371.2 381.44"><g id="Camada_2" data-name="Camada 2"><path d="M244.36,118A36.64,36.64,0,1,1,281,81.33,36.67,36.67,0,0,1,244.36,118Zm0-61.27A24.64,24.64,0,1,0,269,81.33,24.66,24.66,0,0,0,244.36,56.69Z"/><path d="M202,381.44c-6.48,0-13.06-1.53-17.76-4.52-5-3.17-7.63-7.77-7.41-12.95l0-.43,14.28-76.36,37.07-71.6L229.35,188l-21,18.85-10.52,42.54c-2,9.49-11.87,14.64-23.43,12.24a24.1,24.1,0,0,1-12.25-6.34A15.44,15.44,0,0,1,157.8,241l.09-.37,14.7-53.54,59-61.91,51.51-11.45,30.86-46.44L330,14.47A20.23,20.23,0,0,1,341.24,1.65a21.59,21.59,0,0,1,15.15-.54c9.87,3.17,17.71,13,13.78,25.83L357.76,85.35l-41,67.73-7.69,54.47a34.2,34.2,0,0,0,3.68,20.94L336,272.41l6.25,92.12,0,.45c-.5,5.86-4,10.63-9.76,13.43a33.06,33.06,0,0,1-30.85-2.63c-5.09-3.63-7.69-8.73-7.38-14.38l-4.95-76.76-24.94-29.19a.77.77,0,0,0-.7-.27.75.75,0,0,0-.61.43l-26,52.87-12,58.08c-.4,4.94-3.38,9.09-8.44,11.73A32.19,32.19,0,0,1,202,381.44Zm-13.17-16.71c.11.66.72,1.35,1.84,2.06,4.92,3.13,15.21,3.57,20.37.86,1.33-.69,2-1.41,2-2.15l0-.49.09-.47,12.41-60,26.68-54.23a12.78,12.78,0,0,1,21.2-2.66L301,279.88l5.27,81.59,0,.45c-.32,3.78,5.6,6.56,11.51,7.06a19.18,19.18,0,0,0,9.51-1.37c2.37-1.15,2.85-2.49,3-3.26l-6-88.58-22.1-41.65a46.16,46.16,0,0,1-4.95-28.25l8-56.9,41.21-68.1,12.11-57,.09-.3c2.59-8-5-10.75-5.92-11a9.8,9.8,0,0,0-6.75.14,8.19,8.19,0,0,0-4.5,5.38L324.9,72.43l-34.5,51.93-52.66,11.7-54.38,57.08-13.84,50.41a3.47,3.47,0,0,0,1.21,3.31,12.14,12.14,0,0,0,6.13,3,12.3,12.3,0,0,0,6.82-.33,3.48,3.48,0,0,0,2.46-2.72l.05-.22,11.42-46.21,30.69-27.6a8,8,0,0,1,13.42,6.32l-1.64,39.61-37.48,72.4Z"/><path d="M81,113.88a33.83,33.83,0,1,1,33.83-33.83A33.87,33.87,0,0,1,81,113.88Zm0-55.66a21.83,21.83,0,1,0,21.83,21.83A21.86,21.86,0,0,0,81,58.22Z"/><path d="M114.7,379.85a37.83,37.83,0,0,1-7.92-.89c-13-2.81-20.49-10.52-18.7-19.21l13.29-73.84L76.83,255l3.49,105.67v.24c-.28,5.92-3.7,10.83-9.62,13.82a33,33,0,0,1-16.12,3,33,33,0,0,1-15.77-4.55c-5.51-3.47-8.44-8.56-8.28-14.35l-6-126.08a65.91,65.91,0,0,1,4.93-28.23L42,174.3a2,2,0,0,0-.23-1.92L8.13,125.92a42.68,42.68,0,0,1-7.94-29L5.28,42.72a17.31,17.31,0,0,1,8-13.44A22.35,22.35,0,0,1,27.14,26a22.36,22.36,0,0,1,13.21,5.42A17.37,17.37,0,0,1,46.09,46l-2.15,46a14.86,14.86,0,0,0,3.82,10.69l19.81,22L106,121.08,130.82,79.2a5.34,5.34,0,0,0,.46-4.46L118.12,36.39c-4-12.7,3.67-22.36,13.24-25.34s21.21.61,25.22,13.16L178.44,81.8l-37.19,67.26a74.08,74.08,0,0,0-7.42,19.52l-8,35.67a43.48,43.48,0,0,0,4,29.81l23.69,44.85-21.7,90.23C130.22,376,123.72,379.85,114.7,379.85ZM75.83,241a10.89,10.89,0,0,1,8.55,4.19l29.77,37.47L99.84,362.17c.11.87,3.21,3.7,9.47,5.06s10.24,0,10.71-.67l0-.17,20.67-85.88-21.58-40.85a55.41,55.41,0,0,1-5-38l8-35.68a85.8,85.8,0,0,1,8.63-22.69l34.5-62.39L145.18,28c-1.81-5.81-6.66-6.57-10.25-5.45S127.8,27,129.55,32.75l13.08,38.09a17.32,17.32,0,0,1-1.5,14.49l-28,47.14-50.46,4.64L38.84,110.63A26.78,26.78,0,0,1,32,91.35l2.16-46.24a5.35,5.35,0,0,0-1.8-4.76A10.55,10.55,0,0,0,26.19,38a10.53,10.53,0,0,0-6.43,1.37,5.37,5.37,0,0,0-2.53,4.41L12.14,98a30.64,30.64,0,0,0,5.7,20.88l33.69,46.47a14.07,14.07,0,0,1,1.59,13.56L40.55,209.18a53.73,53.73,0,0,0-4,23.06l6,126.62v.28c0,.6-.1,2.19,2.69,3.95a21.05,21.05,0,0,0,9.93,2.71A21.21,21.21,0,0,0,65.28,364c2.65-1.34,3-2.76,3-3.47L64.73,252.45A10.87,10.87,0,0,1,72,241.74,11.24,11.24,0,0,1,75.83,241Z"/></g></svg>