<svg xmlns="http://www.w3.org/2000/svg" viewBox="0 0 355.15 385.79"><g id="Camada_2" data-name="Camada 2"><path d="M333.19,333.7H25V271.87a6,6,0,0,1,12,0V321.7H321.19V192.21a6,6,0,1,1,12,0Z"/><path d="M31,258.3a6,6,0,0,1-6-6V136.47A45.64,45.64,0,0,1,70.6,90.89h217a45.63,45.63,0,0,1,45.57,45.58v36a6,6,0,0,1-12,0v-36a33.62,33.62,0,0,0-33.57-33.58H70.6A33.62,33.62,0,0,0,37,136.47V252.3A6,6,0,0,1,31,258.3Z"/><path d="M309.7,102.89H47V43A43.07,43.07,0,0,1,90,0H266.68a43.07,43.07,0,0,1,43,43ZM59,90.89H297.7V43a31.05,31.05,0,0,0-31-31H90A31.05,31.05,0,0,0,59,43Z"/><path d="M325.15,385.79H30a30,30,0,0,1-30-30v-3.58a30,30,0,0,1,30-30H325.15a30,30,0,0,1,30,30v3.58A30,30,0,0,1,325.15,385.79ZM30,334.21a18,18,0,0,0-18,18v3.58a18,18,0,0,0,18,18H325.15a18,18,0,0,0,18-18v-3.58a18,18,0,0,0-18-18Z"/><path d="M221.36,333.19H134.3V255.45a25.18,25.18,0,0,1,25.15-25.15h36.76a25.18,25.18,0,0,1,25.15,25.15Zm-75.06-12h63.06V255.45a13.17,13.17,0,0,0-13.15-13.15H159.45a13.17,13.17,0,0,0-13.15,13.15Z"/><path d="M185.74,206.55H171.11a20.83,20.83,0,0,1-20.81-20.81v-33a20.83,20.83,0,0,1,20.81-20.81h14.63a20.83,20.83,0,0,1,20.81,20.81v33A20.83,20.83,0,0,1,185.74,206.55Zm-14.63-62.64a8.82,8.82,0,0,0-8.81,8.81v33a8.82,8.82,0,0,0,8.81,8.81h14.63a8.82,8.82,0,0,0,8.81-8.81v-33a8.82,8.82,0,0,0-8.81-8.81Z"/><path d="M93.49,206.55H78.85A20.83,20.83,0,0,1,58,185.74v-33a20.84,20.84,0,0,1,20.81-20.81H93.49a20.84,20.84,0,0,1,20.81,20.81v33A20.83,20.83,0,0,1,93.49,206.55ZM78.85,143.91A8.82,8.82,0,0,0,70,152.72v33a8.82,8.82,0,0,0,8.81,8.81H93.49a8.82,8.82,0,0,0,8.81-8.81v-33a8.82,8.82,0,0,0-8.81-8.81Z"/><path d="M277.66,206.55H263a20.83,20.83,0,0,1-20.81-20.81v-33A20.84,20.84,0,0,1,263,131.91h14.64a20.84,20.84,0,0,1,20.81,20.81v33A20.83,20.83,0,0,1,277.66,206.55ZM263,143.91a8.82,8.82,0,0,0-8.81,8.81v33a8.82,8.82,0,0,0,8.81,8.81h14.64a8.82,8.82,0,0,0,8.81-8.81v-33a8.82,8.82,0,0,0-8.81-8.81Z"/><path d="M93.49,303.91H78.85A20.83,20.83,0,0,1,58,283.11v-33a20.83,20.83,0,0,1,20.81-20.81H93.49a20.83,20.83,0,0,1,20.81,20.81v33A20.83,20.83,0,0,1,93.49,303.91ZM78.85,241.28A8.82,8.82,0,0,0,70,250.09v33a8.82,8.82,0,0,0,8.81,8.8H93.49a8.82,8.82,0,0,0,8.81-8.8v-33a8.82,8.82,0,0,0-8.81-8.81Z"/><path d="M277.66,303.91H263a20.83,20.83,0,0,1-20.81-20.8v-33A20.83,20.83,0,0,1,263,229.28h14.64a20.83,20.83,0,0,1,20.81,20.81v33A20.83,20.83,0,0,1,277.66,303.91ZM263,241.28a8.82,8.82,0,0,0-8.81,8.81v33a8.82,8.82,0,0,0,8.81,8.8h14.64a8.82,8.82,0,0,0,8.81-8.8v-33a8.82,8.82,0,0,0-8.81-8.81Z"/><path d="M79.66,78.64a6,6,0,0,1-6-6V28.47a6,6,0,0,1,12,0V72.64A6,6,0,0,1,79.66,78.64Z"/><path d="M108.77,78.64a6,6,0,0,1-6-6V28.47a6,6,0,0,1,12,0V72.64A6,6,0,0,1,108.77,78.64Z"/><path d="M207.32,35H179.74a6,6,0,0,1,0-12h27.58a6,6,0,1,1,0,12Z"/><path d="M278.68,78H266a9.14,9.14,0,0,1-9.13-9.13V28.47a6,6,0,0,1,12,0V66h9.83a6,6,0,0,1,0,12Z"/><path d="M243.06,78.13H226.34a8.05,8.05,0,0,1-8-8V31a8.05,8.05,0,0,1,8-8H243.7a6,6,0,1,1,0,12H230.3V66.13h12.76a6,6,0,0,1,0,12Z"/><path d="M241.79,56.68H224.3a6,6,0,0,1,0-12h17.49a6,6,0,0,1,0,12Z"/><path d="M192.89,78.13a6,6,0,0,1-6-6V31.28a6,6,0,0,1,12,0V72.13A6,6,0,0,1,192.89,78.13Z"/><path d="M148.09,77.49a26.68,26.68,0,1,1,26.68-26.68A26.71,26.71,0,0,1,148.09,77.49Zm0-41.36a14.68,14.68,0,1,0,14.68,14.68A14.7,14.7,0,0,0,148.09,36.13Z"/><path d="M107.23,55.79H79.66a6,6,0,0,1,0-12h27.57a6,6,0,0,1,0,12Z"/></g></svg>