<svg xmlns="http://www.w3.org/2000/svg" viewBox="0 0 382.34 415.7"><g id="Camada_2" data-name="Camada 2"><path d="M254.81,415.7H26V139.45H254.81ZM38,403.7H242.81V151.45H38Z"/><path d="M365.36,415.7H242.81v-171H365.36Zm-110.55-12h98.55v-147H254.81Z"/><path d="M249.06,151.19H21.32a21.32,21.32,0,0,1,0-42.64H249.06a21.32,21.32,0,0,1,0,42.64ZM21.32,120.55a9.32,9.32,0,1,0,0,18.64H249.06a9.32,9.32,0,0,0,0-18.64Z"/><path d="M358.85,256.38h-116V216.81h116a19.79,19.79,0,1,1,0,39.57Zm-104-12h104a7.79,7.79,0,1,0,0-15.57h-104Z"/><path d="M369.89,228.55H242.81V164h88.82Zm-115.08-12h94l-24-40.59h-70Z"/><rect x="89.96" y="55.96" width="4.34" height="12"/><rect x="101.49" y="55.96" width="14.26" height="12"/><polygon points="217.25 55.96 141.36 55.96 141.36 67.96 210.41 67.96 234.45 108.55 38.99 108.55 63.04 67.96 77.96 67.96 77.96 55.96 56.2 55.96 17.94 120.55 255.5 120.55 217.25 55.96"/><rect x="127.74" y="55.96" width="1.62" height="12"/><rect x="4.47" y="403.19" width="377.87" height="12"/><rect x="30" y="377.59" width="51.44" height="6"/><rect x="113.7" y="377.59" width="30.83" height="6"/><rect x="148.89" y="377.59" width="17.79" height="6"/><rect x="175.45" y="377.59" width="67.83" height="6"/><rect x="262.17" y="377.59" width="40.77" height="6"/><rect x="313.28" y="377.59" width="16.08" height="6"/><rect x="336.64" y="377.59" width="17.62" height="6"/><path d="M97.57,321.67c-14,0-28.13,8.84-28.13,25.73v67.79H125.7V347.4C125.7,330.51,111.55,321.67,97.57,321.67Zm16.13,81.52H81.44V347.4c0-10.84,10.14-13.73,16.13-13.73s16.13,2.89,16.13,13.73Z"/><path d="M92,206H59.57V161.83H92ZM71.57,194H80V173.83H71.57Z"/><path d="M92,259.36H59.57V215.19H92Zm-20.43-12H80V227.19H71.57Z"/><path d="M92,312.72H59.57V268.55H92Zm-20.43-12H80V280.55H71.57Z"/><path d="M135.32,206H102.89V161.83h32.43Zm-20.43-12h8.43V173.83h-8.43Z"/><path d="M135.32,259.36H102.89V215.19h32.43Zm-20.43-12h8.43V227.19h-8.43Z"/><path d="M135.32,312.72H102.89V268.55h32.43Zm-20.43-12h8.43V280.55h-8.43Z"/><path d="M178.81,206H146.38V161.83h32.43Zm-20.43-12h8.43V173.83h-8.43Z"/><path d="M178.81,259.36H146.38V215.19h32.43Zm-20.43-12h8.43V227.19h-8.43Z"/><path d="M178.81,312.72H146.38V268.55h32.43Zm-20.43-12h8.43V280.55h-8.43Z"/><path d="M222.13,206H189.7V161.83h32.43ZM201.7,194h8.43V173.83H201.7Z"/><path d="M222.13,259.36H189.7V215.19h32.43Zm-20.43-12h8.43V227.19H201.7Z"/><path d="M222.13,312.72H189.7V268.55h32.43Zm-20.43-12h8.43V280.55H201.7Z"/><path d="M178.81,364.64H146.38V320.47h32.43Zm-20.43-12h8.43V332.47h-8.43Z"/><path d="M222.13,364.64H189.7V320.47h32.43Zm-20.43-12h8.43V332.47H201.7Z"/><path d="M298.81,312.72H266.38V268.55h32.43Zm-20.43-12h8.43V280.55h-8.43Z"/><path d="M342.13,312.72H309.7V268.55h32.43Zm-20.43-12h8.43V280.55H321.7Z"/><path d="M298.81,364.64H266.38V320.47h32.43Zm-20.43-12h8.43V332.47h-8.43Z"/><path d="M342.13,364.64H309.7V320.47h32.43Zm-20.43-12h8.43V332.47H321.7Z"/><rect x="78" width="12.26" height="88.68"/><rect x="114.94" y="31.83" width="12.26" height="56.85"/></g></svg>