<svg xmlns="http://www.w3.org/2000/svg" xmlns:xlink="http://www.w3.org/1999/xlink" viewBox="0 0 356.94 356.94"><defs><style>.cls-1{fill:url(#Gradiente_sem_nome_3);}.cls-2{fill:url(#Gradiente_sem_nome_3-2);}.cls-3{fill:url(#Gradiente_sem_nome_3-3);}</style><linearGradient id="Gradiente_sem_nome_3" x1="75.25" y1="357.25" x2="281.69" y2="-0.31" gradientUnits="userSpaceOnUse"><stop offset="0.05" stop-color="#c43edc"/><stop offset="0.52" stop-color="#f00271"/><stop offset="0.6" stop-color="#f00570"/><stop offset="0.65" stop-color="#f00f6e"/><stop offset="0.7" stop-color="#ef1f6b"/><stop offset="0.74" stop-color="#ee3566"/><stop offset="0.79" stop-color="#ed5360"/><stop offset="0.83" stop-color="#ec7758"/><stop offset="0.86" stop-color="#eaa14f"/><stop offset="0.87" stop-color="#eaa94d"/></linearGradient><linearGradient id="Gradiente_sem_nome_3-2" x1="135.33" y1="253.17" x2="223.65" y2="100.19" xlink:href="#Gradiente_sem_nome_3"/><linearGradient id="Gradiente_sem_nome_3-3" x1="269.08" y1="92.12" x2="286.61" y2="61.75" xlink:href="#Gradiente_sem_nome_3"/></defs><g id="Camada_2" data-name="Camada 2"><path class="cls-1" d="M254.94,356.94H102a102.12,102.12,0,0,1-102-102V102A102.12,102.12,0,0,1,102,0H254.94a102.12,102.12,0,0,1,102,102V254.94A102.12,102.12,0,0,1,254.94,356.94ZM102,12a90.1,90.1,0,0,0-90,90V254.94a90.1,90.1,0,0,0,90,90H254.94a90.11,90.11,0,0,0,90-90V102a90.1,90.1,0,0,0-90-90Z"/><path class="cls-2" d="M179.49,265a88.34,88.34,0,1,1,88.34-88.34A88.44,88.44,0,0,1,179.49,265Zm0-164.68a76.34,76.34,0,1,0,76.34,76.34A76.43,76.43,0,0,0,179.49,100.34Z"/><circle class="cls-3" cx="277.84" cy="76.93" r="17.53"/></g></svg>