<svg xmlns="http://www.w3.org/2000/svg" viewBox="0 0 356.94 356.94"><g id="Camada_2" data-name="Camada 2"><path d="M254.94,356.94H102a102.12,102.12,0,0,1-102-102V102A102.12,102.12,0,0,1,102,0H254.94a102.12,102.12,0,0,1,102,102V254.94A102.12,102.12,0,0,1,254.94,356.94ZM102,22c-49.63,0-80,30.37-80,80V254.94c0,49.62,30.37,80,80,80H254.94c49.62,0,80-30.38,80-80V102c0-49.63-30.38-80-80-80Z"/><path d="M179.49,265a88.34,88.34,0,1,1,88.34-88.34A88.44,88.44,0,0,1,179.49,265Zm0-154.68c-42.09,0-66.34,24.25-66.34,66.34S137.4,243,179.49,243s66.34-24.24,66.34-66.34S221.58,110.34,179.49,110.34Z"/><circle cx="277.84" cy="76.93" r="17.53"/></g></svg>