<svg xmlns="http://www.w3.org/2000/svg" viewBox="0 0 418.87 375.32"><g id="Camada_2" data-name="Camada 2"><path d="M397.22,375.32H26.75V187.15H110.5a6,6,0,0,1,0,12H38.75V363.32H385.22V199.15H316.83a6,6,0,0,1,0-12h80.39Z"/><path d="M418.87,199.15H314.36L211.9,97.67,113,199.15H0l52.91-85H179.12l32.62-33.49,33.82,33.49H366Zm-99.57-12h78l-38-61H257.67Zm-297.7,0H108l59.46-61H59.57Z"/><path d="M292.2,64.51h-86V11.66H292L272.7,38.37Zm-74-12h50.12l-10.46-14,10.7-14.83H218.16Z"/><path d="M212.16,243.4a46.17,46.17,0,1,1,46.17-46.17A46.22,46.22,0,0,1,212.16,243.4Zm0-80.34a34.17,34.17,0,1,0,34.17,34.17A34.21,34.21,0,0,0,212.16,163.06Z"/><path d="M211.82,95.15a6,6,0,0,1-6-6V6a6,6,0,0,1,12,0V89.15A6,6,0,0,1,211.82,95.15Z"/><path d="M305.07,275.74H280.26a10.11,10.11,0,0,1-10.1-10.1V227.89a10.11,10.11,0,0,1,10.1-10.1h24.81a10.12,10.12,0,0,1,10.11,10.1v37.75A10.12,10.12,0,0,1,305.07,275.74Zm-22.91-12h21v-34h-21Z"/><path d="M305.07,255.66H280.26a10.12,10.12,0,0,1-10.1-10.11V227.89a10.11,10.11,0,0,1,10.1-10.1h24.81a10.12,10.12,0,0,1,10.11,10.1v17.66A10.13,10.13,0,0,1,305.07,255.66Zm-22.91-12h21V229.79h-21Z"/><path d="M362.77,275.74H338a10.11,10.11,0,0,1-10.11-10.1V227.89A10.11,10.11,0,0,1,338,217.79h24.8a10.11,10.11,0,0,1,10.11,10.1v37.75A10.11,10.11,0,0,1,362.77,275.74Zm-22.91-12h21v-34h-21Z"/><path d="M362.77,255.66H338a10.12,10.12,0,0,1-10.11-10.11V227.89A10.11,10.11,0,0,1,338,217.79h24.8a10.11,10.11,0,0,1,10.11,10.1v17.66A10.12,10.12,0,0,1,362.77,255.66Zm-22.91-12h21V229.79h-21Z"/><path d="M305.07,344.43H280.26c-5.57,0-10.1-4.07-10.1-9.06V301.53c0-5,4.53-9.06,10.1-9.06h24.81c5.57,0,10.11,4.06,10.11,9.06v33.84C315.18,340.36,310.64,344.43,305.07,344.43Zm-22.91-10.76h21V303.23h-21Z"/><path d="M305.07,326.42H280.26c-5.57,0-10.1-4.07-10.1-9.06V301.53c0-5,4.53-9.06,10.1-9.06h24.81c5.57,0,10.11,4.06,10.11,9.06v15.83C315.18,322.35,310.64,326.42,305.07,326.42Zm-22.91-10.76h21V303.23h-21Z"/><path d="M362.77,344.43H338c-5.58,0-10.11-4.07-10.11-9.06V301.53c0-5,4.53-9.06,10.11-9.06h24.8c5.58,0,10.11,4.06,10.11,9.06v33.84C372.88,340.36,368.35,344.43,362.77,344.43Zm-22.91-10.76h21V303.23h-21Z"/><path d="M362.77,326.42H338c-5.58,0-10.11-4.07-10.11-9.06V301.53c0-5,4.53-9.06,10.11-9.06h24.8c5.58,0,10.11,4.06,10.11,9.06v15.83C372.88,322.35,368.35,326.42,362.77,326.42Zm-22.91-10.76h21V303.23h-21Z"/><path d="M87.71,275.74H62.9a10.11,10.11,0,0,1-10.1-10.1V227.89a10.11,10.11,0,0,1,10.1-10.1H87.71a10.12,10.12,0,0,1,10.11,10.1v37.75A10.12,10.12,0,0,1,87.71,275.74Zm-22.91-12h21v-34h-21Z"/><path d="M87.71,255.66H62.9a10.12,10.12,0,0,1-10.1-10.11V227.89a10.11,10.11,0,0,1,10.1-10.1H87.71a10.12,10.12,0,0,1,10.11,10.1v17.66A10.13,10.13,0,0,1,87.71,255.66Zm-22.91-12h21V229.79h-21Z"/><path d="M145.41,275.74H120.6a10.11,10.11,0,0,1-10.1-10.1V227.89a10.11,10.11,0,0,1,10.1-10.1h24.81a10.11,10.11,0,0,1,10.11,10.1v37.75A10.11,10.11,0,0,1,145.41,275.74Zm-22.91-12h21v-34h-21Z"/><path d="M145.41,255.66H120.6a10.12,10.12,0,0,1-10.1-10.11V227.89a10.11,10.11,0,0,1,10.1-10.1h24.81a10.11,10.11,0,0,1,10.11,10.1v17.66A10.12,10.12,0,0,1,145.41,255.66Zm-22.91-12h21V229.79h-21Z"/><path d="M87.71,344.43H62.9c-5.57,0-10.1-4.07-10.1-9.06V301.53c0-5,4.53-9.06,10.1-9.06H87.71c5.57,0,10.11,4.06,10.11,9.06v33.84C97.82,340.36,93.28,344.43,87.71,344.43ZM64.8,333.67h21V303.23h-21Z"/><path d="M87.71,326.42H62.9c-5.57,0-10.1-4.07-10.1-9.06V301.53c0-5,4.53-9.06,10.1-9.06H87.71c5.57,0,10.11,4.06,10.11,9.06v15.83C97.82,322.35,93.28,326.42,87.71,326.42ZM64.8,315.66h21V303.23h-21Z"/><path d="M145.41,344.43H120.6c-5.57,0-10.1-4.07-10.1-9.06V301.53c0-5,4.53-9.06,10.1-9.06h24.81c5.58,0,10.11,4.06,10.11,9.06v33.84C155.52,340.36,151,344.43,145.41,344.43ZM122.5,333.67h21V303.23h-21Z"/><path d="M145.41,326.42H120.6c-5.57,0-10.1-4.07-10.1-9.06V301.53c0-5,4.53-9.06,10.1-9.06h24.81c5.58,0,10.11,4.06,10.11,9.06v15.83C155.52,322.35,151,326.42,145.41,326.42ZM122.5,315.66h21V303.23h-21Z"/><path d="M256.29,375.32H167V285.23a20.66,20.66,0,0,1,20.64-20.63h48a20.66,20.66,0,0,1,20.64,20.63Zm-77.28-12h65.28V285.23a8.65,8.65,0,0,0-8.64-8.63h-48a8.64,8.64,0,0,0-8.64,8.63Z"/><path d="M256.29,375.32H205.65v-87.4h50.64Zm-38.64-12h26.64v-63.4H217.65Z"/><path d="M217.65,375.32H167v-87.4h50.64Zm-38.64-12h26.64v-63.4H179Z"/><path d="M407.56,375.32H13.86a6,6,0,0,1,0-12h393.7a6,6,0,0,1,0,12Z"/><path d="M218.16,203.74H191.9a6,6,0,1,1,0-12h14.26V176.13a6,6,0,0,1,12,0Z"/></g></svg>