<svg xmlns="http://www.w3.org/2000/svg" viewBox="0 0 371.58 372.6"><g id="Camada_2" data-name="Camada 2"><path d="M187.88,0C86.58,0,4.18,82.41,4.18,183.7a183.78,183.78,0,0,0,22.67,88.46L0,372.6l101.1-27a183.84,183.84,0,0,0,86.78,21.76c101.29,0,183.7-82.4,183.7-183.7S289.17,0,187.88,0Zm1,341a158.56,158.56,0,0,1-74.3-18.37L30.35,342.77,50.17,260A159.33,159.33,0,1,1,188.9,341Z"/><path d="M236.59,285.15c-18.67,0-44.87-14.47-59.34-23.46C152,246,127.34,225.56,109.6,205.62c-15.2-17.06-32.33-41.8-27.66-62.71,11.32-50.76,43.76-56.17,45.14-56.38l3.48-.52,2.15,2.78c14.56,18.81,23.82,36.45,28.3,53.93l.57,2.22-14.16,27.33c15.29,25.13,36.17,42.34,63.66,52.48l24.67-25.69,3.78,1.57a200.92,200.92,0,0,1,51.58,30.54l2.81,2.32-.77,3.57A69.46,69.46,0,0,1,283,259.27,58.19,58.19,0,0,1,239.9,285,32.48,32.48,0,0,1,236.59,285.15ZM125.65,99.34c-7.2,2.67-24.48,12.48-32,46.18-2.78,12.45,6.07,31,24.91,52.13,34.78,39.08,96.51,77.84,120.11,75.4,28.4-2.93,38.78-26.13,41.76-35.09a189.56,189.56,0,0,0-41.73-24.65l-24.28,25.3-3.62-1.23c-32.71-11.11-58.09-31.94-75.43-61.91l-1.65-2.84,15.08-29.11C144.8,129.32,137.2,114.81,125.65,99.34Z"/></g></svg>