<svg xmlns="http://www.w3.org/2000/svg" xmlns:xlink="http://www.w3.org/1999/xlink" viewBox="0 0 371.58 372.6"><defs><style>.cls-1{fill:url(#Gradiente_sem_nome_3);}.cls-2{fill:url(#Gradiente_sem_nome_3-2);}</style><linearGradient id="Gradiente_sem_nome_3" x1="152.77" y1="247.73" x2="217.24" y2="136.06" gradientUnits="userSpaceOnUse"><stop offset="0.05" stop-color="#c43edc"/><stop offset="0.52" stop-color="#f00271"/><stop offset="0.6" stop-color="#f00570"/><stop offset="0.65" stop-color="#f00f6e"/><stop offset="0.7" stop-color="#ef1f6b"/><stop offset="0.74" stop-color="#ee3566"/><stop offset="0.79" stop-color="#ed5360"/><stop offset="0.83" stop-color="#ec7758"/><stop offset="0.86" stop-color="#eaa14f"/><stop offset="0.87" stop-color="#eaa94d"/></linearGradient><linearGradient id="Gradiente_sem_nome_3-2" x1="59.12" y1="406.73" x2="279.71" y2="24.64" xlink:href="#Gradiente_sem_nome_3"/></defs><g id="Camada_2" data-name="Camada 2"><path class="cls-1" d="M236.59,285.15c-18.67,0-44.87-14.47-59.34-23.46C152,246,127.34,225.56,109.6,205.62c-15.2-17.06-32.33-41.8-27.66-62.71,11.32-50.76,43.76-56.17,45.14-56.38l3.48-.52,2.15,2.78c14.56,18.81,23.82,36.45,28.3,53.93l.57,2.22-14.16,27.33c15.29,25.13,36.17,42.34,63.66,52.48l24.67-25.69,3.78,1.57a200.92,200.92,0,0,1,51.58,30.54l2.81,2.32-.77,3.57A69.46,69.46,0,0,1,283,259.27,58.19,58.19,0,0,1,239.9,285,32.48,32.48,0,0,1,236.59,285.15ZM125.65,99.34c-7.2,2.67-24.48,12.48-32,46.18-2.78,12.45,6.07,31,24.91,52.13,34.78,39.08,96.51,77.84,120.11,75.4,28.4-2.93,38.78-26.13,41.76-35.09a189.56,189.56,0,0,0-41.73-24.65l-24.28,25.3-3.62-1.23c-32.71-11.11-58.09-31.94-75.43-61.91l-1.65-2.84,15.08-29.11C144.8,129.32,137.2,114.81,125.65,99.34Z"/><path class="cls-2" d="M0,372.6,26.85,272.16A183.78,183.78,0,0,1,4.18,183.7C4.18,82.41,86.58,0,187.88,0s183.7,82.41,183.7,183.7-82.41,183.7-183.7,183.7a183.84,183.84,0,0,1-86.78-21.76ZM187.88,12C93.2,12,16.18,89,16.18,183.7a171.66,171.66,0,0,0,22.31,84.69l1.22,2.14L17,355.66l85.71-22.86,2.11,1.18a171.83,171.83,0,0,0,83.11,21.42c94.68,0,171.7-77,171.7-171.7S282.56,12,187.88,12Z"/></g></svg>