<svg xmlns="http://www.w3.org/2000/svg" viewBox="0 0 151.79 62.6"><defs><style>.cls-1{fill:#eaa94d;}</style></defs><g id="Camada_3" data-name="Camada 3"><path class="cls-1" d="M142,15.4c-44.78,60.68-89.7,60.26-134.74,0-1.2-1.62-1.6-3.89-.18-5.17h0A1.9,1.9,0,0,1,9.51,10c42.92,28.18,86.32,28.44,130.21,0a1.9,1.9,0,0,1,2.39.22l.07.07C143.58,11.53,143.22,13.79,142,15.4Z"/><path class="cls-1" d="M133.19,2.07c12.89-5.55,17,3,15.55,20.56-.17,1.9-2.22,2-2.53.18Q143.5,7,133.43,5.32C132.07,5.1,131.88,2.64,133.19,2.07Z"/><path class="cls-1" d="M16.13,4.36C5.32-.22,1.79,6.92,3,21.68c.14,1.64,1.94,1.82,2.22.21Q7.52,8.69,15.92,7.22C17.12,7,17.28,4.85,16.13,4.36Z"/></g></svg>