<svg xmlns="http://www.w3.org/2000/svg" xmlns:xlink="http://www.w3.org/1999/xlink" viewBox="0 0 297.03 412.85"><defs><style>.cls-1{fill:#956c31;}.cls-2{fill:url(#Gradiente_sem_nome_11);}.cls-3{fill:#5414af;}.cls-4{fill:#6f12dc;}.cls-5{fill:#e5d9f9;}.cls-6{fill:#eaa94d;}.cls-7{fill:#422a75;}.cls-8{fill:url(#Gradiente_sem_nome_11-2);}.cls-9{fill:url(#Gradiente_sem_nome_8);}.cls-10{fill:#950146;}.cls-11{fill:#f00271;}</style><radialGradient id="Gradiente_sem_nome_11" cx="32.8" cy="340.91" r="68.63" gradientTransform="matrix(0.54, -0.84, 0.53, 0.34, -157.7, 256.46)" gradientUnits="userSpaceOnUse"><stop offset="0" stop-color="#6f12dc"/><stop offset="0.34" stop-color="#6d12d9"/><stop offset="0.6" stop-color="#6713cf"/><stop offset="0.82" stop-color="#5e13bf"/><stop offset="0.98" stop-color="#5414af"/></radialGradient><radialGradient id="Gradiente_sem_nome_11-2" cx="262.14" cy="347.64" r="68.63" gradientTransform="matrix(0.3, 0.96, -0.6, 0.19, 365.34, 65.31)" xlink:href="#Gradiente_sem_nome_11"/><radialGradient id="Gradiente_sem_nome_8" cx="144.23" cy="376.03" fx="245.35233185810768" r="128.86" gradientTransform="matrix(-0.19, 0.98, -0.83, -0.16, 470.8, 293.35)" gradientUnits="userSpaceOnUse"><stop offset="0.3" stop-color="#6f12dc"/><stop offset="0.52" stop-color="#6d12d9"/><stop offset="0.68" stop-color="#6713cf"/><stop offset="0.82" stop-color="#5e13bf"/><stop offset="0.92" stop-color="#5414af"/></radialGradient></defs><g id="Camada_2" data-name="Camada 2"><rect class="cls-1" width="297.03" height="412.85"/><path class="cls-2" d="M105.24,294.9S73.63,405.9,31,417.71c-16.75,4.64-47.32-12.56-51.56-29.42-8.1-32.25,42.71-95.05,71-112.47C66.86,265.74,105.24,294.9,105.24,294.9Z"/><path class="cls-3" d="M8.46,380.51S24.93,426.44,16.13,438s-45.93,16.47-57.45,7.67S-57.79,399.69-49,388.18,8.46,380.51,8.46,380.51Z"/><path class="cls-4" d="M9.49,378.07S-2.82,425.3-16.58,429.85s-47.22-12.31-51.77-26.07S-56,356.56-42.28,352,9.49,378.07,9.49,378.07Z"/><path class="cls-5" d="M83.88,350.74,5.79,306.1,28,290.39s15.9-18,24.62-21.28c17-6.36,59.46-6.77,59.46-6.77L110.9,305Z"/><ellipse class="cls-6" cx="10.1" cy="396.06" rx="13.28" ry="23.85" transform="translate(-288.08 135.19) rotate(-47.36)"/><path class="cls-4" d="M15,382.93s-43.52,29.51-56.91,24-27.75-40.15-22.21-53.54S-24,325.62-10.63,331.16,15,382.93,15,382.93Z"/><polygon class="cls-7" points="84.56 355.3 -0.12 306.36 6.4 303.37 85.43 349.82 84.56 355.3"/><path class="cls-8" d="M188.92,312.8s-3.51,115.36,33.55,139.54c14.56,9.5,48.91,2.38,58-12.41,17.5-28.28-11.89-103.52-33.6-128.71C234.34,296.64,188.92,312.8,188.92,312.8Z"/><path class="cls-4" d="M255,421.08s-2.59,48.74,9.14,57.24,48.74,2.59,57.24-9.15,2.59-48.73-9.15-57.23S255,421.08,255,421.08Z"/><path class="cls-5" d="M192.35,372.49l88-18.88L263.86,331.9s-9.69-22-17-27.74c-14.27-11.21-54.61-24.47-54.61-24.47l-11.77,41Z"/><path class="cls-4" d="M248.29,424.06s32.52,41.31,47,40.09,38.62-29.84,37.4-44.28-29.85-38.62-44.29-37.4S248.29,424.06,248.29,424.06Z"/><polygon class="cls-7" points="190.81 375.97 284.57 354.26 280.25 349.89 190.34 370.13 190.81 375.97"/><path class="cls-9" d="M111.59,488.26c-163.16-27.09-24.76-235.21,37.35-224.9S282.11,516.58,111.59,488.26Z"/><path class="cls-6" d="M121.35,457.18C6.59,438.12,103.94,291.73,147.62,299S241.29,477.09,121.35,457.18Z"/><path class="cls-4" d="M65.25,395.2l-.39-4.52c47.76-4.12,92.39,3.3,132.66,22l-1.91,4.12C156.06,398.43,112.21,391.15,65.25,395.2Z"/><path class="cls-4" d="M68.7,374.44l-.39-4.52c47.76-4.12,92.39,3.29,132.66,22l-1.92,4.12C159.51,377.67,115.65,370.39,68.7,374.44Z"/><path class="cls-4" d="M61.65,416.86l-.39-4.53c47.76-4.12,92.39,3.3,132.67,22.05L192,438.49C152.47,420.08,108.61,412.8,61.65,416.86Z"/><rect class="cls-3" x="127.37" y="235.5" width="39.16" height="60.54" transform="translate(45.52 -20.48) rotate(9.43)"/><path class="cls-5" d="M43.39,357.08Q139.12,327.41,221.85,384L195.48,276.18l-28.2-4.68c-12.16,15.58-25.76,14.68-41.17-6.84l-21.7-3.6Z"/><path class="cls-6" d="M134.2,296a.6.6,0,0,1-.22.39,1.23,1.23,0,0,1-.4.23l-.42.18a1.81,1.81,0,0,0-.41.23,1.4,1.4,0,0,0-.33.31,1,1,0,0,0-.18.43.81.81,0,0,0,0,.41,2.33,2.33,0,0,0,.19.39c.08.13.18.26.28.41a3.3,3.3,0,0,1,.26.45,2.35,2.35,0,0,1,.17.55,1.88,1.88,0,0,1,0,.67,1.86,1.86,0,0,1-.21.56,3.76,3.76,0,0,1-.4.61,4.91,4.91,0,0,1-.55.57,3.9,3.9,0,0,1-.63.46,3.22,3.22,0,0,1-.66.3,1.53,1.53,0,0,1-.63.05,1.07,1.07,0,0,1-.54-.27.66.66,0,0,1-.16-.57.9.9,0,0,1,.19-.42,2.19,2.19,0,0,1,.34-.34,4.15,4.15,0,0,1,.43-.3l.43-.29a2.13,2.13,0,0,0,.34-.33.7.7,0,0,0,.18-.39,1.12,1.12,0,0,0-.11-.65l-.36-.73a5.84,5.84,0,0,1-.36-.76,1.42,1.42,0,0,1-.09-.75,2.21,2.21,0,0,1,.39-.9,3.84,3.84,0,0,1,.76-.8,3.59,3.59,0,0,1,1-.54,2,2,0,0,1,1-.11.91.91,0,0,1,.58.32A.73.73,0,0,1,134.2,296Z"/><path class="cls-6" d="M135.67,304.1a1.92,1.92,0,0,1-1-.5,2.47,2.47,0,0,1-.63-1,4.13,4.13,0,0,1-.25-1.32,6.91,6.91,0,0,1,.5-2.94,5,5,0,0,1,.71-1.27,3.18,3.18,0,0,1,1-.84,2,2,0,0,1,1.28-.18,1.81,1.81,0,0,1,1.08.55,2.69,2.69,0,0,1,.58,1.08,5.41,5.41,0,0,1,.17,1.37,8.93,8.93,0,0,1-.12,1.47,7.48,7.48,0,0,1-.41,1.5,4.45,4.45,0,0,1-.7,1.19,2.67,2.67,0,0,1-1,.73A2.13,2.13,0,0,1,135.67,304.1Zm1.08-5.75a.41.41,0,0,0-.36.1,1.15,1.15,0,0,0-.3.37,2.44,2.44,0,0,0-.23.54,4.75,4.75,0,0,0-.14.63,6,6,0,0,0-.08.73,3.66,3.66,0,0,0,0,.68,1.34,1.34,0,0,0,.16.5.42.42,0,0,0,.31.24.45.45,0,0,0,.4-.17,2.3,2.3,0,0,0,.3-.52,3.43,3.43,0,0,0,.21-.64,4.54,4.54,0,0,0,.12-.57,5.11,5.11,0,0,0,.06-.59,2.84,2.84,0,0,0,0-.59,1.51,1.51,0,0,0-.14-.48A.42.42,0,0,0,136.75,298.35Z"/><path class="cls-6" d="M144.88,299.69a2.48,2.48,0,0,1-.55,1.22,3.49,3.49,0,0,1-1,.86c.08.18.16.4.24.64a5.89,5.89,0,0,1,.2.75,5.29,5.29,0,0,1,.11.77,2.56,2.56,0,0,1,0,.69,1.07,1.07,0,0,1-.26.57.56.56,0,0,1-.58.17.66.66,0,0,1-.5-.4,3.34,3.34,0,0,1-.3-.81q-.1-.45-.18-.93a5.93,5.93,0,0,0-.17-.76l-.38.08-.39.09c0,.15-.08.36-.14.62a4.42,4.42,0,0,1-.25.78,2.14,2.14,0,0,1-.37.63.54.54,0,0,1-.54.21.6.6,0,0,1-.48-.36,2,2,0,0,1-.15-.71,4.33,4.33,0,0,1,0-.8c0-.26.07-.47.09-.62l.18-1c.07-.31.13-.63.18-.95s.1-.59.13-.89.09-.6.14-.91l0-.26c0-.11,0-.22.07-.33l.09-.32a.55.55,0,0,1,.12-.23,1,1,0,0,1,.54-.34,5.15,5.15,0,0,1,.86-.21,7.28,7.28,0,0,1,.9-.1,3,3,0,0,1,.64,0,2.12,2.12,0,0,1,.9.35,1.86,1.86,0,0,1,.58.64,2.43,2.43,0,0,1,.28.85A3.38,3.38,0,0,1,144.88,299.69Zm-1.94-.18a.59.59,0,0,0-.06-.43.52.52,0,0,0-.38-.2,1,1,0,0,0-.43,0,2.24,2.24,0,0,0-.41.1c-.07.55-.15,1.09-.24,1.63a2.89,2.89,0,0,0,.47-.11,2,2,0,0,0,.47-.21,1.7,1.7,0,0,0,.38-.32A1,1,0,0,0,142.94,299.51Z"/><path class="cls-6" d="M150.29,300.58a2.56,2.56,0,0,1-.54,1.23,3.84,3.84,0,0,1-1.05.86c.08.18.16.4.24.64a4.59,4.59,0,0,1,.2.75,5.1,5.1,0,0,1,.11.77,3.11,3.11,0,0,1,0,.69,1.24,1.24,0,0,1-.26.57.58.58,0,0,1-.59.17.66.66,0,0,1-.5-.4,3.34,3.34,0,0,1-.29-.81,9,9,0,0,1-.19-.93,5.93,5.93,0,0,0-.17-.76l-.38.08-.39.09c0,.15-.08.36-.14.62a5.28,5.28,0,0,1-.24.77,2.31,2.31,0,0,1-.38.64.54.54,0,0,1-.54.21.63.63,0,0,1-.48-.37,1.89,1.89,0,0,1-.15-.7,4.29,4.29,0,0,1,0-.8c0-.26.07-.47.09-.62l.18-1c.07-.31.13-.63.18-.95s.1-.6.14-.89.08-.6.13-.91l0-.26c0-.11,0-.22.07-.33l.09-.32a.89.89,0,0,1,.12-.24,1,1,0,0,1,.54-.33,5.15,5.15,0,0,1,.86-.21,5.76,5.76,0,0,1,.9-.1,3,3,0,0,1,.64,0,2,2,0,0,1,.9.35,1.86,1.86,0,0,1,.58.64,2.24,2.24,0,0,1,.28.85A3.31,3.31,0,0,1,150.29,300.58Zm-1.94-.17a.59.59,0,0,0-.06-.43.52.52,0,0,0-.38-.21,1.25,1.25,0,0,0-.43,0,2.46,2.46,0,0,0-.41.1c-.06.55-.14,1.09-.24,1.63.15,0,.31-.06.48-.11a2.11,2.11,0,0,0,.46-.21,1.7,1.7,0,0,0,.38-.32A1,1,0,0,0,148.35,300.41Z"/><path class="cls-6" d="M154.49,299.66a.71.71,0,0,1-.14.33.89.89,0,0,1-.28.23,1.81,1.81,0,0,1-.35.13,2.2,2.2,0,0,1-.36,0c-.14.78-.3,1.53-.46,2.24s-.36,1.46-.59,2.21h.07a1.92,1.92,0,0,1,.32.09,1,1,0,0,1,.27.18.74.74,0,0,1,.17.25.7.7,0,0,1,0,.33.62.62,0,0,1-.22.39,1.31,1.31,0,0,1-.44.23,3.3,3.3,0,0,1-.58.12c-.21,0-.41,0-.62,0s-.4,0-.58,0l-.44-.05-.3-.06a1.61,1.61,0,0,1-.33-.12.71.71,0,0,1-.25-.2.38.38,0,0,1-.07-.3,1,1,0,0,1,.15-.37,1.06,1.06,0,0,1,.29-.27,1.17,1.17,0,0,1,.36-.16,1.78,1.78,0,0,1,.39-.07c.11-.37.22-.74.32-1.11s.2-.74.27-1.13l.24-1.15c.08-.39.15-.77.23-1.15h-.25l-.31-.08a1.64,1.64,0,0,1-.29-.16.79.79,0,0,1-.21-.24.43.43,0,0,1-.05-.3.71.71,0,0,1,.39-.53,2.26,2.26,0,0,1,.76-.24,4.15,4.15,0,0,1,.86,0c.29,0,.52,0,.69.07a2.61,2.61,0,0,1,.38.08,2.54,2.54,0,0,1,.46.17,1.31,1.31,0,0,1,.37.27A.38.38,0,0,1,154.49,299.66Z"/><path class="cls-6" d="M158.06,300a.6.6,0,0,1-.22.39,1.23,1.23,0,0,1-.4.23l-.42.18a2.3,2.3,0,0,0-.41.23,1.4,1.4,0,0,0-.33.31,1,1,0,0,0-.18.43.8.8,0,0,0,0,.41,2.33,2.33,0,0,0,.19.39c.08.13.18.27.28.41a2.9,2.9,0,0,1,.26.46,2.14,2.14,0,0,1,.17.54,1.88,1.88,0,0,1,0,.67,2,2,0,0,1-.21.57,4.17,4.17,0,0,1-.4.6,4.91,4.91,0,0,1-.55.57,4,4,0,0,1-.63.47,2.71,2.71,0,0,1-.66.29,1.37,1.37,0,0,1-.63.05.93.93,0,0,1-.54-.27.62.62,0,0,1-.16-.57.9.9,0,0,1,.19-.42,2.73,2.73,0,0,1,.34-.34,4.15,4.15,0,0,1,.43-.3c.16-.1.3-.19.43-.29a2.61,2.61,0,0,0,.34-.32.77.77,0,0,0,.18-.39,1.11,1.11,0,0,0-.11-.65c-.11-.24-.23-.48-.36-.73a6.65,6.65,0,0,1-.36-.77,1.42,1.42,0,0,1-.09-.75,2.21,2.21,0,0,1,.39-.9,4.1,4.1,0,0,1,.76-.8,3.3,3.3,0,0,1,.95-.53,1.85,1.85,0,0,1,1-.12,1,1,0,0,1,.58.32A.73.73,0,0,1,158.06,300Z"/><path class="cls-6" d="M159.53,308.06a1.85,1.85,0,0,1-1-.5,2.4,2.4,0,0,1-.63-1,4.12,4.12,0,0,1-.25-1.31,6.92,6.92,0,0,1,.5-2.95,5,5,0,0,1,.71-1.27,3.18,3.18,0,0,1,1-.84,2,2,0,0,1,1.28-.18,1.77,1.77,0,0,1,1.08.56,2.58,2.58,0,0,1,.58,1.07,5.41,5.41,0,0,1,.17,1.37,8.93,8.93,0,0,1-.12,1.47,7.48,7.48,0,0,1-.41,1.5,4.45,4.45,0,0,1-.7,1.19,2.67,2.67,0,0,1-1,.73A2.05,2.05,0,0,1,159.53,308.06Zm1.08-5.75a.44.44,0,0,0-.36.1,1.27,1.27,0,0,0-.3.37,2.66,2.66,0,0,0-.23.54,4.75,4.75,0,0,0-.14.63,6.2,6.2,0,0,0-.08.74,3.59,3.59,0,0,0,0,.67,1.46,1.46,0,0,0,.16.51.41.41,0,0,0,.31.23.42.42,0,0,0,.4-.17,2.45,2.45,0,0,0,.3-.51,3.53,3.53,0,0,0,.21-.65,4.43,4.43,0,0,0,.12-.56,5.54,5.54,0,0,0,.06-.6,2.84,2.84,0,0,0,0-.59,1.51,1.51,0,0,0-.14-.48A.42.42,0,0,0,160.61,302.31Z"/><path class="cls-6" d="M118.73,308.71a6.76,6.76,0,0,1-1.06,2.68,8.26,8.26,0,0,1-2,2.11,7.7,7.7,0,0,1-2.59,1.26,6.51,6.51,0,0,1-2.88.15h0a.58.58,0,0,1-.44-.35,2.71,2.71,0,0,1-.21-.74,5.69,5.69,0,0,1,0-.95c0-.34,0-.68.07-1s.06-.62.11-.88l.09-.58c.07-.37.13-.74.2-1.11s.15-.73.24-1.09c0-.12,0-.3.11-.53s.12-.5.19-.79.15-.59.24-.91.17-.61.25-.89l.24-.71a1.14,1.14,0,0,1,.21-.42,2.1,2.1,0,0,1,.76-.53,5.69,5.69,0,0,1,1-.3,6.68,6.68,0,0,1,1.09-.09,6.27,6.27,0,0,1,.94.06,4.06,4.06,0,0,1,1.81.72,3.86,3.86,0,0,1,1.15,1.3,4.58,4.58,0,0,1,.53,1.69A7.15,7.15,0,0,1,118.73,308.71Zm-2.84,0a2.16,2.16,0,0,0,0-.76,2.37,2.37,0,0,0-.25-.75,1.9,1.9,0,0,0-.49-.6,1.57,1.57,0,0,0-.72-.31,1.67,1.67,0,0,0-.73.05c-.06,0-.12.11-.2.28a4,4,0,0,0-.2.59q-.11.36-.21.78c-.07.28-.13.55-.18.8s-.09.48-.12.68-.07.33-.08.39l-.08.49c0,.21-.06.42-.08.63s0,.4,0,.55,0,.24.08.25a1.58,1.58,0,0,0,1-.22,5,5,0,0,0,1-.8,5.48,5.48,0,0,0,.82-1.06A2.78,2.78,0,0,0,115.89,308.73Z"/><path class="cls-6" d="M125.6,306a1.21,1.21,0,0,1-.24.54,1.47,1.47,0,0,1-.43.35,2.69,2.69,0,0,1-.56.21,3,3,0,0,1-.57.07c-.22,1.23-.47,2.42-.73,3.55s-.57,2.3-.93,3.5l.1,0a3,3,0,0,1,.51.14,1.34,1.34,0,0,1,.42.28.86.86,0,0,1,.27.39.9.9,0,0,1,0,.52,1,1,0,0,1-.34.62,2.12,2.12,0,0,1-.7.37,5,5,0,0,1-.92.19c-.33,0-.66.05-1,.05s-.64,0-.92-.05-.52-.05-.7-.08a4.63,4.63,0,0,1-.48-.1,2.13,2.13,0,0,1-.52-.18,1.28,1.28,0,0,1-.4-.32.6.6,0,0,1-.1-.48,1.23,1.23,0,0,1,.24-.59,1.81,1.81,0,0,1,.45-.42,1.85,1.85,0,0,1,.57-.26,3.34,3.34,0,0,1,.62-.1l.51-1.76c.16-.58.3-1.18.43-1.79s.25-1.23.37-1.83.25-1.21.37-1.82h-.22l-.18,0a3.47,3.47,0,0,1-.48-.13,1.66,1.66,0,0,1-.47-.26,1.24,1.24,0,0,1-.33-.36.67.67,0,0,1-.08-.49,1.13,1.13,0,0,1,.62-.84,3.43,3.43,0,0,1,1.21-.37,6.85,6.85,0,0,1,1.36,0c.46,0,.82.06,1.1.1s.35.07.6.14a3.31,3.31,0,0,1,.72.27,2.16,2.16,0,0,1,.59.42A.67.67,0,0,1,125.6,306Z"/><path class="cls-6" d="M133.68,307.62a6.43,6.43,0,0,1-.36,1.3c-.18.47-.39.94-.62,1.42s-.47.94-.72,1.39-.47.85-.66,1.21-.28.51-.44.85-.34.69-.55,1.06-.41.74-.64,1.1a7,7,0,0,1-.72,1,3.52,3.52,0,0,1-.77.66,1.2,1.2,0,0,1-.81.17,1,1,0,0,1-.62-.43,3.9,3.9,0,0,1-.47-.89,8.94,8.94,0,0,1-.36-1.17c-.11-.43-.19-.85-.27-1.25s-.13-.78-.16-1.13-.07-.6-.08-.78c-.08-.89-.15-1.79-.2-2.69a12.4,12.4,0,0,1,.14-2.66c0-.22.09-.45.15-.68a2,2,0,0,1,.27-.62,1.29,1.29,0,0,1,.45-.42,1,1,0,0,1,.69-.08.87.87,0,0,1,.6.51,4.52,4.52,0,0,1,.38,1.13,14.88,14.88,0,0,1,.21,1.51c0,.54.09,1.08.13,1.61s.07,1,.11,1.48a6.48,6.48,0,0,0,.15,1.11l.44-.91c.2-.4.42-.83.68-1.31s.52-1,.81-1.46a13.34,13.34,0,0,1,.88-1.33,5.41,5.41,0,0,1,.87-.94,1,1,0,0,1,.81-.29.79.79,0,0,1,.44.21.83.83,0,0,1,.22.39,1.86,1.86,0,0,1,.06.48A2.45,2.45,0,0,1,133.68,307.62Z"/><path class="cls-6" d="M139.7,317.13a1.22,1.22,0,0,1-.26.58,2.49,2.49,0,0,1-.88.53c-.45.18-.94.34-1.46.49s-1,.25-1.53.33a3.19,3.19,0,0,1-1,.07,1.71,1.71,0,0,1-.53-.19,4.7,4.7,0,0,1-.57-.38,3.27,3.27,0,0,1-.51-.47,2,2,0,0,1-.3-.47,1.69,1.69,0,0,1,0-.48c0-.24,0-.51,0-.82s.05-.64.09-1,.07-.68.1-1,.07-.59.11-.83.06-.42.08-.53c.07-.4.16-.87.27-1.39s.25-1,.42-1.55a9.59,9.59,0,0,1,.59-1.47,4.13,4.13,0,0,1,.8-1.14,1.52,1.52,0,0,1,.51-.24,5.83,5.83,0,0,1,.87-.17c.32,0,.68-.09,1.05-.11s.74-.05,1.08-.05h.93a4.47,4.47,0,0,1,.64.05,1.09,1.09,0,0,1,.45.18,1.37,1.37,0,0,1,.33.35,1.49,1.49,0,0,1,.17.44,1.34,1.34,0,0,1,0,.49,1.43,1.43,0,0,1-.12.35,1.72,1.72,0,0,1-.23.3,2.52,2.52,0,0,1-.77.39c-.38.14-.79.27-1.24.39s-.86.23-1.26.32l-.85.2-.27.74a6.65,6.65,0,0,0-.23.76,8.53,8.53,0,0,1,1.23-.3,3.78,3.78,0,0,1,1.25,0,1.17,1.17,0,0,1,.78,1.82,1.33,1.33,0,0,1-.34.33,2,2,0,0,1-.44.22l-.47.16a7.85,7.85,0,0,1-1.18.3l-1.22.22-.11.27a1.11,1.11,0,0,0-.08.3,3.59,3.59,0,0,0-.05.46c0,.16,0,.32,0,.47l.67-.1,1-.15c.33,0,.65-.08,1-.1a3.61,3.61,0,0,1,.67,0,1,1,0,0,1,.44.19,1.12,1.12,0,0,1,.32.33,1.61,1.61,0,0,1,.17.45A1.24,1.24,0,0,1,139.7,317.13Z"/><path class="cls-6" d="M149.45,312.53a4.14,4.14,0,0,1-.87,2,6,6,0,0,1-1.65,1.36,9.21,9.21,0,0,1,.38,1,9,9,0,0,1,.32,1.19,10.68,10.68,0,0,1,.17,1.23,4.79,4.79,0,0,1,0,1.09,1.86,1.86,0,0,1-.41.9.92.92,0,0,1-.93.28,1.1,1.1,0,0,1-.8-.64,5.8,5.8,0,0,1-.46-1.28c-.11-.48-.21-1-.29-1.47a8.32,8.32,0,0,0-.27-1.21l-.61.13-.61.14c0,.24-.12.57-.22,1a8.79,8.79,0,0,1-.39,1.23,3.42,3.42,0,0,1-.6,1,.85.85,0,0,1-.85.33,1,1,0,0,1-.76-.58,2.83,2.83,0,0,1-.24-1.12,7.6,7.6,0,0,1,.06-1.26q.09-.63.15-1c.09-.52.18-1,.29-1.52s.2-1,.28-1.51.15-.94.21-1.41.13-.95.21-1.43l.07-.42c0-.17.07-.34.12-.52s.09-.35.14-.51a1.16,1.16,0,0,1,.18-.37,1.66,1.66,0,0,1,.85-.53,8.07,8.07,0,0,1,1.37-.34,12.19,12.19,0,0,1,1.43-.15,6,6,0,0,1,1,0,3.52,3.52,0,0,1,1.43.56,3.08,3.08,0,0,1,.92,1,3.71,3.71,0,0,1,.44,1.34A5.4,5.4,0,0,1,149.45,312.53Zm-3.08-.27a1,1,0,0,0-.08-.68.84.84,0,0,0-.61-.33,1.94,1.94,0,0,0-.68,0,5.32,5.32,0,0,0-.66.16c-.1.87-.22,1.73-.38,2.59a5.56,5.56,0,0,0,.76-.18,3.2,3.2,0,0,0,.73-.33,2.52,2.52,0,0,0,.6-.51A1.4,1.4,0,0,0,146.37,312.26Z"/><path class="cls-6" d="M157.55,311.23a1.11,1.11,0,0,1-.45.69,3.39,3.39,0,0,1-.86.47,6.14,6.14,0,0,1-1,.26,6.53,6.53,0,0,1-.83.1c-.22.83-.43,1.65-.62,2.48s-.35,1.66-.49,2.51c-.07.44-.14.89-.19,1.33s-.11.88-.18,1.32a4.6,4.6,0,0,1-.17.63,2.91,2.91,0,0,1-.31.64,1.47,1.47,0,0,1-.47.46.93.93,0,0,1-.64.11,1,1,0,0,1-.64-.35,1.76,1.76,0,0,1-.3-.65,3.17,3.17,0,0,1-.06-.76,4.69,4.69,0,0,1,.06-.7c.09-.66.18-1.33.28-2s.2-1.33.31-2,.19-1.11.29-1.64.18-1.08.28-1.64l-.48,0-.49-.06a4.79,4.79,0,0,1-.51-.13,2.75,2.75,0,0,1-.59-.25,1.7,1.7,0,0,1-.46-.38.64.64,0,0,1-.13-.52,1.16,1.16,0,0,1,.53-.79,3.3,3.3,0,0,1,1.09-.48,9.48,9.48,0,0,1,1.4-.24c.51,0,1-.06,1.5-.05s.93,0,1.33.06.72.07.94.1.43.08.66.14a2.37,2.37,0,0,1,.64.25,1.27,1.27,0,0,1,.46.43A1,1,0,0,1,157.55,311.23Z"/><path class="cls-6" d="M162.36,312.1a1.22,1.22,0,0,1-.24.53,1.36,1.36,0,0,1-.43.36,2.66,2.66,0,0,1-.56.2,2.34,2.34,0,0,1-.57.07c-.22,1.24-.47,2.42-.73,3.56s-.57,2.3-.93,3.5h.1a2.29,2.29,0,0,1,.51.15,1.17,1.17,0,0,1,.42.27,1,1,0,0,1,.27.4.89.89,0,0,1,0,.52,1,1,0,0,1-.34.62,2.12,2.12,0,0,1-.7.37,4.29,4.29,0,0,1-.92.18,8.15,8.15,0,0,1-1,.05c-.33,0-.64,0-.92,0l-.7-.08-.48-.1a2.14,2.14,0,0,1-.52-.19,1.26,1.26,0,0,1-.4-.32.58.58,0,0,1-.1-.47,1.16,1.16,0,0,1,.24-.59,1.51,1.51,0,0,1,.45-.42,1.64,1.64,0,0,1,.57-.26,2.67,2.67,0,0,1,.62-.1l.51-1.76c.16-.59.3-1.18.43-1.79s.25-1.23.37-1.84.25-1.21.37-1.81l-.22,0-.18,0a2.47,2.47,0,0,1-.48-.13,1.63,1.63,0,0,1-.47-.25,1.28,1.28,0,0,1-.33-.37.65.65,0,0,1-.08-.48,1.1,1.1,0,0,1,.62-.84,3.44,3.44,0,0,1,1.21-.38,7.7,7.7,0,0,1,1.36-.05,10.63,10.63,0,0,1,1.1.11c.15,0,.35.07.6.13a4.82,4.82,0,0,1,.72.27,2.4,2.4,0,0,1,.59.42A.67.67,0,0,1,162.36,312.1Z"/><path class="cls-6" d="M170.41,317.29a6.9,6.9,0,0,1-1,2.68,8.3,8.3,0,0,1-2,2.11,7.7,7.7,0,0,1-2.59,1.26,6.51,6.51,0,0,1-2.88.16h0a.58.58,0,0,1-.44-.35,3.17,3.17,0,0,1-.21-.73,5.79,5.79,0,0,1,0-1c0-.35,0-.69.07-1s.07-.62.11-.88l.09-.58c.07-.37.13-.74.2-1.1s.15-.73.24-1.1c0-.12.06-.3.11-.53s.12-.49.19-.79.15-.59.24-.91.17-.61.25-.88l.24-.72a1,1,0,0,1,.21-.41,1.88,1.88,0,0,1,.76-.53,4.46,4.46,0,0,1,1-.3,5.74,5.74,0,0,1,1.09-.1,6.27,6.27,0,0,1,.94.06,4.15,4.15,0,0,1,1.82.72,3.94,3.94,0,0,1,1.14,1.3,4.57,4.57,0,0,1,.53,1.7A7.06,7.06,0,0,1,170.41,317.29Zm-2.84,0a2.16,2.16,0,0,0,0-.76,2.37,2.37,0,0,0-.25-.75,2,2,0,0,0-.49-.6,1.57,1.57,0,0,0-.72-.31,1.68,1.68,0,0,0-.73.05c-.06,0-.12.12-.2.28a3.81,3.81,0,0,0-.2.6c-.07.23-.14.49-.21.77s-.13.55-.17.8-.1.49-.13.68-.07.33-.08.39l-.08.49c0,.21-.06.42-.08.63s0,.4,0,.55,0,.24.08.25a1.58,1.58,0,0,0,1-.22,4.48,4.48,0,0,0,1-.8,5.48,5.48,0,0,0,.82-1.06A2.71,2.71,0,0,0,167.57,317.31Z"/><path class="cls-6" d="M173.58,326a3.12,3.12,0,0,1-1.65-.79,4,4,0,0,1-1-1.55,6.69,6.69,0,0,1-.39-2.08,11.38,11.38,0,0,1,.79-4.67,7.76,7.76,0,0,1,1.13-2,4.93,4.93,0,0,1,1.59-1.34,3.19,3.19,0,0,1,2-.29,2.84,2.84,0,0,1,1.71.89,4.11,4.11,0,0,1,.91,1.7A7.88,7.88,0,0,1,179,318a13.79,13.79,0,0,1-.19,2.32,11.36,11.36,0,0,1-.65,2.38,7,7,0,0,1-1.11,1.88,4.2,4.2,0,0,1-1.52,1.16A3.42,3.42,0,0,1,173.58,326Zm1.72-9.12a.7.7,0,0,0-.57.16,1.88,1.88,0,0,0-.48.58,4.64,4.64,0,0,0-.36.87,8.56,8.56,0,0,0-.24,1,8.93,8.93,0,0,0-.11,1.16,5.23,5.23,0,0,0,.05,1.07,2.36,2.36,0,0,0,.24.8.66.66,0,0,0,.49.36.64.64,0,0,0,.63-.26,2.89,2.89,0,0,0,.48-.81,5.92,5.92,0,0,0,.34-1c.09-.35.15-.65.19-.89a8.94,8.94,0,0,0,.1-1,4.83,4.83,0,0,0,0-.94,2.28,2.28,0,0,0-.22-.75A.69.69,0,0,0,175.3,316.84Z"/><path class="cls-6" d="M162.34,330.27c-15.61,11.62-28.94,9.3-40-6.66-.3-.42-.33-1,.14-1.18h0a.7.7,0,0,1,.72.07c11.68,8.53,24.57,10.74,38.7,6.42a.73.73,0,0,1,.7.17l0,0C162.94,329.47,162.75,330,162.34,330.27Z"/><path class="cls-6" d="M161.5,327.09c3.81-1.15,4.23.71,2.81,4.2C164.71,328.48,163.78,327.07,161.5,327.09Z"/><path class="cls-6" d="M124.12,320.88c-3.23-2.31-4.23-.7-4,3.07C120.63,321.16,122,320.13,124.12,320.88Z"/><path class="cls-7" d="M41.85,359.32l2.23-3.74c33-9.42,63-13.19,92.23-9.17,30.8,4.26,58.44,16.14,85.41,35.39l1.17,6C171.12,350.85,108.64,340.24,41.85,359.32Z"/><path class="cls-7" d="M146.46,284.46c-7.59-1.26-14.63-8.84-22.17-19.86l2.9-.54c7.15,10.45,14.8,13.79,21.29,14.11,5.32.26,12.18-.74,17.74-7.37l2.27,1.26c-6.68,8-12.84,13-19.9,12.63C147.88,284.65,147.17,284.57,146.46,284.46Z"/><path class="cls-6" d="M164.81,51.12,143.09,76.73l48.18,8.13L179.16,53.54A8,8,0,0,0,164.81,51.12Z"/><path class="cls-6" d="M80.9,245.38l32.47-8.56L78.53,202.56l-8,32.61A8,8,0,0,0,80.9,245.38Z"/><path class="cls-6" d="M49.05,198.36,81.5,207,68.18,160l-23.1,24.38A8,8,0,0,0,49.05,198.36Z"/><path class="cls-6" d="M45.1,139.33l23.41,24.08,12.73-47.18-32.35,9A8,8,0,0,0,45.1,139.33Z"/><path class="cls-6" d="M71.49,87.28l8,32.63L114.35,85.7,81.89,77.09A8,8,0,0,0,71.49,87.28Z"/><path class="cls-6" d="M113.11,58.47l-7.37,32.77L152.2,76.09,127,54A8,8,0,0,0,113.11,58.47Z"/><circle class="cls-4" cx="157.85" cy="162.78" r="91.26"/><path class="cls-4" d="M128.13,249.09c27.64,10.27,86,12,117.75-6.8,17.18-10.19,19.83-39.91,18.18-52S149,170.14,126,197.9C99.16,230.4,116.12,244.63,128.13,249.09Z"/><ellipse class="cls-4" cx="166.4" cy="187.38" rx="13.91" ry="19.19" transform="translate(-1.57 1.41) rotate(-0.48)"/><ellipse class="cls-4" cx="253.32" cy="184.97" rx="13.91" ry="19.19" transform="translate(-1.55 2.14) rotate(-0.48)"/><rect class="cls-10" x="147.25" y="196.44" width="32.85" height="1.99" transform="translate(-85.54 136.9) rotate(-36.69)"/><rect class="cls-10" x="142.04" y="181.44" width="32.85" height="1.99" transform="translate(-8.05 7.32) rotate(-2.58)"/><rect class="cls-10" x="210.15" y="196.44" width="32.85" height="1.99" transform="translate(290.3 491.14) rotate(-143.31)"/><rect class="cls-10" x="215.35" y="181.44" width="32.85" height="1.99" transform="translate(455.12 375.11) rotate(-177.42)"/><circle class="cls-10" cx="144.85" cy="191.4" r="1.79"/><circle class="cls-10" cx="153.44" cy="196.42" r="1.01"/><circle class="cls-10" cx="238.9" cy="188.17" r="1.7"/><circle class="cls-10" cx="228.51" cy="191.49" r="1.11"/><polygon class="cls-10" points="118.77 122.54 134.85 138.68 142.84 136.56 115.88 110.8 106.45 146.2 114.59 144.05 118.77 122.54"/><ellipse class="cls-3" cx="134.03" cy="194.06" rx="7.28" ry="2.9" transform="translate(-1.63 1.14) rotate(-0.48)"/><circle class="cls-3" cx="116.6" cy="189.31" r="4.19"/><circle class="cls-3" cx="113.39" cy="205.7" r="4.19"/><ellipse class="cls-3" cx="246.43" cy="192.05" rx="5.45" ry="2.9" transform="matrix(1, -0.01, 0.01, 1, -1.61, 2.09)"/><ellipse class="cls-3" cx="259.41" cy="187.05" rx="3.14" ry="4.19" transform="matrix(1, -0.01, 0.01, 1, -1.57, 2.2)"/><ellipse class="cls-3" cx="262.05" cy="203.38" rx="3.14" ry="4.19" transform="matrix(1, -0.01, 0.01, 1, -1.71, 2.22)"/><ellipse class="cls-3" cx="176.73" cy="167.97" rx="4.06" ry="6.05" transform="translate(-64.64 133.53) rotate(-35.42)"/><ellipse class="cls-3" cx="188.84" cy="167.87" rx="6.05" ry="4.06" transform="translate(-56.42 228.6) rotate(-55.54)"/><circle class="cls-3" cx="182.61" cy="155.3" r="5.28"/><ellipse class="cls-11" cx="117.11" cy="204.77" rx="12.09" ry="21.11"/><ellipse class="cls-11" cx="255.97" cy="204.91" rx="21.11" ry="8.36" transform="translate(32.19 444.56) rotate(-85.64)"/><polygon class="cls-6" points="119.95 201.81 147.73 218.97 201.19 203.7 241.07 220.88 263.54 205.24 241.36 232.86 201.59 213.1 144.35 230.39 119.95 201.81"/><path class="cls-6" d="M95.82,112.75c26.25-36.21,49-33.39,69.17-.78C143,92.23,120,92,95.82,112.75Z"/><path class="cls-6" d="M233,111.59c-18.85-35.83-34.71-32.68-48.31.22C199.74,91.75,215.81,91.22,233,111.59Z"/><polygon class="cls-6" points="104.13 169.14 159.74 163.28 156.26 142.33 154.1 158.27 106.38 162.8 104.13 169.14"/><polygon class="cls-6" points="190.24 143.72 196.49 160.93 240.64 161.62 239.47 154.23 199.09 154.66 190.24 143.72"/><path class="cls-11" d="M213.11,172.85c0,6.86-7.47,16.34-16.68,16.34s-16.68-9.48-16.68-16.34S213.11,166,213.11,172.85Z"/><circle class="cls-11" cx="108.3" cy="113.66" r="1.32"/><circle class="cls-10" cx="107.83" cy="122.13" r="1.36"/><polygon class="cls-10" points="216.6 119.15 201.44 136.15 193.34 134.48 218.84 107.27 230.21 142.09 221.97 140.39 216.6 119.15"/><circle class="cls-11" cx="226.57" cy="109.7" r="1.32"/><circle class="cls-10" cx="227.5" cy="118.13" r="1.36"/><circle class="cls-11" cx="86.47" cy="138.89" r="2.98"/><circle class="cls-11" cx="91.41" cy="148.26" r="3.32"/><circle class="cls-11" cx="100.17" cy="156.43" r="3.32"/></g></svg>