<svg xmlns="http://www.w3.org/2000/svg" xmlns:xlink="http://www.w3.org/1999/xlink" viewBox="0 0 451.91 506.99"><defs><style>.cls-1{fill:#e5d9f9;}.cls-2,.cls-7{fill:none;}.cls-2{stroke:#6f12dc;}.cls-2,.cls-3,.cls-7{stroke-miterlimit:10;}.cls-3,.cls-5{fill:#6f12dc;}.cls-3{stroke:#e5d9f9;stroke-width:3px;}.cls-4{clip-path:url(#clip-path);}.cls-6{clip-path:url(#clip-path-2);}.cls-7{stroke:#000;}</style><clipPath id="clip-path"><path class="cls-1" d="M215.51,100.64c1.9,12.92-24.41,2-37.32,4-24.49,3.61-20.91-27.07-8.85-32.08C192.47,62.91,211.23,71.64,215.51,100.64Z"/></clipPath><clipPath id="clip-path-2"><path class="cls-1" d="M238.89,97.2c1.91,12.91,23.78-3.36,35-4.75,17.38-2.16,6.78-33.13-4.5-34.69C247.72,54.76,234.61,68.19,238.89,97.2Z"/></clipPath></defs><g id="Camada_2" data-name="Camada 2"><rect class="cls-2" x="-93.26" y="-82.27" width="1298.55" height="661.79"/><path class="cls-3" d="M435.93,364.73,403,353l-19.64,23.42L304,317.89a43.61,43.61,0,0,0-11.4-12.19c-19.06-13.86-45.38-10.14-58.79,8.3S225,358.63,244,372.49a43,43,0,0,0,39,6.17l41.49,23.21L368.88,433l27.94-37.9Z"/><polygon class="cls-3" points="405.31 356.52 420.59 343.82 448.81 354.73 431.3 367.5 405.31 356.52"/><polygon class="cls-3" points="403.41 364.23 414.95 347.79 444.26 357.43 436.74 363.27 424.58 364.2 413.81 369.86 403.41 364.23"/><path class="cls-1" d="M123.4,326.67l11.45,26.13L159,319.06l-28.42-2.44A6.79,6.79,0,0,0,123.4,326.67Z"/><path class="cls-1" d="M103.33,368.72l14.43,24.61L137.82,357l-28.51.9A6.79,6.79,0,0,0,103.33,368.72Z"/><path class="cls-1" d="M82.45,414.84l16.77,23.07,16.41-38.12-28.29,3.69A6.79,6.79,0,0,0,82.45,414.84Z"/><path class="cls-1" d="M60.59,424.89,52.05,452.1l40.4-9.55L72.62,422A6.78,6.78,0,0,0,60.59,424.89Z"/><path class="cls-3" d="M196.88,354c-25.28,4-32.13,118.23-105.56,129.85C19.56,495.24,2.14,443.17,2.14,443.17s45.94,3.7,76.09-1.07c38.42-6.08,42.43-106,79.1-130.14C190.29,290.29,234.51,348.09,196.88,354Z"/><path class="cls-3" d="M196.88,354c-25.28,4-32.13,118.23-105.56,129.85-64.63,10.22-85.18-31-88.63-39.29a.24.24,0,0,1,.4-.24c5.07,6.1,30.67,33.18,79.53,25.45,59.81-9.46,60.6-95.81,80.25-122.84C186.05,315.06,234.51,348.09,196.88,354Z"/><path class="cls-3" d="M63,262.2s11.37,39.86,3.26,49.12-39.86,11.37-49.12,3.26-11.37-39.86-3.26-49.12S63,262.2,63,262.2Z"/><path class="cls-3" d="M70.92,254.44s-9.85,40.27-21.47,44.3S9.18,288.9,5.14,277.27,15,237,26.62,233,70.92,254.44,70.92,254.44Z"/><path class="cls-3" d="M172.67,219.11S113.08,297,75.71,293C61,291.42,42.23,268.3,44.14,253.66c3.66-28,63.39-61.78,91.2-66.71C151.45,184.1,172.67,219.11,172.67,219.11Z"/><ellipse class="cls-1" cx="67.06" cy="271.07" rx="10.42" ry="20.26" transform="translate(-111.36 56.26) rotate(-25.82)"/><path class="cls-3" d="M76.81,256.21s-35.35,27.28-47,23.28S4.2,246.9,8.2,235.26s32.59-25.61,44.23-21.62S76.81,256.21,76.81,256.21Z"/><path class="cls-3" d="M188.26,195.53s-33.68-12.92-49.09-13.19c-7.91-.14-26.08,9.13-26.08,9.13L93,196.36,91.94,195l-6.08.33,51.64,65.07,2.39-4.06-.45-.57L174,228.86Z"/><path class="cls-3" d="M77.69,257.62s-3.24,44.54,6.51,52S125.52,313,133,303.29s3.38-41.31-6.37-48.82S77.69,257.62,77.69,257.62Z"/><path class="cls-3" d="M184,478.7l27-111a43.92,43.92,0,0,0,5.78-12.15c6.74-22.58-5.51-46.17-27.35-52.7s-45,6.49-51.77,29.07a42.87,42.87,0,0,0,10.17,42.34l-4.14,45.52-20,83.52,29.44.29v.06l64.1.64-17.16-28.14Z"/><polygon class="cls-3" points="187.19 484.79 207.57 479.09 219.66 504.81 210.14 504.71 201.32 497.9 189.77 495.65 187.19 484.79"/><polygon class="cls-3" points="178.64 475.19 202.3 474.65 213.19 505.41 187.78 504.38 165.84 488.9 178.64 475.19"/><polygon class="cls-3" points="157.67 485.8 177.86 478.74 191.76 504.54 182.24 504.44 172.14 497.61 160.18 495.36 157.67 485.8"/><path class="cls-3" d="M350.3,215.12s22.24,41.19,35.22,43.37,37.68-17.89,38.21-31-22.23-41.19-35.21-43.37S350.3,215.12,350.3,215.12Z"/><path class="cls-3" d="M348.32,214.07s41.1,21.32,52.94,15.77,20.93-36.06,14.05-47.18-41.09-21.33-52.93-15.77S348.32,214.07,348.32,214.07Z"/><path class="cls-3" d="M240.68,224.65s87,45.14,119.16,25.66c12.63-7.65,19.81-36.57,11.86-49-15.21-23.8-83.62-29-110.89-21.62C245,183.94,240.68,224.65,240.68,224.65Z"/><ellipse class="cls-1" cx="358.63" cy="224.79" rx="20.26" ry="11.28" transform="translate(129.66 580.77) rotate(-89.33)"/><path class="cls-3" d="M347.82,220.08s46.79-11.13,51.81-22.92-8-40.83-20.14-44.92S336,162.21,331,174,347.82,220.08,347.82,220.08Z"/><path class="cls-3" d="M302.67,168.38l-.46,2-19.34,3.92s-20.39-.67-27.49,2.82c-13.84,6.79-38.83,32.8-38.83,32.8L243.62,234l37.95,9.46,3.52,1.16,4.64,1.79,17.88-79.77Z"/><path class="cls-3" d="M333.89,221.24s37.06,29.87,36.43,42.59-24.92,33.29-37.57,31.81-34.63-27.42-34-40.14S333.89,221.24,333.89,221.24Z"/><path class="cls-3" d="M229.54,373.85c-139.6,15.71-74.8-186.44-21.66-192.42S375.43,357.43,229.54,373.85Z"/><path class="cls-3" d="M279.54,310a54.31,54.31,0,0,0,.81-14.21c-35.49-5.46-71.85-1.44-108.14,12a57.07,57.07,0,0,0,3.94,13.75C210.82,309.24,245.55,305.38,279.54,310Z"/><path class="cls-3" d="M280,291.85a84.48,84.48,0,0,0-3.05-14c-34.64-5.08-70.11-1.14-105.52,11.74a88,88,0,0,0,.28,14.29C208,290.58,244.4,286.55,280,291.85Z"/><path class="cls-3" d="M177.86,325c8.14,15,24.45,24.32,52.44,21.17,29.19-3.29,43.56-16,48.32-32.4C245.51,309.33,211.67,313.1,177.86,325Z"/><path class="cls-3" d="M275.59,273.75c-11.69-33.34-41.62-65-60.52-62.91s-39.88,39.5-43.34,74.52C206.56,273,241.44,269.06,275.59,273.75Z"/><rect class="cls-3" x="190.19" y="158.15" width="33.26" height="51.42" transform="translate(-19.27 24.29) rotate(-6.42)"/><path class="cls-3" d="M294.82,261.31l-.47-.17-45.47-80L225,183.79l-1.27-.29c-3,6.7-8.38,9.11-12.79,10.13-5.38,1.25-12.4.29-20.67-6.59l-1.72.86-17.59,2L143.84,281l-.24.15h0a1.48,1.48,0,0,0,2.19,1.66c47.63-28.45,98.17-34.25,146.5-18.5a2.1,2.1,0,0,0,2.53-2.95Z"/><path class="cls-1" d="M203.42,211.55a.54.54,0,0,1-.09.37,1.07,1.07,0,0,1-.28.28l-.3.24a1.92,1.92,0,0,0-.28.29,1.12,1.12,0,0,0-.2.33.84.84,0,0,0,0,.39.6.6,0,0,0,.12.32,2.18,2.18,0,0,0,.25.28l.32.27a2.24,2.24,0,0,1,.59.71,2.1,2.1,0,0,1,.15.55,1.54,1.54,0,0,1,0,.51,2.7,2.7,0,0,1-.19.59,3.83,3.83,0,0,1-.72,1.12,2.12,2.12,0,0,1-.47.39,1.15,1.15,0,0,1-.5.19.78.78,0,0,1-.5-.1.51.51,0,0,1-.27-.42.84.84,0,0,1,.06-.39,2.16,2.16,0,0,1,.2-.36,4.29,4.29,0,0,1,.28-.35,4.09,4.09,0,0,0,.28-.33,2,2,0,0,0,.2-.34.58.58,0,0,0,.06-.36,1,1,0,0,0-.24-.51c-.14-.17-.3-.34-.46-.51a6,6,0,0,1-.47-.55,1.07,1.07,0,0,1-.25-.59,1.88,1.88,0,0,1,.11-.82,3,3,0,0,1,.44-.83,2.72,2.72,0,0,1,.65-.66,1.62,1.62,0,0,1,.76-.32.8.8,0,0,1,.55.13A.63.63,0,0,1,203.42,211.55Z"/><path class="cls-1" d="M206.49,217.79a1.66,1.66,0,0,1-1-.16,2.18,2.18,0,0,1-.74-.65,3.75,3.75,0,0,1-.51-1,6.16,6.16,0,0,1-.27-1.25,5.39,5.39,0,0,1,0-1.27,4.06,4.06,0,0,1,.29-1.2,2.58,2.58,0,0,1,.62-.92,1.71,1.71,0,0,1,1-.45,1.55,1.55,0,0,1,1,.21,2.22,2.22,0,0,1,.72.74,4,4,0,0,1,.46,1.08,7.67,7.67,0,0,1,.25,1.23,5.82,5.82,0,0,1,0,1.32,3.54,3.54,0,0,1-.29,1.13,2.36,2.36,0,0,1-.61.83A1.79,1.79,0,0,1,206.49,217.79Zm-.45-4.95a.38.38,0,0,0-.27.16,1,1,0,0,0-.16.38,1.9,1.9,0,0,0-.06.5,3.41,3.41,0,0,0,0,.55c0,.2.06.41.11.61a3.1,3.1,0,0,0,.18.54,1.47,1.47,0,0,0,.25.38.37.37,0,0,0,.3.12.36.36,0,0,0,.29-.23,1.67,1.67,0,0,0,.13-.49,3.71,3.71,0,0,0,0-.58,3.38,3.38,0,0,0,0-.49c0-.16,0-.32-.09-.5a3.37,3.37,0,0,0-.15-.48,1.33,1.33,0,0,0-.23-.35A.37.37,0,0,0,206,212.84Z"/><path class="cls-1" d="M213,212.05a2.24,2.24,0,0,1-.16,1.13,3,3,0,0,1-.66.94c.11.13.23.29.35.46s.23.37.34.57a4.66,4.66,0,0,1,.26.61,2.15,2.15,0,0,1,.14.57.91.91,0,0,1-.08.52.49.49,0,0,1-.44.28.58.58,0,0,1-.5-.21,3.08,3.08,0,0,1-.42-.59c-.14-.24-.26-.48-.37-.72s-.22-.44-.31-.58a2.1,2.1,0,0,0-.3.15l-.3.16c0,.14,0,.31,0,.54a4,4,0,0,1,0,.69,1.82,1.82,0,0,1-.16.61.46.46,0,0,1-.39.3.5.5,0,0,1-.47-.19,1.41,1.41,0,0,1-.29-.54,3.92,3.92,0,0,1-.15-.66c0-.23-.06-.41-.07-.54s-.06-.55-.08-.82,0-.54-.07-.82-.06-.51-.1-.76-.07-.51-.1-.77l0-.22c0-.1,0-.19,0-.29v-.28a1.09,1.09,0,0,1,0-.22,1,1,0,0,1,.36-.4,4.18,4.18,0,0,1,.66-.37,5.9,5.9,0,0,1,.71-.29,3.55,3.55,0,0,1,.53-.14,2,2,0,0,1,.82.08,1.72,1.72,0,0,1,.62.39,1.93,1.93,0,0,1,.42.63A2.5,2.5,0,0,1,213,212.05Zm-1.63.31a.47.47,0,0,0-.14-.34.45.45,0,0,0-.36-.08,1.08,1.08,0,0,0-.35.1l-.32.18c.08.46.14.93.18,1.39a3.47,3.47,0,0,0,.37-.21,1.75,1.75,0,0,0,.33-.28,1.08,1.08,0,0,0,.23-.34A.75.75,0,0,0,211.36,212.36Z"/><path class="cls-1" d="M217.62,211.53a2.26,2.26,0,0,1-.16,1.13,3,3,0,0,1-.66.94c.11.13.23.29.35.46s.23.37.34.57a4.66,4.66,0,0,1,.26.61,2.15,2.15,0,0,1,.14.57.91.91,0,0,1-.08.52.49.49,0,0,1-.44.28.58.58,0,0,1-.5-.21,3.08,3.08,0,0,1-.42-.59c-.14-.24-.26-.48-.37-.72s-.22-.44-.31-.58a1.4,1.4,0,0,0-.3.15l-.3.16q0,.19,0,.54a4,4,0,0,1,0,.69,1.88,1.88,0,0,1-.16.61.46.46,0,0,1-.39.3.52.52,0,0,1-.47-.19,1.41,1.41,0,0,1-.29-.54,3.92,3.92,0,0,1-.15-.66c0-.23-.06-.41-.07-.54,0-.28-.06-.55-.08-.82s0-.54-.07-.82-.06-.51-.1-.76-.07-.51-.1-.77l0-.22c0-.1,0-.19,0-.29v-.28a1.09,1.09,0,0,1,0-.22,1,1,0,0,1,.36-.4,5.19,5.19,0,0,1,.66-.38c.24-.11.48-.2.71-.28a3.55,3.55,0,0,1,.53-.14,2,2,0,0,1,.82.08,1.72,1.72,0,0,1,.62.39,1.93,1.93,0,0,1,.42.63A2.5,2.5,0,0,1,217.62,211.53Zm-1.63.31a.47.47,0,0,0-.14-.34.45.45,0,0,0-.36-.08.88.88,0,0,0-.35.1,1.65,1.65,0,0,0-.32.18c.08.46.14.92.18,1.39a3.47,3.47,0,0,0,.37-.21,1.75,1.75,0,0,0,.33-.28,1,1,0,0,0,.23-.35A.7.7,0,0,0,216,211.84Z"/><path class="cls-1" d="M220.84,209.79a.62.62,0,0,1,0,.31.64.64,0,0,1-.18.25,1.64,1.64,0,0,1-.25.19,1.78,1.78,0,0,1-.29.12c.07.67.11,1.31.15,1.94s0,1.27,0,1.94h.34a.79.79,0,0,1,.26.08.52.52,0,0,1,.19.17.41.41,0,0,1,.1.26.49.49,0,0,1-.09.37.87.87,0,0,1-.31.29,2.27,2.27,0,0,1-.44.23,4.91,4.91,0,0,1-.5.17c-.17.05-.33.08-.48.11l-.37.06-.26,0a1,1,0,0,1-.3,0,.63.63,0,0,1-.25-.1.38.38,0,0,1-.13-.23.74.74,0,0,1,0-.34.93.93,0,0,1,.43-.5l.3-.15c0-.32,0-.65,0-1s0-.65,0-1,0-.68-.08-1-.05-.66-.07-1l-.12,0-.09,0a1.22,1.22,0,0,1-.27,0,.83.83,0,0,1-.51-.2.38.38,0,0,1-.11-.24.64.64,0,0,1,.2-.53,1.81,1.81,0,0,1,.57-.37,4,4,0,0,1,.69-.22,5.52,5.52,0,0,1,.58-.11l.33,0a1.84,1.84,0,0,1,.41,0,1.08,1.08,0,0,1,.37.13A.37.37,0,0,1,220.84,209.79Z"/><path class="cls-1" d="M223.83,209.25a.52.52,0,0,1-.08.37,1.24,1.24,0,0,1-.28.28l-.31.25a2.47,2.47,0,0,0-.28.28,1.09,1.09,0,0,0-.19.33.73.73,0,0,0-.05.39.68.68,0,0,0,.13.33,2.05,2.05,0,0,0,.25.27c.09.09.2.18.31.27a1.93,1.93,0,0,1,.33.31,2.06,2.06,0,0,1,.26.41,1.43,1.43,0,0,1,.15.54,1.52,1.52,0,0,1,0,.51,3.76,3.76,0,0,1-.19.6,4.28,4.28,0,0,1-.32.59,4.21,4.21,0,0,1-.4.52,2.55,2.55,0,0,1-.48.4,1.22,1.22,0,0,1-.49.18.87.87,0,0,1-.51-.09.53.53,0,0,1-.26-.43.73.73,0,0,1,.05-.39,3.24,3.24,0,0,1,.2-.36c.09-.11.18-.23.28-.34a3.84,3.84,0,0,0,.28-.34,1.36,1.36,0,0,0,.21-.34.76.76,0,0,0,.06-.36,1,1,0,0,0-.24-.51l-.47-.51a5.86,5.86,0,0,1-.47-.54,1.22,1.22,0,0,1-.25-.59,1.91,1.91,0,0,1,.11-.83,3.49,3.49,0,0,1,.44-.83,3.39,3.39,0,0,1,.65-.66,1.62,1.62,0,0,1,.76-.32.84.84,0,0,1,.56.13A.62.62,0,0,1,223.83,209.25Z"/><path class="cls-1" d="M226.9,215.49a1.66,1.66,0,0,1-1-.16,2.27,2.27,0,0,1-.74-.65,4.22,4.22,0,0,1-.51-1,6.16,6.16,0,0,1-.27-1.25,6.73,6.73,0,0,1,0-1.27,4.06,4.06,0,0,1,.29-1.2,2.71,2.71,0,0,1,.62-.92,1.67,1.67,0,0,1,1-.44,1.51,1.51,0,0,1,1,.2,2.43,2.43,0,0,1,.72.74,4.7,4.7,0,0,1,.46,1.09,8.49,8.49,0,0,1,.24,1.22,6.49,6.49,0,0,1,0,1.32,4,4,0,0,1-.29,1.14,2.44,2.44,0,0,1-.62.82A1.79,1.79,0,0,1,226.9,215.49Zm-.45-5a.37.37,0,0,0-.27.17,1.06,1.06,0,0,0-.16.37,2,2,0,0,0-.06.5,5.21,5.21,0,0,0,0,.55,4.34,4.34,0,0,0,.11.61,3.23,3.23,0,0,0,.18.55,1.18,1.18,0,0,0,.24.37.37.37,0,0,0,.31.12.35.35,0,0,0,.29-.23,1.68,1.68,0,0,0,.12-.49,2.79,2.79,0,0,0,0-.58q0-.28,0-.48t-.09-.51A2.46,2.46,0,0,0,227,211a1.12,1.12,0,0,0-.23-.35A.37.37,0,0,0,226.45,210.54Z"/><path class="cls-1" d="M193.71,225.49a5.73,5.73,0,0,1-.23,2.43,7.18,7.18,0,0,1-1.13,2.18,6.64,6.64,0,0,1-1.82,1.64,5.62,5.62,0,0,1-2.32.79h0a.5.5,0,0,1-.44-.18,2.35,2.35,0,0,1-.33-.55,3.86,3.86,0,0,1-.26-.77q-.1-.43-.18-.84c-.05-.27-.09-.52-.11-.74l-.06-.5c0-.32-.07-.63-.09-.95s-.05-.63-.07-.95c0-.1,0-.25,0-.46s0-.43,0-.68,0-.52,0-.8,0-.54,0-.78,0-.46,0-.65a.94.94,0,0,1,.08-.38,1.49,1.49,0,0,1,.5-.61,4,4,0,0,1,.77-.49,7.72,7.72,0,0,1,.87-.33,4.94,4.94,0,0,1,.79-.17,3.5,3.5,0,0,1,1.64.17,3.22,3.22,0,0,1,1.24.79,3.94,3.94,0,0,1,.83,1.27A5.76,5.76,0,0,1,193.71,225.49Zm-2.31.67a1.89,1.89,0,0,0-.18-.62,2.34,2.34,0,0,0-.38-.55,1.63,1.63,0,0,0-.54-.37,1.23,1.23,0,0,0-.66-.09,1.59,1.59,0,0,0-.59.2.52.52,0,0,0-.09.28c0,.15,0,.33,0,.53s0,.44,0,.69,0,.47,0,.69,0,.42.05.59,0,.28,0,.33l.05.42c0,.18,0,.36.08.54s.07.33.1.45.08.19.12.19a1.34,1.34,0,0,0,.8-.42,4.1,4.1,0,0,0,.66-.9,4.74,4.74,0,0,0,.43-1.05A2.62,2.62,0,0,0,191.4,226.16Z"/><path class="cls-1" d="M198.7,221.67a1,1,0,0,1-.07.5,1.14,1.14,0,0,1-.27.39,2,2,0,0,1-.41.29,2.22,2.22,0,0,1-.45.2c.1,1,.18,2.08.23,3.07s.06,2,.05,3.07h.09a3.23,3.23,0,0,1,.44,0,1.1,1.1,0,0,1,.41.13.9.9,0,0,1,.32.26.88.88,0,0,1,.15.42.79.79,0,0,1-.14.58,1.84,1.84,0,0,1-.49.47,3.82,3.82,0,0,1-.7.36,6.14,6.14,0,0,1-.79.27l-.77.18-.58.09-.42,0a1.83,1.83,0,0,1-.47,0,1.1,1.1,0,0,1-.4-.17.49.49,0,0,1-.19-.36,1.19,1.19,0,0,1,.06-.54,1.5,1.5,0,0,1,.27-.45,1.52,1.52,0,0,1,.41-.34,2.27,2.27,0,0,1,.47-.23c0-.52,0-1,0-1.55s0-1-.06-1.57l-.12-1.58-.12-1.57-.18,0-.15,0a2,2,0,0,1-.43,0,1.34,1.34,0,0,1-.44-.1,1.45,1.45,0,0,1-.36-.22.61.61,0,0,1-.17-.38,1,1,0,0,1,.31-.83,2.93,2.93,0,0,1,.9-.59,6.12,6.12,0,0,1,1.1-.35,9,9,0,0,1,.92-.17,3.64,3.64,0,0,1,.52,0,2.94,2.94,0,0,1,.66.05,1.68,1.68,0,0,1,.57.21A.55.55,0,0,1,198.7,221.67Z"/><path class="cls-1" d="M205.68,221.13a5.42,5.42,0,0,1,0,1.14c0,.43-.09.86-.17,1.31s-.17.88-.27,1.3-.18.8-.26,1.14-.1.48-.16.8-.12.64-.2,1-.17.7-.27,1.06a5.53,5.53,0,0,1-.36.95,2.82,2.82,0,0,1-.48.72,1,1,0,0,1-.63.32.76.76,0,0,1-.59-.2,3.24,3.24,0,0,1-.6-.62q-.28-.39-.57-.87c-.18-.33-.35-.65-.5-1s-.29-.61-.4-.88l-.25-.63c-.27-.71-.53-1.42-.78-2.15a10,10,0,0,1-.5-2.21,5.28,5.28,0,0,1,0-.58,1.79,1.79,0,0,1,.08-.57.94.94,0,0,1,.27-.45.9.9,0,0,1,.55-.23.73.73,0,0,1,.6.28,3.61,3.61,0,0,1,.57.84,12.11,12.11,0,0,1,.53,1.18l.48,1.29c.15.42.29.82.43,1.18a6,6,0,0,0,.38.88c0-.2.09-.48.15-.85s.15-.78.25-1.23.2-.9.33-1.38a11.61,11.61,0,0,1,.4-1.29,4.46,4.46,0,0,1,.5-1,.89.89,0,0,1,.59-.42.69.69,0,0,1,.41.07.7.7,0,0,1,.27.27,1.45,1.45,0,0,1,.16.38A1.89,1.89,0,0,1,205.68,221.13Z"/><path class="cls-1" d="M212.81,227.5a1,1,0,0,1-.09.54,1.89,1.89,0,0,1-.59.63,9.26,9.26,0,0,1-1.08.74q-.6.36-1.17.63a3,3,0,0,1-.85.3,1.35,1.35,0,0,1-.47,0,4.43,4.43,0,0,1-.56-.17,2.33,2.33,0,0,1-.52-.27,1.22,1.22,0,0,1-.35-.31,1.12,1.12,0,0,1-.15-.38,6.91,6.91,0,0,1-.16-.68c-.06-.26-.11-.54-.16-.83s-.1-.57-.15-.83-.08-.5-.1-.71,0-.35-.06-.45c0-.34-.07-.74-.1-1.19s0-.91,0-1.37a8.33,8.33,0,0,1,.14-1.34,3.61,3.61,0,0,1,.39-1.12,1.25,1.25,0,0,1,.37-.31,5,5,0,0,1,.66-.34c.26-.12.54-.23.84-.34l.87-.29.76-.21a3.58,3.58,0,0,1,.53-.11.82.82,0,0,1,.41,0,.94.94,0,0,1,.35.2,1.54,1.54,0,0,1,.25.32,1.42,1.42,0,0,1,.12.4,1,1,0,0,1,0,.31,3.11,3.11,0,0,1-.12.3,2.07,2.07,0,0,1-.54.5c-.28.2-.59.4-.92.61s-.65.38-1,.55l-.65.36c0,.22,0,.44,0,.66a5.15,5.15,0,0,0,0,.68,7.9,7.9,0,0,1,.93-.53,3,3,0,0,1,1-.31.88.88,0,0,1,1.11.87.87.87,0,0,1-.05.43,1,1,0,0,1-.2.35,1.67,1.67,0,0,1-.31.28l-.35.25a8.64,8.64,0,0,1-.89.52l-.94.45,0,.25a1.13,1.13,0,0,0,0,.26,2.44,2.44,0,0,0,.07.39c0,.13.07.26.1.39l.52-.24c.24-.12.49-.23.75-.34s.52-.22.76-.31a2.44,2.44,0,0,1,.55-.15.94.94,0,0,1,.41,0,1,1,0,0,1,.33.21,1,1,0,0,1,.24.32A1.07,1.07,0,0,1,212.81,227.5Z"/><path class="cls-1" d="M219.7,221.48a3.44,3.44,0,0,1-.25,1.79,4.88,4.88,0,0,1-1,1.5c.17.21.36.45.55.73a7.89,7.89,0,0,1,.53.9,6.67,6.67,0,0,1,.42,1,3.92,3.92,0,0,1,.23.91,1.55,1.55,0,0,1-.13.83.81.81,0,0,1-.7.44.91.91,0,0,1-.79-.34,4.38,4.38,0,0,1-.68-.94c-.21-.37-.4-.74-.58-1.13a9.28,9.28,0,0,0-.49-.93,5.19,5.19,0,0,0-.47.25l-.47.26c0,.2,0,.49,0,.85a6.62,6.62,0,0,1,0,1.09,3.06,3.06,0,0,1-.25,1,.77.77,0,0,1-.62.47.84.84,0,0,1-.76-.3,2.71,2.71,0,0,1-.46-.86,7.26,7.26,0,0,1-.23-1.05c-.05-.35-.09-.64-.11-.84,0-.44-.09-.88-.12-1.3s-.07-.87-.12-1.3-.1-.81-.16-1.21-.11-.81-.15-1.22l0-.35a3.44,3.44,0,0,1,0-.46,3.23,3.23,0,0,1,0-.44.85.85,0,0,1,.06-.35,1.36,1.36,0,0,1,.57-.63,6.91,6.91,0,0,1,1-.6,9.48,9.48,0,0,1,1.13-.45,5.9,5.9,0,0,1,.84-.22,2.88,2.88,0,0,1,1.29.13,2.68,2.68,0,0,1,1,.62,3.26,3.26,0,0,1,.67,1A4.45,4.45,0,0,1,219.7,221.48Zm-2.57.49a.84.84,0,0,0-.23-.53.68.68,0,0,0-.57-.13,1.88,1.88,0,0,0-.56.16,3.45,3.45,0,0,0-.5.29c.12.73.22,1.46.29,2.19a3.27,3.27,0,0,0,.57-.32,2.48,2.48,0,0,0,.53-.44,2,2,0,0,0,.37-.55A1.34,1.34,0,0,0,217.13,222Z"/><path class="cls-1" d="M226,218.54a.93.93,0,0,1-.2.67,2.82,2.82,0,0,1-.61.58,4.81,4.81,0,0,1-.75.45c-.26.12-.48.21-.65.27,0,.73,0,1.45.07,2.17s.1,1.44.18,2.16q.06.58.15,1.14c.06.37.11.74.16,1.12a3.38,3.38,0,0,1,0,.56,2.7,2.7,0,0,1-.1.58,1.39,1.39,0,0,1-.28.49.77.77,0,0,1-.5.24.81.81,0,0,1-.61-.14,1.35,1.35,0,0,1-.39-.46,2.57,2.57,0,0,1-.23-.6,5.55,5.55,0,0,1-.11-.6c-.08-.55-.16-1.12-.23-1.68s-.15-1.13-.21-1.7-.1-.95-.15-1.41-.1-.92-.15-1.4l-.4.09-.41.06h-.44a1.9,1.9,0,0,1-.54-.07,1.42,1.42,0,0,1-.47-.2.55.55,0,0,1-.23-.39,1,1,0,0,1,.25-.78,3.18,3.18,0,0,1,.78-.64,7.9,7.9,0,0,1,1.09-.52c.41-.15.81-.28,1.21-.39s.77-.19,1.11-.26.6-.11.78-.13a5.1,5.1,0,0,1,.57,0,2.28,2.28,0,0,1,.59.05,1.12,1.12,0,0,1,.47.25A.8.8,0,0,1,226,218.54Z"/><path class="cls-1" d="M230.15,218.13a.93.93,0,0,1-.07.5,1.14,1.14,0,0,1-.27.39,2,2,0,0,1-.41.29,2.22,2.22,0,0,1-.45.2c.1,1.05.18,2.08.23,3.07s.07,2,0,3.07h.53a1.21,1.21,0,0,1,.42.13.86.86,0,0,1,.31.26.88.88,0,0,1,.15.42.79.79,0,0,1-.14.58,1.79,1.79,0,0,1-.48.47,4.28,4.28,0,0,1-.71.36,6.14,6.14,0,0,1-.79.27l-.76.18-.59.09-.42,0a1.83,1.83,0,0,1-.47,0,1,1,0,0,1-.39-.17.47.47,0,0,1-.2-.36,1.19,1.19,0,0,1,.06-.54,1.5,1.5,0,0,1,.27-.45,1.69,1.69,0,0,1,.41-.34,2.12,2.12,0,0,1,.48-.23c0-.52,0-1,0-1.55s0-1-.07-1.57l-.12-1.58-.12-1.57-.18,0-.15,0a2,2,0,0,1-.43,0,1.23,1.23,0,0,1-.43-.1,1.28,1.28,0,0,1-.36-.22.62.62,0,0,1-.18-.38,1,1,0,0,1,.31-.83,2.93,2.93,0,0,1,.9-.59,6.38,6.38,0,0,1,1.1-.35,9,9,0,0,1,.92-.17,3.7,3.7,0,0,1,.53,0,2.89,2.89,0,0,1,.65.05,1.61,1.61,0,0,1,.57.21A.53.53,0,0,1,230.15,218.13Z"/><path class="cls-1" d="M237.93,220.51a6,6,0,0,1-.24,2.44,7,7,0,0,1-1.12,2.18,6.77,6.77,0,0,1-1.82,1.63,5.62,5.62,0,0,1-2.32.79h0a.53.53,0,0,1-.44-.19,2.36,2.36,0,0,1-.34-.55,4.64,4.64,0,0,1-.25-.77q-.1-.42-.18-.84c-.05-.27-.09-.52-.12-.74l0-.5c0-.31-.07-.63-.09-.94s-.05-.64-.07-1q0-.15,0-.45c0-.21,0-.43,0-.69s0-.52,0-.8,0-.54,0-.78,0-.46,0-.64a1,1,0,0,1,.07-.39,1.75,1.75,0,0,1,.5-.61,3.89,3.89,0,0,1,.78-.48,5.41,5.41,0,0,1,.87-.34,4.8,4.8,0,0,1,.79-.16,3.5,3.5,0,0,1,1.64.16,3.32,3.32,0,0,1,1.24.8,4,4,0,0,1,.83,1.26A5.76,5.76,0,0,1,237.93,220.51Zm-2.31.67a1.77,1.77,0,0,0-.18-.61,2,2,0,0,0-.39-.56,1.64,1.64,0,0,0-.53-.37,1.24,1.24,0,0,0-.66-.09,1.4,1.4,0,0,0-.59.21.51.51,0,0,0-.1.27,4.16,4.16,0,0,0,0,.54c0,.21,0,.43,0,.68s0,.48,0,.7,0,.41.05.58,0,.28,0,.34l.05.41c0,.18,0,.36.08.54s.07.33.1.46.07.19.12.18a1.34,1.34,0,0,0,.8-.42,4,4,0,0,0,.66-.89,5,5,0,0,0,.43-1.06A2.6,2.6,0,0,0,235.62,221.18Z"/><path class="cls-1" d="M242.54,226.86a2.65,2.65,0,0,1-1.54-.27,3.36,3.36,0,0,1-1.17-1A5.78,5.78,0,0,1,239,224a9.53,9.53,0,0,1-.43-2,9.64,9.64,0,0,1,0-2,6.3,6.3,0,0,1,.46-1.9,4,4,0,0,1,1-1.46,2.66,2.66,0,0,1,1.59-.71,2.38,2.38,0,0,1,1.6.33,3.37,3.37,0,0,1,1.14,1.17,7.08,7.08,0,0,1,.74,1.72,13,13,0,0,1,.38,1.94,9.23,9.23,0,0,1,0,2.1,5.81,5.81,0,0,1-.46,1.79,3.58,3.58,0,0,1-1,1.3A2.82,2.82,0,0,1,242.54,226.86Zm-.72-7.85a.62.62,0,0,0-.43.26,1.69,1.69,0,0,0-.25.59,3.79,3.79,0,0,0-.1.79,6.89,6.89,0,0,0,.22,1.85,4.56,4.56,0,0,0,.29.86,1.94,1.94,0,0,0,.38.59.57.57,0,0,0,.49.19.55.55,0,0,0,.45-.36,2.77,2.77,0,0,0,.21-.78,6.85,6.85,0,0,0,0-.91c0-.31,0-.57-.06-.78a6.18,6.18,0,0,0-.13-.79,4.84,4.84,0,0,0-.25-.76,2.25,2.25,0,0,0-.37-.57A.57.57,0,0,0,241.82,219Z"/><path class="cls-1" d="M234.35,233c-10.06,13.11-21.49,14.31-34.26,3.85-.34-.28-.5-.71-.16-1h0a.57.57,0,0,1,.6-.11c11.53,4.26,22.57,3.07,33.11-3.73a.61.61,0,0,1,.61,0h0C234.66,232.19,234.61,232.64,234.35,233Z"/><path class="cls-1" d="M232.92,230.58c2.85-1.82,3.63-.4,3.28,2.78C235.87,231,234.78,230,232.92,230.58Z"/><path class="cls-1" d="M201,234.18c-3.18-1.14-3.63.42-2.58,3.44C198.16,235.22,199,234.07,201,234.18Z"/><path class="cls-1" d="M199.52,3.81,184.24,27.9l41.49,1.21L211.88,4.17A6.78,6.78,0,0,0,199.52,3.81Z"/><path class="cls-1" d="M151.63,177.05l26.32-11L144.63,141.3l-2.92,28.38A6.78,6.78,0,0,0,151.63,177.05Z"/><path class="cls-1" d="M119.34,141.21l28.31,3.47-16.7-38-16.59,23.21A6.79,6.79,0,0,0,119.34,141.21Z"/><path class="cls-1" d="M109.12,92l22.51,17.53,5.19-41.19L110.67,79.74A6.79,6.79,0,0,0,109.12,92Z"/><path class="cls-1" d="M125.24,45.14l10.5,26.52,25.37-32.85L132.8,35.35A6.79,6.79,0,0,0,125.24,45.14Z"/><path class="cls-1" d="M156.88,16l-2.36,28.43L191.84,26.3,168,10.63A6.79,6.79,0,0,0,156.88,16Z"/><path class="cls-3" d="M301.32,104.35C300,95.45,293.71,89,287.25,90a9,9,0,0,0-3.37,1.24c-.13-1.31-.29-2.62-.48-3.94a77.52,77.52,0,1,0-91.64,87.39h0c24.45,5.41,73.78.06,98.27-19.48,11.34-9.06,12.07-28.88,10.29-40.67A20.62,20.62,0,0,0,301.32,104.35Z"/><path class="cls-1" d="M215.51,100.64c1.9,12.92-24.41,2-37.32,4-24.49,3.61-20.91-27.07-8.85-32.08C192.47,62.91,211.23,71.64,215.51,100.64Z"/><g class="cls-4"><ellipse cx="195.5" cy="91.86" rx="12.61" ry="29.21" transform="translate(-11.31 29.51) rotate(-8.39)"/><ellipse class="cls-5" cx="195.92" cy="91.92" rx="6.07" ry="17.83" transform="translate(-11.32 29.58) rotate(-8.39)"/><ellipse class="cls-1" cx="198.9" cy="82.02" rx="5.2" ry="12.55" transform="translate(-14.87 57.73) rotate(-15.93)"/><circle class="cls-1" cx="203.73" cy="98.21" r="2.11"/></g><path class="cls-1" d="M238.89,97.2c1.91,12.91,23.78-3.36,35-4.75,17.38-2.16,6.78-33.13-4.5-34.69C247.72,54.76,234.61,68.19,238.89,97.2Z"/><g class="cls-6"><ellipse cx="255.81" cy="81.82" rx="12.61" ry="29.21" transform="matrix(0.99, -0.15, 0.15, 0.99, -9.2, 38.21)"/><ellipse class="cls-5" cx="256.23" cy="81.88" rx="6.07" ry="17.83" transform="translate(-9.21 38.27) rotate(-8.39)"/><ellipse class="cls-1" cx="259.21" cy="71.98" rx="5.2" ry="12.55" transform="translate(-9.8 73.89) rotate(-15.93)"/><circle class="cls-1" cx="264.04" cy="88.17" r="2.11"/></g><ellipse class="cls-1" cx="190.33" cy="127.66" rx="6.18" ry="2.46" transform="translate(-16.59 29.14) rotate(-8.39)"/><circle class="cls-1" cx="175.11" cy="125.71" r="3.56"/><circle class="cls-1" cx="174.33" cy="139.87" r="3.56"/><ellipse class="cls-1" cx="282.02" cy="112.84" rx="4.63" ry="2.46" transform="translate(-13.45 42.37) rotate(-8.39)"/><ellipse class="cls-1" cx="292.36" cy="107.11" rx="2.66" ry="3.56" transform="translate(-12.5 43.81) rotate(-8.39)"/><ellipse class="cls-1" cx="296.49" cy="120.55" rx="2.66" ry="3.56" transform="translate(-14.42 44.56) rotate(-8.39)"/><ellipse class="cls-1" cx="223.21" cy="100.73" rx="3.45" ry="5.14" transform="translate(-8.27 180.63) rotate(-43.33)"/><ellipse class="cls-1" cx="233.38" cy="99.22" rx="5.14" ry="3.45" transform="translate(40.31 263.65) rotate(-63.45)"/><circle class="cls-1" cx="226.68" cy="89.38" r="4.49"/><path class="cls-1" d="M148.69,63.72C166.53,30.19,186,29.9,206.78,55,186,40.94,166.61,43.47,148.69,63.72Z"/><path class="cls-1" d="M264,46.72c-20-27.94-33-23.44-40.61,5.83C233.65,33.91,247.12,31.59,264,46.72Z"/><path d="M190.49,137.14c18.7,6,79.53,9.54,98.68-3.94,16.52-11.63,7.44,55.36-73.29,46.6C164,174.18,178.12,133.15,190.49,137.14Z"/><path class="cls-1" d="M192.42,139.45c17.93,5.45,76.27,8.63,94.64-3.57,15.84-10.51,7.13,50.09-70.3,42.17C167,173,180.55,135.84,192.42,139.45Z"/><line class="cls-7" x1="191.4" y1="171.05" x2="201.33" y2="140.77"/><line class="cls-7" x1="222" y1="179.91" x2="231.68" y2="143.32"/><line class="cls-7" x1="262.97" y1="174.88" x2="268.08" y2="142.18"/><rect class="cls-5" x="148.75" y="189.46" width="28.66" height="50.6" transform="translate(42.96 -26.67) rotate(10.76)"/><rect class="cls-5" x="249.32" y="178.74" width="28.66" height="61.82" transform="translate(-55.04 100.56) rotate(-19.59)"/><polygon class="cls-5" points="145.09 318.85 149.31 313.49 209.04 370.11 207.23 378.97 181.14 378.64 148.16 355.5 145.09 318.85"/></g></svg>