<svg xmlns="http://www.w3.org/2000/svg" xmlns:xlink="http://www.w3.org/1999/xlink" viewBox="0 0 564.86 740.12"><defs><style>.cls-1{fill:url(#Gradiente_sem_nome_17);}.cls-2{fill:url(#Gradiente_sem_nome_17-2);}.cls-3{fill:#bc8440;}.cls-4{fill:url(#Gradiente_sem_nome_4);}.cls-5{fill:#6f12dc;}.cls-6{fill:#eaa94d;}.cls-7{fill:#5414af;}.cls-8{fill:url(#Gradiente_sem_nome_2);}.cls-9{fill:url(#Gradiente_sem_nome_29);}.cls-10{fill:url(#Gradiente_sem_nome_2-2);}.cls-11{fill:url(#Gradiente_sem_nome_8);}.cls-12{fill:#e5d9f9;}.cls-13{fill:#422a75;}.cls-14{clip-path:url(#clip-path);}.cls-15{clip-path:url(#clip-path-2);}.cls-16{fill:#efc99a;}.cls-17{fill:url(#Gradiente_sem_nome_33);}.cls-18{fill:#eab173;}.cls-19{fill:url(#Gradiente_sem_nome_11);}.cls-20{fill:#b8a6dd;}.cls-21{fill:url(#Gradiente_sem_nome_11-2);}</style><linearGradient id="Gradiente_sem_nome_17" x1="308.12" y1="177.02" x2="308.12" y2="126.06" gradientUnits="userSpaceOnUse"><stop offset="0" stop-color="#e5d9f9"/><stop offset="1" stop-color="#bbb4cc"/></linearGradient><linearGradient id="Gradiente_sem_nome_17-2" x1="417.14" y1="178.44" x2="417.14" y2="126.1" xlink:href="#Gradiente_sem_nome_17"/><linearGradient id="Gradiente_sem_nome_4" x1="333.15" y1="733.28" x2="333.15" y2="511.83" gradientUnits="userSpaceOnUse"><stop offset="0.3" stop-color="#6f12dc"/><stop offset="0.42" stop-color="#6d12d9"/><stop offset="0.51" stop-color="#6713cf"/><stop offset="0.58" stop-color="#5e13bf"/><stop offset="0.64" stop-color="#5414af"/></linearGradient><linearGradient id="Gradiente_sem_nome_2" x1="-51.26" y1="608.92" x2="295.48" y2="608.92" gradientTransform="matrix(0.95, -0.3, 0.3, 0.95, -149.25, 54.09)" gradientUnits="userSpaceOnUse"><stop offset="0.3" stop-color="#6f12dc"/><stop offset="0.43" stop-color="#6d12d9"/><stop offset="0.53" stop-color="#6713cf"/><stop offset="0.61" stop-color="#5e13bf"/><stop offset="0.67" stop-color="#5414af"/></linearGradient><linearGradient id="Gradiente_sem_nome_29" x1="5.29" y1="710.55" x2="286.14" y2="511.17" gradientTransform="matrix(0.95, -0.3, 0.3, 0.95, -149.25, 54.09)" gradientUnits="userSpaceOnUse"><stop offset="0" stop-color="#eaa94d"/><stop offset="1" stop-color="#b27e3f"/></linearGradient><linearGradient id="Gradiente_sem_nome_2-2" x1="251.45" y1="733.28" x2="251.45" y2="511.83" gradientTransform="matrix(1, 0, 0, 1, 0, 0)" xlink:href="#Gradiente_sem_nome_2"/><radialGradient id="Gradiente_sem_nome_8" cx="307.7" cy="435.57" fx="441.33446297483283" r="170.29" gradientTransform="translate(682.44 136.13) rotate(91.27) scale(1 0.84)" gradientUnits="userSpaceOnUse"><stop offset="0.3" stop-color="#6f12dc"/><stop offset="0.52" stop-color="#6d12d9"/><stop offset="0.68" stop-color="#6713cf"/><stop offset="0.82" stop-color="#5e13bf"/><stop offset="0.92" stop-color="#5414af"/></radialGradient><clipPath id="clip-path"><path class="cls-1" d="M346.57,157.28c0,20.3-28,19.74-48.3,19.74-38.51,0-27-47.94-27-47.94s51.12-9.39,67.88,5C343.05,137.36,346.57,149.92,346.57,157.28Z"/></clipPath><clipPath id="clip-path-2"><path class="cls-2" d="M383.34,157.28c1,20.28,24.61,23.63,41.71,19.74,35.19-8,24.56-48.12,24.56-48.12s-45.79-9.16-60.09,5.65C382.5,141.83,383,149.36,383.34,157.28Z"/></clipPath><linearGradient id="Gradiente_sem_nome_33" x1="488.19" y1="258.93" x2="488.19" y2="190.77" gradientTransform="translate(4.64 -6.75) rotate(1.15)" gradientUnits="userSpaceOnUse"><stop offset="0.21" stop-color="#e5d9f9"/><stop offset="1" stop-color="#e5d9f9" stop-opacity="0"/></linearGradient><radialGradient id="Gradiente_sem_nome_11" cx="-458.57" cy="614.41" r="90.7" gradientTransform="matrix(-0.86, -0.51, -0.32, 0.55, 242.82, -192.93)" gradientUnits="userSpaceOnUse"><stop offset="0" stop-color="#6f12dc"/><stop offset="0.34" stop-color="#6d12d9"/><stop offset="0.6" stop-color="#6713cf"/><stop offset="0.82" stop-color="#5e13bf"/><stop offset="0.98" stop-color="#5414af"/></radialGradient><radialGradient id="Gradiente_sem_nome_11-2" cx="-328.56" cy="563.76" r="90.7" gradientTransform="matrix(-0.95, -0.3, -0.19, 0.61, 104.84, -78.52)" xlink:href="#Gradiente_sem_nome_11"/></defs><g id="Camada_2" data-name="Camada 2"><polygon class="cls-3" points="426.23 693.96 457.12 692.94 481.38 733.28 447.67 732.25 426.23 693.96"/><polygon class="cls-4" points="384.86 733.28 300.61 733.28 298.69 649.01 281.43 511.83 384.86 511.83 384.86 733.28"/><polygon class="cls-5" points="426.74 687.32 364.86 700.68 356.27 733.28 456.01 733.28 426.74 687.32"/><polygon class="cls-6" points="416.52 701.62 446.4 692.43 473.2 732.25 458.4 732.25 442.57 721.79 423.93 718.47 416.52 701.62"/><ellipse class="cls-7" cx="325.37" cy="520.6" rx="64.24" ry="66.38" transform="translate(-3.45 2.17) rotate(-0.38)"/><path class="cls-6" d="M159,481.83l23.77,37.47L212,461.71l-44.28,3A10.56,10.56,0,0,0,159,481.83Z"/><path class="cls-6" d="M138,551.23l28,34.44,22.27-60.62-43.63,8.12A10.56,10.56,0,0,0,138,551.23Z"/><path class="cls-6" d="M116.82,627.08l31.23,31.53,16.22-62.51-42.62,12.36A10.55,10.55,0,0,0,116.82,627.08Z"/><path class="cls-6" d="M85.56,647.7l-6.7,43.87,59.87-24.23L103.4,640.48A10.56,10.56,0,0,0,85.56,647.7Z"/><path class="cls-8" d="M278.43,506.57c-37.94,12.12-21.5,189.4-131.67,224.61C39.09,765.58,0,689.62,0,689.62S71.52,684.45,116.76,670c57.64-18.42,40.2-173.09,90.9-218.82C253.23,410.09,334.9,488.53,278.43,506.57Z"/><path class="cls-9" d="M278.43,506.57c-37.94,12.12-21.5,189.4-131.67,224.61C39.09,765.58,0,689.62,0,689.62s47.6,48.31,130.05,22c89.74-28.68,70.57-161.66,94.4-207.87C252.57,449.18,334.9,488.53,278.43,506.57Z"/><polygon class="cls-10" points="303.16 733.28 218.91 733.28 216.99 649.01 199.73 511.83 303.16 511.83 303.16 733.28"/><polygon class="cls-5" points="304.74 686.81 217.84 686.81 207.16 734.81 315.42 734.81 304.74 686.81"/><polygon class="cls-3" points="209.72 736.85 221.46 696.85 300.78 696.85 311.84 736.85 209.72 736.85"/><polygon class="cls-6" points="230.65 739.57 243.25 692.09 278.82 692.09 292.1 739.57 230.65 739.57"/><ellipse class="cls-7" cx="259.86" cy="514.84" rx="64.24" ry="66.38" transform="translate(-133.1 92.74) rotate(-16.17)"/><path class="cls-11" d="M305.57,586.21c-218.56,0-83.19-301.27,0-301.27S534,586.21,305.57,586.21Z"/><path class="cls-6" d="M327.67,543.57c-153.74,0-58.52-211.91,0-211.91S488.34,543.57,327.67,543.57Z"/><path class="cls-5" d="M241.11,474.93l-1.48-5.81c61.37-15.71,121.16-15.71,177.71,0l-1.6,5.78C360.2,459.48,301.45,459.48,241.11,474.93Z"/><path class="cls-5" d="M241.11,447.12l-1.48-5.81c61.37-15.72,121.16-15.71,177.71,0l-1.6,5.78C360.2,431.66,301.45,431.67,241.11,447.12Z"/><path class="cls-5" d="M241.11,503.94l-1.48-5.82c61.36-15.71,121.16-15.7,177.71,0l-1.6,5.78C360.2,488.48,301.45,488.49,241.11,503.94Z"/><rect class="cls-7" x="277.63" y="248.51" width="51.74" height="80"/><path class="cls-12" d="M188.27,430q118.36-59.4,238.47-3.58L369,291.57H331.25c-12.48,22.95-30.41,24.72-55.15,0H247Z"/><path class="cls-6" d="M293.44,330.73a.79.79,0,0,1-.21.55,1.61,1.61,0,0,1-.47.39l-.52.33a3.48,3.48,0,0,0-.48.38,2,2,0,0,0-.36.48,1.33,1.33,0,0,0-.14.6,1.08,1.08,0,0,0,.14.53,2.72,2.72,0,0,0,.34.46c.13.15.28.31.44.47a4,4,0,0,1,.45.54,3.22,3.22,0,0,1,.33.67,2.36,2.36,0,0,1,.14.88,2.69,2.69,0,0,1-.14.78,4.9,4.9,0,0,1-.4.88,5.26,5.26,0,0,1-.59.86,5.05,5.05,0,0,1-.72.74,3.9,3.9,0,0,1-.79.53,1.93,1.93,0,0,1-.81.2,1.27,1.27,0,0,1-.76-.24.8.8,0,0,1-.33-.7,1.18,1.18,0,0,1,.15-.59,3.08,3.08,0,0,1,.37-.52,5.81,5.81,0,0,1,.5-.49,5.5,5.5,0,0,0,.49-.47,2.74,2.74,0,0,0,.37-.49,1.06,1.06,0,0,0,.15-.55,1.45,1.45,0,0,0-.28-.82c-.19-.28-.4-.58-.63-.88a9.36,9.36,0,0,1-.63-.92,1.81,1.81,0,0,1-.29-.95,2.94,2.94,0,0,1,.32-1.26,5.2,5.2,0,0,1,.82-1.2A4.61,4.61,0,0,1,291,330a2.48,2.48,0,0,1,1.24-.36,1.22,1.22,0,0,1,.83.29A1,1,0,0,1,293.44,330.73Z"/><path class="cls-6" d="M297.1,340.92a2.48,2.48,0,0,1-1.47-.43,3.44,3.44,0,0,1-1-1.13,6,6,0,0,1-.61-1.66,9.77,9.77,0,0,1-.2-2,8.94,8.94,0,0,1,.22-2,6.21,6.21,0,0,1,.66-1.8,4,4,0,0,1,1.12-1.32,2.61,2.61,0,0,1,1.62-.51,2.36,2.36,0,0,1,1.53.49,3.55,3.55,0,0,1,1,1.28,6.51,6.51,0,0,1,.52,1.75,11.54,11.54,0,0,1,.16,1.94,9.53,9.53,0,0,1-.21,2,5.9,5.9,0,0,1-.65,1.7,3.64,3.64,0,0,1-1.1,1.17A2.8,2.8,0,0,1,297.1,340.92Zm.16-7.74a.6.6,0,0,0-.45.21,1.69,1.69,0,0,0-.31.55,3.86,3.86,0,0,0-.18.76,6.07,6.07,0,0,0-.06.85,6.24,6.24,0,0,0,.07,1,5.05,5.05,0,0,0,.18.88,2.39,2.39,0,0,0,.31.62.56.56,0,0,0,.46.23.54.54,0,0,0,.48-.3,2.42,2.42,0,0,0,.28-.73,5.32,5.32,0,0,0,.14-.89c0-.31,0-.56,0-.76a7.29,7.29,0,0,0-.05-.79A4.18,4.18,0,0,0,298,334a1.71,1.71,0,0,0-.29-.59A.55.55,0,0,0,297.26,333.18Z"/><path class="cls-6" d="M308.14,333.17a3.41,3.41,0,0,1-.44,1.72,5,5,0,0,1-1.18,1.34,8.51,8.51,0,0,1,.46.78,8.75,8.75,0,0,1,.42.93,7.53,7.53,0,0,1,.31,1,4.4,4.4,0,0,1,.11.9,1.52,1.52,0,0,1-.21.8.78.78,0,0,1-.73.36.9.9,0,0,1-.74-.42,5.14,5.14,0,0,1-.56-1c-.16-.38-.3-.78-.44-1.17a7.09,7.09,0,0,0-.38-1c-.17.06-.33.12-.48.19l-.49.2c0,.2,0,.48-.05.84a6.44,6.44,0,0,1-.15,1.06,3.26,3.26,0,0,1-.35.91.74.74,0,0,1-.66.39.78.78,0,0,1-.7-.37,2.45,2.45,0,0,1-.36-.89,5.19,5.19,0,0,1-.11-1c0-.35,0-.63,0-.84,0-.43,0-.86,0-1.28s0-.85,0-1.28,0-.79,0-1.19,0-.8,0-1.21v-.35a3.31,3.31,0,0,1,0-.44c0-.16,0-.3.05-.44a.87.87,0,0,1,.09-.33,1.36,1.36,0,0,1,.63-.56,7.62,7.62,0,0,1,1.08-.46,9.55,9.55,0,0,1,1.15-.32,4.56,4.56,0,0,1,.84-.12,2.91,2.91,0,0,1,1.25.26,2.66,2.66,0,0,1,.9.72,3,3,0,0,1,.54,1A4.18,4.18,0,0,1,308.14,333.17Zm-2.56.19a.82.82,0,0,0-.17-.55.7.7,0,0,0-.54-.18,1.87,1.87,0,0,0-.56.09,3.55,3.55,0,0,0-.52.23c0,.73,0,1.45,0,2.17a4.26,4.26,0,0,0,.6-.25,2.59,2.59,0,0,0,.56-.37,2.19,2.19,0,0,0,.42-.5A1.25,1.25,0,0,0,305.58,333.36Z"/><path class="cls-6" d="M315.39,333.17a3.41,3.41,0,0,1-.44,1.72,5,5,0,0,1-1.18,1.34,8.51,8.51,0,0,1,.46.78c.15.29.29.61.42.93a7.46,7.46,0,0,1,.3,1,3.85,3.85,0,0,1,.12.9,1.52,1.52,0,0,1-.21.8.79.79,0,0,1-.73.36.9.9,0,0,1-.74-.42,5.14,5.14,0,0,1-.56-1c-.16-.38-.31-.78-.44-1.17a7.09,7.09,0,0,0-.38-1l-.49.19-.48.2c0,.2,0,.48-.05.84a6.44,6.44,0,0,1-.15,1.06,3,3,0,0,1-.36.91.71.71,0,0,1-.65.39.78.78,0,0,1-.7-.37,2.45,2.45,0,0,1-.36-.89,6,6,0,0,1-.12-1c0-.35,0-.63,0-.84,0-.43,0-.86,0-1.28s0-.85,0-1.28,0-.79,0-1.19,0-.8,0-1.21v-.35a3.37,3.37,0,0,1,0-.44c0-.16,0-.3,0-.44a.86.86,0,0,1,.1-.33,1.36,1.36,0,0,1,.63-.56,7.62,7.62,0,0,1,1.08-.46,9.55,9.55,0,0,1,1.15-.32,4.56,4.56,0,0,1,.84-.12,2.91,2.91,0,0,1,1.25.26,2.66,2.66,0,0,1,.9.72,3,3,0,0,1,.54,1A4.18,4.18,0,0,1,315.39,333.17Zm-2.56.19a.82.82,0,0,0-.17-.55.7.7,0,0,0-.54-.18,1.87,1.87,0,0,0-.56.09,3.55,3.55,0,0,0-.52.23c0,.73,0,1.45,0,2.17a4.82,4.82,0,0,0,.6-.25,2.59,2.59,0,0,0,.56-.37,2.19,2.19,0,0,0,.42-.5A1.25,1.25,0,0,0,312.83,333.36Z"/><path class="cls-6" d="M320.67,331.05a1,1,0,0,1-.43.82,1.64,1.64,0,0,1-.43.24,1.66,1.66,0,0,1-.45.14c0,1.05-.06,2.05-.12,3s-.16,2-.29,3H319a2.1,2.1,0,0,1,.43.05,1,1,0,0,1,.39.17.86.86,0,0,1,.28.29.77.77,0,0,1,.1.42.82.82,0,0,1-.2.56,1.72,1.72,0,0,1-.53.4,3.59,3.59,0,0,1-.72.27,5.88,5.88,0,0,1-.81.18l-.76.09-.58,0-.41,0a1.77,1.77,0,0,1-.46-.08,1.07,1.07,0,0,1-.36-.21.46.46,0,0,1-.16-.37,1.08,1.08,0,0,1,.12-.52,1.39,1.39,0,0,1,.31-.41,1.6,1.6,0,0,1,.44-.29,2.19,2.19,0,0,1,.49-.17c.07-.51.13-1,.18-1.52s.09-1,.11-1.53l.06-1.56c0-.51,0-1,.05-1.54l-.18,0h-.15a2.12,2.12,0,0,1-.42,0,1.53,1.53,0,0,1-.41-.14,1.23,1.23,0,0,1-.33-.26.61.61,0,0,1-.13-.39.92.92,0,0,1,.4-.77,2.68,2.68,0,0,1,.94-.47,5.34,5.34,0,0,1,1.11-.23,7.27,7.27,0,0,1,.92-.07l.51,0a2.83,2.83,0,0,1,.63.13,1.7,1.7,0,0,1,.54.26A.52.52,0,0,1,320.67,331.05Z"/><path class="cls-6" d="M325.4,330.73a.83.83,0,0,1-.2.55,1.79,1.79,0,0,1-.48.39q-.25.15-.51.33a3.05,3.05,0,0,0-.49.38,2,2,0,0,0-.36.48,1.33,1.33,0,0,0-.14.6,1.08,1.08,0,0,0,.14.53,3.39,3.39,0,0,0,.34.46c.13.15.28.31.44.47a3.39,3.39,0,0,1,.45.54,3.82,3.82,0,0,1,.34.67,2.58,2.58,0,0,1,.14.88,2.42,2.42,0,0,1-.15.78,5.64,5.64,0,0,1-.39.88,6.91,6.91,0,0,1-.59.86,6.33,6.33,0,0,1-.72.74,4,4,0,0,1-.8.53,1.93,1.93,0,0,1-.81.2,1.27,1.27,0,0,1-.76-.24.8.8,0,0,1-.33-.7,1.18,1.18,0,0,1,.15-.59,2.66,2.66,0,0,1,.38-.52,4.53,4.53,0,0,1,.49-.49A5.5,5.5,0,0,0,322,338a2.74,2.74,0,0,0,.37-.49,1,1,0,0,0,.16-.55,1.46,1.46,0,0,0-.29-.82c-.19-.28-.4-.58-.63-.88a9.36,9.36,0,0,1-.63-.92,1.8,1.8,0,0,1-.28-.95,2.8,2.8,0,0,1,.32-1.26,4.87,4.87,0,0,1,.81-1.2A4.66,4.66,0,0,1,323,330a2.42,2.42,0,0,1,1.23-.36,1.22,1.22,0,0,1,.83.29A1,1,0,0,1,325.4,330.73Z"/><path class="cls-6" d="M329.06,340.92a2.48,2.48,0,0,1-1.47-.43,3.31,3.31,0,0,1-1-1.13,5.44,5.44,0,0,1-.61-1.66,9.11,9.11,0,0,1-.2-2,9.57,9.57,0,0,1,.21-2,6.21,6.21,0,0,1,.66-1.8,4,4,0,0,1,1.12-1.32,2.61,2.61,0,0,1,1.62-.51,2.36,2.36,0,0,1,1.53.49,3.44,3.44,0,0,1,1,1.28,6.9,6.9,0,0,1,.53,1.75,12.68,12.68,0,0,1,.15,1.94,9.53,9.53,0,0,1-.21,2,5.63,5.63,0,0,1-.65,1.7,3.54,3.54,0,0,1-1.1,1.17A2.8,2.8,0,0,1,329.06,340.92Zm.16-7.74a.6.6,0,0,0-.45.21,1.69,1.69,0,0,0-.31.55,3.86,3.86,0,0,0-.18.76,6.06,6.06,0,0,0,0,.85,7.77,7.77,0,0,0,.06,1,4.25,4.25,0,0,0,.19.88,1.89,1.89,0,0,0,.31.62.53.53,0,0,0,.45.23.54.54,0,0,0,.48-.3,2.71,2.71,0,0,0,.29-.73,6.6,6.6,0,0,0,.14-.89c0-.31,0-.56,0-.76a7.29,7.29,0,0,0-.05-.79A3.49,3.49,0,0,0,330,334a1.71,1.71,0,0,0-.29-.59A.55.55,0,0,0,329.22,333.18Z"/><path class="cls-6" d="M276,350.59a9.12,9.12,0,0,1-.79,3.73,10.68,10.68,0,0,1-2.12,3.17A10.33,10.33,0,0,1,270,359.7a8.71,8.71,0,0,1-3.73.82h0a.77.77,0,0,1-.65-.36,3.5,3.5,0,0,1-.43-.91,8,8,0,0,1-.26-1.23c-.06-.46-.1-.9-.13-1.33s-.05-.82-.05-1.16v-.78c0-.5,0-1,0-1.49s0-1,.06-1.48c0-.16,0-.4,0-.71s.05-.67.08-1.07.07-.81.11-1.24.09-.83.14-1.21.11-.7.16-1a1.64,1.64,0,0,1,.18-.58,2.57,2.57,0,0,1,.88-.85,6.39,6.39,0,0,1,1.29-.62,8.72,8.72,0,0,1,1.4-.36,7.67,7.67,0,0,1,1.24-.12,5.64,5.64,0,0,1,2.52.53,5.36,5.36,0,0,1,1.78,1.45,6.1,6.1,0,0,1,1.05,2.1A8.84,8.84,0,0,1,276,350.59Zm-3.69.64a3.22,3.22,0,0,0-.17-1,3.29,3.29,0,0,0-.5-.92,2.47,2.47,0,0,0-.77-.67,2,2,0,0,0-1-.25,2.23,2.23,0,0,0-.95.22.71.71,0,0,0-.2.4,6.77,6.77,0,0,0-.14.83c0,.32-.07.67-.1,1s-.05.74-.05,1.09,0,.65,0,.91,0,.44,0,.53v.65a7.87,7.87,0,0,0,0,.84c0,.28,0,.52.07.73s.08.3.16.3a2.08,2.08,0,0,0,1.3-.51,6,6,0,0,0,1.18-1.27,6.93,6.93,0,0,0,.84-1.56A3.74,3.74,0,0,0,272.31,351.23Z"/><path class="cls-6" d="M284.37,345.56a1.44,1.44,0,0,1-.19.75,1.64,1.64,0,0,1-.49.56,3.45,3.45,0,0,1-.68.39,4.31,4.31,0,0,1-.73.22c0,1.65-.09,3.25-.18,4.78s-.25,3.13-.45,4.77h.13a3.25,3.25,0,0,1,.69.08,1.9,1.9,0,0,1,.62.26,1.48,1.48,0,0,1,.44.46,1.28,1.28,0,0,1,.16.67,1.32,1.32,0,0,1-.32.88,2.74,2.74,0,0,1-.83.64,6.84,6.84,0,0,1-1.16.44c-.42.11-.85.2-1.27.27s-.83.11-1.21.14-.69.05-.92.05l-.65,0a2.79,2.79,0,0,1-.72-.14,1.56,1.56,0,0,1-.59-.33.75.75,0,0,1-.24-.59A1.8,1.8,0,0,1,276,359a2.37,2.37,0,0,1,.49-.65,2.74,2.74,0,0,1,.7-.46,3.6,3.6,0,0,1,.78-.27c.1-.8.19-1.6.28-2.4s.15-1.61.18-2.43.06-1.66.08-2.47l.09-2.45-.28,0h-.24a3.9,3.9,0,0,1-.66-.07,2.07,2.07,0,0,1-.66-.23,1.78,1.78,0,0,1-.52-.41.89.89,0,0,1-.21-.61,1.48,1.48,0,0,1,.63-1.23,4.74,4.74,0,0,1,1.49-.75,10.68,10.68,0,0,1,1.77-.36,12.86,12.86,0,0,1,1.45-.1c.21,0,.48,0,.81,0a4.92,4.92,0,0,1,1,.2,2.76,2.76,0,0,1,.86.42A.86.86,0,0,1,284.37,345.56Z"/><path class="cls-6" d="M295.27,345.94a9.3,9.3,0,0,1-.2,1.77c-.13.65-.3,1.31-.5,2s-.41,1.33-.63,2l-.61,1.72c-.11.33-.24.73-.38,1.2s-.3,1-.48,1.51-.39,1.05-.61,1.58a9.76,9.76,0,0,1-.72,1.41,4.47,4.47,0,0,1-.87,1,1.55,1.55,0,0,1-1,.4,1.26,1.26,0,0,1-.89-.42,4.84,4.84,0,0,1-.81-1.06,12.24,12.24,0,0,1-.73-1.45c-.23-.54-.43-1.06-.61-1.57s-.34-1-.47-1.43l-.27-1c-.29-1.14-.57-2.3-.84-3.46a16,16,0,0,1-.39-3.5c0-.3,0-.6,0-.91a2.92,2.92,0,0,1,.22-.87,1.62,1.62,0,0,1,.5-.65,1.39,1.39,0,0,1,.89-.25,1.13,1.13,0,0,1,.89.54,5.6,5.6,0,0,1,.73,1.39,19.65,19.65,0,0,1,.61,1.91c.18.7.35,1.4.51,2.08s.32,1.31.46,1.91a11.59,11.59,0,0,0,.44,1.41l.39-1.28c.17-.56.36-1.18.59-1.86s.48-1.36.75-2.07a18.76,18.76,0,0,1,.85-1.94,6.76,6.76,0,0,1,.94-1.41,1.33,1.33,0,0,1,1-.55,1.07,1.07,0,0,1,.61.17,1.14,1.14,0,0,1,.37.47,2.41,2.41,0,0,1,.19.61A3.55,3.55,0,0,1,295.27,345.94Z"/><path class="cls-6" d="M305.17,357a1.59,1.59,0,0,1-.22.81,3.11,3.11,0,0,1-1,.88,15.12,15.12,0,0,1-1.8,1c-.66.3-1.3.55-1.91.77a4.77,4.77,0,0,1-1.36.31,2.17,2.17,0,0,1-.73-.14,4.63,4.63,0,0,1-.83-.36,4.58,4.58,0,0,1-.76-.51,2.24,2.24,0,0,1-.5-.55,2.35,2.35,0,0,1-.16-.61c-.05-.31-.1-.67-.13-1.08s-.07-.84-.1-1.3-.06-.9-.08-1.32,0-.79,0-1.11,0-.56,0-.7c0-.55,0-1.17.05-1.87s.11-1.41.21-2.12a13.17,13.17,0,0,1,.45-2,5.57,5.57,0,0,1,.8-1.66,1.91,1.91,0,0,1,.62-.42q.47-.21,1.08-.42c.42-.13.87-.25,1.36-.37s.94-.22,1.39-.3l1.22-.19a6.94,6.94,0,0,1,.83-.08,1.52,1.52,0,0,1,.63.14,1.65,1.65,0,0,1,.51.39,2.2,2.2,0,0,1,.32.53,1.51,1.51,0,0,1,.13.63,1.34,1.34,0,0,1-.08.48,2.34,2.34,0,0,1-.23.44,3.31,3.31,0,0,1-.92.68q-.7.41-1.53.78c-.55.26-1.08.49-1.58.7l-1.07.44-.18,1a9,9,0,0,0-.15,1,15.15,15.15,0,0,1,1.54-.66,4.93,4.93,0,0,1,1.63-.31,1.37,1.37,0,0,1,1.56,1.54,1.4,1.4,0,0,1-.15.66,1.67,1.67,0,0,1-.37.5,2.34,2.34,0,0,1-.53.39l-.58.32A12.13,12.13,0,0,1,301,354l-1.54.53q0,.18-.09.39a1.87,1.87,0,0,0,0,.4,4.3,4.3,0,0,0,0,.62l.09.61.85-.28,1.22-.4c.42-.13.83-.24,1.23-.34a4.4,4.4,0,0,1,.87-.14,1.44,1.44,0,0,1,.62.14,1.5,1.5,0,0,1,.48.38,1.87,1.87,0,0,1,.32.53A1.71,1.71,0,0,1,305.17,357Z"/><path class="cls-6" d="M316.88,348.92a5.41,5.41,0,0,1-.7,2.73,7.84,7.84,0,0,1-1.87,2.13q.35.53.72,1.23a11.7,11.7,0,0,1,.67,1.48,13.36,13.36,0,0,1,.49,1.56,6.44,6.44,0,0,1,.18,1.44,2.33,2.33,0,0,1-.34,1.26,1.22,1.22,0,0,1-1.15.56,1.46,1.46,0,0,1-1.18-.66,7.49,7.49,0,0,1-.87-1.57c-.26-.6-.49-1.22-.71-1.85a12,12,0,0,0-.6-1.52c-.26.09-.52.19-.77.3l-.77.32c0,.32,0,.76-.08,1.33a9.72,9.72,0,0,1-.24,1.68,4.71,4.71,0,0,1-.56,1.45,1.15,1.15,0,0,1-1,.61,1.28,1.28,0,0,1-1.12-.59,4,4,0,0,1-.56-1.41,10,10,0,0,1-.19-1.66c0-.56,0-1,0-1.33,0-.68,0-1.36.05-2s0-1.34,0-2,0-1.26,0-1.89,0-1.26,0-1.91V348a5.58,5.58,0,0,1,0-.7c0-.24,0-.47.07-.69a1.38,1.38,0,0,1,.16-.53,2.17,2.17,0,0,1,1-.88,11.13,11.13,0,0,1,1.71-.73A13.51,13.51,0,0,1,311,344a7.78,7.78,0,0,1,1.33-.19,4.44,4.44,0,0,1,2,.42,4.2,4.2,0,0,1,1.43,1.13,5,5,0,0,1,.85,1.65A6.69,6.69,0,0,1,316.88,348.92Zm-4.07.31a1.26,1.26,0,0,0-.26-.87,1.11,1.11,0,0,0-.86-.29,2.76,2.76,0,0,0-.88.15,5.31,5.31,0,0,0-.83.35c.06,1.16.08,2.31.07,3.45a6.7,6.7,0,0,0,.94-.39,4.09,4.09,0,0,0,.89-.6,3,3,0,0,0,.67-.79A1.88,1.88,0,0,0,312.81,349.23Z"/><path class="cls-6" d="M327.16,345.48a1.46,1.46,0,0,1-.43,1,4.61,4.61,0,0,1-1,.79,9.1,9.1,0,0,1-1.24.56,8.73,8.73,0,0,1-1.06.3c-.12,1.13-.21,2.26-.27,3.38s-.1,2.24-.1,3.37c0,.6,0,1.19,0,1.78s.05,1.17.05,1.75a5.52,5.52,0,0,1-.08.87,3.67,3.67,0,0,1-.26.89,2,2,0,0,1-.52.7,1.2,1.2,0,0,1-.81.29,1.28,1.28,0,0,1-.91-.32,2,2,0,0,1-.53-.78,3.53,3.53,0,0,1-.25-1,6.38,6.38,0,0,1-.07-.93c0-.88-.05-1.76-.07-2.65s0-1.77,0-2.67c0-.74,0-1.47,0-2.19s0-1.45,0-2.2l-.62.07-.65,0a5.07,5.07,0,0,1-.69-.06,3.85,3.85,0,0,1-.83-.19,2.18,2.18,0,0,1-.68-.4.82.82,0,0,1-.28-.65,1.55,1.55,0,0,1,.51-1.15,5,5,0,0,1,1.32-.86,11.59,11.59,0,0,1,1.78-.61c.65-.17,1.3-.3,1.93-.4s1.23-.16,1.76-.21.95-.06,1.24-.06l.89,0a3.2,3.2,0,0,1,.89.19,1.68,1.68,0,0,1,.69.46A1.22,1.22,0,0,1,327.16,345.48Z"/><path class="cls-6" d="M333.62,345.56a1.55,1.55,0,0,1-.19.75,1.79,1.79,0,0,1-.5.56,3.45,3.45,0,0,1-.68.39,4.5,4.5,0,0,1-.72.22c0,1.65-.09,3.25-.19,4.78s-.24,3.13-.45,4.77H331a3.27,3.27,0,0,1,.7.08,1.85,1.85,0,0,1,.61.26,1.48,1.48,0,0,1,.44.46,1.28,1.28,0,0,1,.16.67,1.32,1.32,0,0,1-.31.88,2.92,2.92,0,0,1-.84.64,6.72,6.72,0,0,1-1.15.44c-.43.11-.85.2-1.28.27s-.82.11-1.2.14-.69.05-.93.05l-.64,0a2.86,2.86,0,0,1-.73-.14,1.44,1.44,0,0,1-.58-.33.75.75,0,0,1-.24-.59,1.8,1.8,0,0,1,.18-.82,2.4,2.4,0,0,1,.5-.65,2.52,2.52,0,0,1,.69-.46,4,4,0,0,1,.78-.27c.1-.8.2-1.6.29-2.4s.14-1.61.17-2.43.06-1.66.09-2.47l.09-2.45-.29,0h-.24a3.9,3.9,0,0,1-.66-.07,2.25,2.25,0,0,1-.66-.23,1.74,1.74,0,0,1-.51-.41.89.89,0,0,1-.21-.61,1.5,1.5,0,0,1,.62-1.23,4.8,4.8,0,0,1,1.5-.75,10.36,10.36,0,0,1,1.76-.36,13,13,0,0,1,1.45-.1c.21,0,.48,0,.82,0a5.06,5.06,0,0,1,1,.2,2.7,2.7,0,0,1,.85.42A.86.86,0,0,1,333.62,345.56Z"/><path class="cls-6" d="M345.23,350.59a9.12,9.12,0,0,1-.79,3.73,10.68,10.68,0,0,1-2.12,3.17,10.21,10.21,0,0,1-3.09,2.21,8.71,8.71,0,0,1-3.73.82h0a.77.77,0,0,1-.65-.36,3.5,3.5,0,0,1-.43-.91,8,8,0,0,1-.26-1.23c-.06-.46-.1-.9-.13-1.33s-.05-.82-.05-1.16v-.78c0-.5,0-1,0-1.49s0-1,.06-1.48c0-.16,0-.4,0-.71s0-.67.07-1.07.07-.81.11-1.24.09-.83.14-1.21.11-.7.16-1a1.43,1.43,0,0,1,.19-.58,2.53,2.53,0,0,1,.87-.85,6.39,6.39,0,0,1,1.29-.62,8.72,8.72,0,0,1,1.4-.36,7.68,7.68,0,0,1,1.25-.12,5.63,5.63,0,0,1,2.51.53,5.36,5.36,0,0,1,1.78,1.45,5.93,5.93,0,0,1,1.05,2.1A8.84,8.84,0,0,1,345.23,350.59Zm-3.69.64a3,3,0,0,0-.17-1,3.29,3.29,0,0,0-.5-.92,2.44,2.44,0,0,0-.76-.67,2,2,0,0,0-1-.25,2.23,2.23,0,0,0-.95.22.71.71,0,0,0-.2.4c0,.23-.1.51-.14.83s-.07.67-.1,1-.05.74-.05,1.09,0,.65,0,.91,0,.44,0,.53v.65c0,.28,0,.56,0,.84s0,.52.07.73.08.3.16.3a2.13,2.13,0,0,0,1.31-.51,6.22,6.22,0,0,0,1.17-1.27,7.39,7.39,0,0,0,.85-1.56A3.91,3.91,0,0,0,341.54,351.23Z"/><path class="cls-6" d="M351.25,361.2a4,4,0,0,1-2.33-.67,5.27,5.27,0,0,1-1.63-1.8,9,9,0,0,1-1-2.62,15,15,0,0,1,0-6.26,10.44,10.44,0,0,1,1.05-2.86,6.45,6.45,0,0,1,1.78-2.08,4.07,4.07,0,0,1,2.57-.82,3.76,3.76,0,0,1,2.42.78,5.65,5.65,0,0,1,1.56,2,10.63,10.63,0,0,1,.84,2.78,20,20,0,0,1,.25,3.08,14.7,14.7,0,0,1-.34,3.24,9.36,9.36,0,0,1-1,2.69,5.49,5.49,0,0,1-1.74,1.84A4.32,4.32,0,0,1,351.25,361.2Zm.27-12.25a.94.94,0,0,0-.72.33,2.62,2.62,0,0,0-.49.86,6,6,0,0,0-.29,1.21,10.2,10.2,0,0,0-.09,1.35,13.13,13.13,0,0,0,.1,1.54,8.32,8.32,0,0,0,.3,1.38,3.26,3.26,0,0,0,.49,1,.9.9,0,0,0,.72.38.88.88,0,0,0,.77-.49,4.25,4.25,0,0,0,.45-1.16,9.21,9.21,0,0,0,.22-1.41c0-.48,0-.88,0-1.21a9.23,9.23,0,0,0-.08-1.25,6.42,6.42,0,0,0-.25-1.22,3.11,3.11,0,0,0-.46-.93A.86.86,0,0,0,351.52,349Z"/><path class="cls-6" d="M337.53,369.26c-17.83,18.52-35.71,18.39-53.65,0-.48-.49-.64-1.18-.07-1.57h0a.93.93,0,0,1,.95-.07c17.09,8.6,34.37,8.68,51.84,0a.93.93,0,0,1,.95.06l0,0C338.14,368.08,338,368.77,337.53,369.26Z"/><path class="cls-6" d="M335.74,365.29c4.72-2.31,5.67,0,4.58,4.87C340.23,366.41,338.71,364.78,335.74,365.29Z"/><path class="cls-6" d="M285.68,365.29c-4.72-2.31-5.68,0-4.59,4.87C281.18,366.41,282.71,364.78,285.68,365.29Z"/><path class="cls-13" d="M186.74,433.21l2.1-5.36c40.91-19.4,79.32-30.84,118.25-31.91,41.07-1.12,79.67,8.39,119,27.63l2.81,7.54C353.43,394.19,269.68,393.88,186.74,433.21Z"/><path class="cls-13" d="M306.91,313c-10.18,0-21-8.34-33.21-21.09l3.67-1.33c11.59,12.08,22.28,14.78,30.81,13.79,7-.81,15.72-3.6,21.54-13.45L333,292c-7,11.84-13.93,19.69-23.21,20.77A24.28,24.28,0,0,1,306.91,313Z"/><path class="cls-6" d="M343.94,4.6,315,38.2l63.59,11.29L362.89,8A10.56,10.56,0,0,0,343.94,4.6Z"/><path class="cls-6" d="M230.9,260.37l43-10.94-45.67-45.67-11,43A10.56,10.56,0,0,0,230.9,260.37Z"/><path class="cls-6" d="M189.33,197.88l42.79,11.77L215,147.37l-30.79,32A10.56,10.56,0,0,0,189.33,197.88Z"/><path class="cls-6" d="M184.77,119.83l30.67,32.09,17.34-62.21L189.94,101.3A10.56,10.56,0,0,0,184.77,119.83Z"/><path class="cls-6" d="M220.22,51.34l10.15,43.21,46.51-44.81L234.08,38A10.56,10.56,0,0,0,220.22,51.34Z"/><path class="cls-6" d="M275.54,13.74,265.44,57,327,37.46,293.88,7.93A10.56,10.56,0,0,0,275.54,13.74Z"/><circle class="cls-5" cx="333.5" cy="152.08" r="120.6"/><path class="cls-1" d="M346.57,157.28c0,20.3-28,19.74-48.3,19.74-38.51,0-27-47.94-27-47.94s51.12-9.39,67.88,5C343.05,137.36,346.57,149.92,346.57,157.28Z"/><g class="cls-14"><ellipse cx="317.76" cy="139.21" rx="19.62" ry="45.44"/></g><path class="cls-2" d="M383.34,157.28c1,20.28,24.61,23.63,41.71,19.74,35.19-8,24.56-48.12,24.56-48.12s-45.79-9.16-60.09,5.65C382.5,141.83,383,149.36,383.34,157.28Z"/><g class="cls-15"><ellipse cx="412.86" cy="137.45" rx="19.62" ry="45.44"/></g><path class="cls-5" d="M293.27,265.8c36.41,13.89,113.55,16.85,155.68-7.67,22.81-13.28,26.64-52.51,24.59-68.51s-151.82-27.92-182.46,8.51C255.2,240.78,277.45,259.77,293.27,265.8Z"/><ellipse class="cls-5" cx="344.52" cy="184.68" rx="18.38" ry="25.36"/><ellipse class="cls-5" cx="459.42" cy="182.47" rx="18.38" ry="25.36"/><ellipse class="cls-7" cx="301.67" cy="193.15" rx="9.62" ry="3.83"/><circle class="cls-7" cx="278.7" cy="186.68" r="5.53"/><circle class="cls-7" cx="274.27" cy="208.3" r="5.53"/><ellipse class="cls-7" cx="450.23" cy="191.74" rx="7.2" ry="3.83"/><ellipse class="cls-7" cx="467.44" cy="185.28" rx="4.14" ry="5.53"/><ellipse class="cls-7" cx="470.75" cy="206.9" rx="4.14" ry="5.53"/><ellipse class="cls-7" cx="358.4" cy="159.15" rx="5.36" ry="8" transform="translate(-26.55 233.95) rotate(-34.94)"/><ellipse class="cls-7" cx="374.4" cy="159.15" rx="8" ry="5.36" transform="translate(29.51 374.91) rotate(-55.06)"/><circle class="cls-7" cx="366.31" cy="142.47" r="6.98"/><polygon class="cls-6" points="324.36 224.15 390.97 239.33 448.29 222.6 390.71 253.79 324.36 224.15"/><circle class="cls-6" cx="451.55" cy="228.8" r="26.13"/><circle class="cls-5" cx="454.87" cy="228.8" r="26.13"/><circle class="cls-6" cx="319.86" cy="230.67" r="26.53"/><circle class="cls-5" cx="315.02" cy="230.67" r="26.53"/><circle class="cls-16" cx="440.23" cy="233.6" r="2.94"/><circle class="cls-16" cx="443.85" cy="224.61" r="2.94"/><circle class="cls-16" cx="450.87" cy="234.63" r="2.94"/><circle class="cls-16" cx="323.26" cy="228.71" r="2.94"/><circle class="cls-16" cx="332.73" cy="226.7" r="2.94"/><circle class="cls-16" cx="328.33" cy="238.12" r="2.94"/><path class="cls-17" d="M543,206.34l-20.38-.41.16-7.91a3.55,3.55,0,0,0-3.51-3.6l-84.69-1.71a14.52,14.52,0,1,0-.58,29l20.38.41,0,1.42-5.26-.11a14.5,14.5,0,0,0-3.24,28.73l-.11,5.39a3.56,3.56,0,0,0,3.51,3.6l84.69,1.7a14.48,14.48,0,0,0,6.75-27.54l1.73,0a14.61,14.61,0,0,0,15-14.22h0A14.62,14.62,0,0,0,543,206.34Z"/><path class="cls-16" d="M548.31,250.25l.78-5.65,4.85-9.2h-7.66l-2.56-.48-2.54-2.71-3.13,1.64-3.38-2.66-1.7,1.7-4.23-.79-1.09-2.31-4.8,1.19-1.87-.35-2.4-3.08-4.28,1.82-10.65-2c-5.11,17.87-31.41,12-31.41,12,8,22.6-25.28,17.75-25.28,17.75-.84,13.8-18.76,9.32-18.76,9.32l-.13,40.63,112.34.6,2.14-15.52h0l2.58-2.74-1.64-3.93,5.09-7.94-1-9.57,1.66-1.28L547.94,264l2.17-6.13Z"/><path class="cls-18" d="M502.5,232.72l31.66,12,6.25-1.15-3.57,9.32-5.49,52.6-98.56-2.81,2.3-24.89-2.3-8.68c9.11-.95,13.7-4.28,14.81-9.45,30,.09,34.23-7.57,28.34-18.26C488.55,245.52,499.22,246,502.5,232.72Z"/><circle class="cls-16" cx="520.56" cy="255.77" r="8.04"/><circle class="cls-18" cx="521.51" cy="254.86" r="7.18"/><circle class="cls-16" cx="498.98" cy="273.99" r="5.72"/><circle class="cls-18" cx="499.75" cy="274.95" r="4.89"/><circle class="cls-16" cx="475.88" cy="283.74" r="8.04"/><circle class="cls-18" cx="475.11" cy="282.98" r="7.34"/><path class="cls-19" d="M334.28,353.58S437.49,465.87,494.85,454.5c22.54-4.46,48.43-42.92,43.42-65.34-9.58-42.89-106.84-86.88-150.63-90.62C362.29,296.36,334.28,353.58,334.28,353.58Z"/><path class="cls-12" d="M450.58,316,409.14,427.41l-25.26-25.64s-34-22.06-42.28-31.2c-18-20-20.6-38.7-12.93-56.93,13.33-31.7,56.48-23.06,56.48-23.06Z"/><polygon class="cls-13" points="456.38 314.14 410.75 435.07 405.45 427.2 449.05 314.18 456.38 314.14"/><polygon class="cls-20" points="528.7 481.68 424.5 484.08 398.17 468.11 419.37 317.53 417.82 279.17 548.35 292.75 539.79 336.27 528.7 481.68"/><path class="cls-21" d="M203.92,363.17S330,449,383.25,424.88c20.92-9.47,37.38-52.81,27.4-73.51-19.09-39.58-123.82-60.27-167.31-53.95C218.16,301.08,203.92,363.17,203.92,363.17Z"/><path class="cls-12" d="M308.61,300.1,293.61,418,263.18,398.8S225,385.07,214.9,378.05c-22.11-15.39-28.86-33-25.54-52.49,5.76-33.91,49.74-35.31,49.74-35.31Z"/><polygon class="cls-13" points="313.83 296.96 296.93 425.11 289.98 418.65 306.7 298.67 313.83 296.96"/><path class="cls-5" d="M378.76,331.68s55-29.26,74.06-6.34,11.23,47.46-.77,53.16c-15.13,7.18-51.29,17.5-72.91-12.09C366,348.42,378.76,331.68,378.76,331.68Z"/><path class="cls-5" d="M377.39,353.22S443.79,333,462,358.75s5.69,48.72-8.71,52.45c-18.15,4.7-60.52,9.14-80.57-23.57C360.49,367.74,377.39,353.22,377.39,353.22Z"/><path class="cls-5" d="M368.65,390.39s55.75-27.73,74.2-4.29,9.92,47.74-2.24,53.11c-15.32,6.77-51.75,16.08-72.55-14.1C355.41,406.77,368.65,390.39,368.65,390.39Z"/><path class="cls-5" d="M564.26,366.33s-30.52-50-50.43-37.62-21.28,37.82-14.42,48.12c8.65,13,31.24,37.83,54.81,20.55C568.55,386.88,564.26,366.33,564.26,366.33Z"/><path class="cls-5" d="M559.16,386.28S518,339.52,498,354.8s-17.72,41.35-8.62,50.91c11.48,12.05,40.1,34.3,63.44,13.53C567,406.62,559.16,386.28,559.16,386.28Z"/><path class="cls-5" d="M554.87,423.46s-31.51-48.95-51.11-35.83-20.43,38.64-13.37,48.71c8.9,12.68,32,36.75,55.12,18.59C559.59,443.89,554.87,423.46,554.87,423.46Z"/><path class="cls-6" d="M250.24,91.63s15-45,74-16.08C324.24,75.55,256.84,28.57,250.24,91.63Z"/><path class="cls-6" d="M434.33,91.63s-12.27-45-60.39-16.08C373.94,75.55,428.94,28.57,434.33,91.63Z"/></g></svg>