<svg xmlns="http://www.w3.org/2000/svg" xmlns:xlink="http://www.w3.org/1999/xlink" viewBox="0 0 440.1 502.62"><defs><style>.cls-1,.cls-3{fill:none;}.cls-1{stroke:#6f12dc;}.cls-1,.cls-2,.cls-3{stroke-miterlimit:10;}.cls-2{fill:#6f12dc;}.cls-2,.cls-3{stroke:#e5d9f9;stroke-width:6px;}.cls-4{fill:#e5d9f9;}.cls-5{fill:url(#Gradiente_sem_nome_33);}</style><linearGradient id="Gradiente_sem_nome_33" x1="130.13" y1="482.08" x2="-1.15" y2="482.08" gradientTransform="matrix(1, -0.01, -0.01, 0.92, 6.05, 51.16)" gradientUnits="userSpaceOnUse"><stop offset="0.21" stop-color="#e5d9f9"/><stop offset="1" stop-color="#e5d9f9" stop-opacity="0"/></linearGradient></defs><g id="Camada_2" data-name="Camada 2"><rect class="cls-1" x="-685.27" y="-101.97" width="1298.55" height="661.79"/><circle class="cls-2" cx="306.4" cy="407.68" r="63.15"/><path class="cls-3" d="M366.71,424.09a52.11,52.11,0,0,1-68.15,28.06,41.68,41.68,0,0,1-22.45-54.52,33.36,33.36,0,0,1,43.62-18,26.68,26.68,0,0,1,14.36,34.89,21.34,21.34,0,0,1-27.91,11.5,17.08,17.08,0,0,1-9.2-22.33,13.67,13.67,0,0,1,17.87-7.36,10.92,10.92,0,0,1,5.88,14.29,8.73,8.73,0,0,1-11.43,4.71,7,7,0,0,1-3.77-9.15"/><rect class="cls-4" x="405.8" y="300.97" width="34.29" height="34.29" rx="17.14" transform="translate(-79.73 152.59) rotate(-18.72)"/><rect class="cls-4" x="401.58" y="380.11" width="16.57" height="16.57" transform="translate(67.56 -60.68) rotate(9.22)"/><circle class="cls-4" cx="404.09" cy="219.65" r="29.57"/><polygon class="cls-4" points="329.65 264.13 278.54 261.28 271.16 311.68 214.36 241.81 272.85 194.26 329.65 264.13"/><polygon class="cls-4" points="205.91 330.52 171.45 292.67 130.86 323.43 139.32 233.79 214.37 240.87 205.91 330.52"/><path class="cls-5" d="M0,500.89c50.61-1.91,128.88-33.34,131.22-13.61C133.88,509.78,0,500.89,0,500.89Z"/><ellipse class="cls-4" cx="152.26" cy="420.59" rx="53.6" ry="18.56" transform="translate(-291.03 480.32) rotate(-77.77)"/><path class="cls-4" d="M82.77,497.92c24.76-5.2,36.92-61.68,56.25-28.21C161.05,507.86,82.77,497.92,82.77,497.92Z"/><path class="cls-4" d="M244.26,3.71a2.55,2.55,0,0,1-.79,1.62,5.17,5.17,0,0,1-1.58,1c-.54.26-1.1.53-1.67.83a10.59,10.59,0,0,0-1.6,1,6.09,6.09,0,0,0-1.25,1.34,3.82,3.82,0,0,0-.61,1.77A3.07,3.07,0,0,0,237,13a9.58,9.58,0,0,0,.88,1.52c.36.51.76,1,1.2,1.58a11.27,11.27,0,0,1,1.17,1.79,9.59,9.59,0,0,1,.81,2.15,7.63,7.63,0,0,1,.14,2.7,7.51,7.51,0,0,1-.69,2.34A16.06,16.06,0,0,1,239,27.59,18.57,18.57,0,0,1,237,30a17.35,17.35,0,0,1-2.43,2,11.52,11.52,0,0,1-2.6,1.35,5.66,5.66,0,0,1-2.51.35,3.91,3.91,0,0,1-2.24-1,2.46,2.46,0,0,1-.79-2.25,3.63,3.63,0,0,1,.66-1.75,9.79,9.79,0,0,1,1.3-1.46A18.8,18.8,0,0,1,230,26c.6-.42,1.15-.85,1.65-1.28a9.26,9.26,0,0,0,1.3-1.37,3.26,3.26,0,0,0,.64-1.62,4.47,4.47,0,0,0-.6-2.6c-.48-.92-1-1.87-1.63-2.86a28.35,28.35,0,0,1-1.62-3,5.61,5.61,0,0,1-.56-3,8.86,8.86,0,0,1,1.38-3.72,15.56,15.56,0,0,1,2.88-3.4,14.38,14.38,0,0,1,3.71-2.4A7.47,7.47,0,0,1,241,0a3.82,3.82,0,0,1,2.43,1.15A3,3,0,0,1,244.26,3.71Z"/><path class="cls-4" d="M252.09,35.89a7.81,7.81,0,0,1-4.33-1.76,10.23,10.23,0,0,1-2.77-3.8,17.15,17.15,0,0,1-1.32-5.23,28.31,28.31,0,0,1,0-6.1A28.68,28.68,0,0,1,245,13.08a19.91,19.91,0,0,1,2.59-5.27,12.52,12.52,0,0,1,3.84-3.64,8,8,0,0,1,5.1-1,7.22,7.22,0,0,1,4.5,2,10.79,10.79,0,0,1,2.58,4.2,20,20,0,0,1,1,5.5,35.87,35.87,0,0,1-.14,6,28.17,28.17,0,0,1-1.32,6.15,17.4,17.4,0,0,1-2.53,5,10.68,10.68,0,0,1-3.71,3.18A8.46,8.46,0,0,1,252.09,35.89Zm3-23.48a1.78,1.78,0,0,0-1.44.49,5.07,5.07,0,0,0-1.13,1.56,10.51,10.51,0,0,0-.79,2.26,18.82,18.82,0,0,0-.45,2.58,22.56,22.56,0,0,0-.12,3,14.77,14.77,0,0,0,.28,2.72,6.06,6.06,0,0,0,.75,2,1.71,1.71,0,0,0,1.29.86,1.66,1.66,0,0,0,1.58-.77,8.09,8.09,0,0,0,1.1-2.14,17.61,17.61,0,0,0,.71-2.66c.17-.92.29-1.69.35-2.31a20.54,20.54,0,0,0,.11-2.41,12.84,12.84,0,0,0-.24-2.4,5.62,5.62,0,0,0-.69-1.88A1.68,1.68,0,0,0,255.11,12.41Z"/><path class="cls-4" d="M288.21,15.9a10.21,10.21,0,0,1-1.9,5.08,14.75,14.75,0,0,1-4,3.71c.37.72.75,1.56,1.14,2.51a25.35,25.35,0,0,1,1,3,24.59,24.59,0,0,1,.61,3.1,12.1,12.1,0,0,1,.06,2.8,4.55,4.55,0,0,1-.91,2.35,2.4,2.4,0,0,1-2.33.84,2.77,2.77,0,0,1-2.12-1.5,14.53,14.53,0,0,1-1.37-3.2c-.36-1.22-.69-2.45-1-3.71a25.18,25.18,0,0,0-.85-3c-.53.12-1,.25-1.54.41s-1,.31-1.54.46c-.1.61-.24,1.46-.42,2.53a21.8,21.8,0,0,1-.81,3.18,9.32,9.32,0,0,1-1.37,2.67,2.25,2.25,0,0,1-2.11,1,2.47,2.47,0,0,1-2-1.37,7.62,7.62,0,0,1-.79-2.81,19.34,19.34,0,0,1,0-3.23c.09-1.08.17-1.93.23-2.55.14-1.32.31-2.62.5-3.89s.36-2.57.5-3.89.24-2.42.33-3.64.19-2.44.33-3.67l.11-1.08c0-.43.12-.88.21-1.34s.18-.9.29-1.31a2.73,2.73,0,0,1,.4-1,4.18,4.18,0,0,1,2.1-1.49,21.69,21.69,0,0,1,3.44-1.06,30.7,30.7,0,0,1,3.6-.6,14.36,14.36,0,0,1,2.59-.08,8.6,8.6,0,0,1,3.71,1.2,7.9,7.9,0,0,1,2.51,2.47,9.55,9.55,0,0,1,1.31,3.33A13.27,13.27,0,0,1,288.21,15.9Zm-7.86-.24a2.42,2.42,0,0,0-.33-1.72,2.09,2.09,0,0,0-1.58-.75,5.15,5.15,0,0,0-1.74.12,10.78,10.78,0,0,0-1.66.5c-.12,2.23-.31,4.45-.57,6.64a15.43,15.43,0,0,0,1.89-.57,8,8,0,0,0,1.83-1,6.15,6.15,0,0,0,1.45-1.38A3.76,3.76,0,0,0,280.35,15.66Z"/><path class="cls-4" d="M310.27,18.25a10.22,10.22,0,0,1-1.91,5.08,14.46,14.46,0,0,1-4,3.71,26.57,26.57,0,0,1,1.14,2.51,25.35,25.35,0,0,1,1,3,22.93,22.93,0,0,1,.61,3.1,11.6,11.6,0,0,1,.07,2.8,4.63,4.63,0,0,1-.91,2.35,2.41,2.41,0,0,1-2.33.84,2.75,2.75,0,0,1-2.12-1.5,14.07,14.07,0,0,1-1.37-3.2c-.37-1.22-.69-2.45-1-3.71a23.44,23.44,0,0,0-.85-3c-.52.12-1,.25-1.54.41s-1,.32-1.54.46c-.09.61-.23,1.46-.42,2.53a20.56,20.56,0,0,1-.8,3.18,9.33,9.33,0,0,1-1.38,2.67,2.23,2.23,0,0,1-2.1,1,2.45,2.45,0,0,1-2-1.37,7.43,7.43,0,0,1-.79-2.81A18.33,18.33,0,0,1,288,33c.09-1.08.16-1.93.23-2.55.14-1.32.31-2.62.5-3.89s.36-2.57.5-3.89.24-2.42.32-3.64.2-2.44.33-3.67l.11-1.08c.05-.43.12-.88.21-1.34s.19-.9.29-1.31a2.92,2.92,0,0,1,.4-1A4.27,4.27,0,0,1,293,9.15a23.14,23.14,0,0,1,3.44-1.06,30.52,30.52,0,0,1,3.61-.6,14.35,14.35,0,0,1,2.59-.08,8.6,8.6,0,0,1,3.71,1.2,8.11,8.11,0,0,1,2.51,2.47,9.54,9.54,0,0,1,1.3,3.33A12.93,12.93,0,0,1,310.27,18.25ZM302.4,18a2.47,2.47,0,0,0-.32-1.72,2.11,2.11,0,0,0-1.59-.75,5.19,5.19,0,0,0-1.74.12,10.33,10.33,0,0,0-1.65.5c-.13,2.23-.32,4.45-.58,6.64a15.43,15.43,0,0,0,1.89-.57,7.6,7.6,0,0,0,1.83-1,6.15,6.15,0,0,0,1.45-1.38A3.58,3.58,0,0,0,302.4,18Z"/><path class="cls-4" d="M327,13.51a2.72,2.72,0,0,1-.51,1.39,3.55,3.55,0,0,1-1.06,1,6.41,6.41,0,0,1-1.39.6,7.94,7.94,0,0,1-1.43.27c-.4,3.17-.84,6.22-1.34,9.15s-1.11,6-1.84,9.06l.25,0a5.78,5.78,0,0,1,1.31.29,3.47,3.47,0,0,1,1.13.63,2.74,2.74,0,0,1,.75,1,2.7,2.7,0,0,1-.61,2.94,5.37,5.37,0,0,1-1.73,1.05,11.8,11.8,0,0,1-2.31.61,21.41,21.41,0,0,1-2.5.26c-.83,0-1.61,0-2.35,0s-1.33-.06-1.78-.1l-1.24-.18a5.37,5.37,0,0,1-1.36-.4,3,3,0,0,1-1.05-.75,1.47,1.47,0,0,1-.35-1.19,3.49,3.49,0,0,1,.53-1.54,4.71,4.71,0,0,1,1.08-1.15,5.06,5.06,0,0,1,1.42-.74,8,8,0,0,1,1.56-.35c.36-1.52.7-3,1-4.55s.61-3.06.83-4.63.45-3.17.67-4.73.45-3.11.67-4.68h-.55l-.47,0a7,7,0,0,1-1.25-.26,4.72,4.72,0,0,1-1.22-.58A3.32,3.32,0,0,1,311,15a1.71,1.71,0,0,1-.28-1.22,2.87,2.87,0,0,1,1.45-2.23,8.85,8.85,0,0,1,3-1.13,19.34,19.34,0,0,1,3.47-.34c1.17,0,2.1,0,2.81.11.39,0,.91.13,1.55.25a9.94,9.94,0,0,1,1.88.58,5.76,5.76,0,0,1,1.56,1A1.64,1.64,0,0,1,327,13.51Z"/><path class="cls-4" d="M341.51,14.07a2.55,2.55,0,0,1-.79,1.62,5.12,5.12,0,0,1-1.59,1c-.53.25-1.09.53-1.66.82a10.17,10.17,0,0,0-1.6,1,5.43,5.43,0,0,0-1.25,1.33,3.87,3.87,0,0,0-.62,1.77,3.16,3.16,0,0,0,.25,1.65,9.91,9.91,0,0,0,.88,1.52c.36.51.76,1,1.2,1.58a11.32,11.32,0,0,1,1.18,1.79,9.78,9.78,0,0,1,.81,2.15,7.67,7.67,0,0,1,.14,2.71,7.78,7.78,0,0,1-.7,2.33A15.55,15.55,0,0,1,336.28,38a18.78,18.78,0,0,1-2.08,2.42,17.56,17.56,0,0,1-2.43,2,11.83,11.83,0,0,1-2.59,1.34,5.56,5.56,0,0,1-2.52.35,3.92,3.92,0,0,1-2.24-1,2.5,2.5,0,0,1-.78-2.26,3.65,3.65,0,0,1,.65-1.74,9,9,0,0,1,1.31-1.46,17,17,0,0,1,1.65-1.32,18.86,18.86,0,0,0,1.65-1.28,8,8,0,0,0,1.3-1.37,3.17,3.17,0,0,0,.64-1.62,4.54,4.54,0,0,0-.59-2.6c-.49-.92-1-1.87-1.64-2.86a32.51,32.51,0,0,1-1.62-3,5.6,5.6,0,0,1-.55-3,8.75,8.75,0,0,1,1.37-3.71,15.61,15.61,0,0,1,2.88-3.41,14.55,14.55,0,0,1,3.71-2.4,7.6,7.6,0,0,1,3.87-.69,3.82,3.82,0,0,1,2.44,1.15A3,3,0,0,1,341.51,14.07Z"/><path class="cls-4" d="M349.34,46.25A7.84,7.84,0,0,1,345,44.49a10.41,10.41,0,0,1-2.77-3.79,17.89,17.89,0,0,1-1.32-5.24,29.65,29.65,0,0,1,0-6.1,28.21,28.21,0,0,1,1.3-5.92,20.14,20.14,0,0,1,2.58-5.26,12.7,12.7,0,0,1,3.85-3.65,8,8,0,0,1,5.1-1,7.32,7.32,0,0,1,4.5,2,10.79,10.79,0,0,1,2.58,4.2,20.5,20.5,0,0,1,1,5.51,36.86,36.86,0,0,1-.14,5.95,29.11,29.11,0,0,1-1.32,6.15,17.66,17.66,0,0,1-2.53,5,10.66,10.66,0,0,1-3.71,3.18A8.46,8.46,0,0,1,349.34,46.25Zm3-23.48a1.84,1.84,0,0,0-1.44.49,5,5,0,0,0-1.12,1.57,10.32,10.32,0,0,0-.8,2.26,20,20,0,0,0-.44,2.57,22.71,22.71,0,0,0-.13,3,14.73,14.73,0,0,0,.29,2.72,6,6,0,0,0,.74,2,1.69,1.69,0,0,0,1.3.86,1.65,1.65,0,0,0,1.57-.77,8.41,8.41,0,0,0,1.11-2.14,16.37,16.37,0,0,0,.7-2.65q.25-1.38.36-2.31a23.29,23.29,0,0,0,.11-2.42,12.73,12.73,0,0,0-.24-2.39,5.91,5.91,0,0,0-.69-1.89A1.71,1.71,0,0,0,352.35,22.77Z"/><path class="cls-4" d="M184.78,58.5a27.94,27.94,0,0,1-3.61,11.07,33.26,33.26,0,0,1-7.48,9,31.49,31.49,0,0,1-10.14,5.71A26.66,26.66,0,0,1,152,85.55l-.13,0A2.32,2.32,0,0,1,150,84.22a10.64,10.64,0,0,1-1-2.91,22,22,0,0,1-.4-3.83c0-1.4,0-2.76,0-4.09s.13-2.5.25-3.55l.25-2.37c.16-1.52.34-3,.55-4.51s.43-3,.68-4.49q.08-.73.33-2.16c.17-1,.36-2,.58-3.21s.46-2.44.73-3.74.55-2.51.83-3.63.54-2.11.79-3a5,5,0,0,1,.75-1.71,8,8,0,0,1,3-2.32,19.18,19.18,0,0,1,4.1-1.46,26.38,26.38,0,0,1,4.4-.64,23.71,23.71,0,0,1,3.81,0,16.84,16.84,0,0,1,7.48,2.45,16.11,16.11,0,0,1,4.94,5,18.52,18.52,0,0,1,2.53,6.72A27.61,27.61,0,0,1,184.78,58.5Zm-11.43.74a9.27,9.27,0,0,0-.22-3.07,9.7,9.7,0,0,0-1.2-3,7.62,7.62,0,0,0-2.12-2.29,6.17,6.17,0,0,0-3-1.09,6.92,6.92,0,0,0-2.94.36c-.24.11-.49.5-.74,1.17a19.54,19.54,0,0,0-.7,2.46c-.22,1-.43,2-.64,3.18s-.39,2.24-.52,3.29-.26,2-.36,2.76-.18,1.34-.21,1.6l-.21,2c-.09.87-.15,1.73-.17,2.59s0,1.59,0,2.23.14,1,.36,1a6.41,6.41,0,0,0,4.15-1.14,18.6,18.6,0,0,0,4-3.47,22.42,22.42,0,0,0,3.08-4.47A11.87,11.87,0,0,0,173.35,59.24Z"/><path class="cls-4" d="M211.87,45.91a4.58,4.58,0,0,1-.81,2.21,5.5,5.5,0,0,1-1.68,1.54,9.62,9.62,0,0,1-2.2,1,10.85,10.85,0,0,1-2.28.43q-.93,7.55-2.12,14.51C202,70.2,201,75,199.87,79.91l.4,0a9.21,9.21,0,0,1,2.08.46,5.51,5.51,0,0,1,1.79,1A4.51,4.51,0,0,1,205.32,83a4,4,0,0,1,.29,2.1,4,4,0,0,1-1.26,2.57,8.22,8.22,0,0,1-2.74,1.66,18.36,18.36,0,0,1-3.65,1,38.77,38.77,0,0,1-4,.42c-1.31.06-2.55.07-3.72,0s-2.11-.09-2.82-.17c-.54-.05-1.19-.15-2-.27a8.87,8.87,0,0,1-2.16-.64,4.84,4.84,0,0,1-1.66-1.19,2.3,2.3,0,0,1-.54-1.88,5.41,5.41,0,0,1,.83-2.45,7.34,7.34,0,0,1,1.71-1.81,8.25,8.25,0,0,1,2.26-1.18,12.8,12.8,0,0,1,2.46-.55q.85-3.61,1.65-7.22T191.35,66c.36-2.53.71-5,1.06-7.49s.71-4.93,1.07-7.42h-.88c-.27,0-.52,0-.74,0a10.37,10.37,0,0,1-2-.41,7.14,7.14,0,0,1-1.93-.92,5.45,5.45,0,0,1-1.43-1.4,2.79,2.79,0,0,1-.44-1.94,4.58,4.58,0,0,1,2.3-3.54,14.32,14.32,0,0,1,4.79-1.79,30.78,30.78,0,0,1,5.5-.53,43.87,43.87,0,0,1,4.44.17c.62.07,1.44.2,2.46.4a14.4,14.4,0,0,1,3,.93A8.85,8.85,0,0,1,211,43.58,2.62,2.62,0,0,1,211.87,45.91Z"/><path class="cls-4" d="M244.9,50.57a27.62,27.62,0,0,1-1.18,5.32q-.91,2.91-2.15,5.89c-.82,2-1.67,3.91-2.57,5.77s-1.7,3.55-2.4,5c-.46.94-1,2.12-1.55,3.52s-1.24,2.87-2,4.42-1.51,3.08-2.35,4.62a28.67,28.67,0,0,1-2.67,4.07,13.52,13.52,0,0,1-3,2.83,4.75,4.75,0,0,1-3.23.87,3.91,3.91,0,0,1-2.58-1.56,16.22,16.22,0,0,1-2.12-3.5,37.76,37.76,0,0,1-1.74-4.65q-.78-2.55-1.36-5c-.39-1.62-.7-3.11-.94-4.49s-.41-2.43-.51-3.16q-.78-5.36-1.42-10.8A48.68,48.68,0,0,1,211.14,49a25.59,25.59,0,0,1,.43-2.75,8.13,8.13,0,0,1,1-2.57,5,5,0,0,1,1.71-1.81,4.2,4.2,0,0,1,2.79-.48,3.45,3.45,0,0,1,2.53,1.92,17.69,17.69,0,0,1,1.79,4.48,55.86,55.86,0,0,1,1.21,6q.49,3.3.9,6.48t.79,6a31,31,0,0,0,.87,4.45c.37-.86.89-2.12,1.59-3.78s1.5-3.48,2.41-5.46,1.88-4,2.94-6.07a56.1,56.1,0,0,1,3.23-5.6,21.4,21.4,0,0,1,3.3-4,4.13,4.13,0,0,1,3.19-1.35,3.1,3.1,0,0,1,1.81.73,3.63,3.63,0,0,1,1,1.53,7.51,7.51,0,0,1,.37,1.93A12.54,12.54,0,0,1,244.9,50.57Z"/><path class="cls-4" d="M271.44,87.53a5,5,0,0,1-.93,2.4,9.68,9.68,0,0,1-3.43,2.34,47.17,47.17,0,0,1-5.79,2.32,61.22,61.22,0,0,1-6.06,1.72,14.23,14.23,0,0,1-4.25.53,6.9,6.9,0,0,1-2.16-.67,17.9,17.9,0,0,1-2.42-1.37A13.4,13.4,0,0,1,244.26,93a6.78,6.78,0,0,1-1.32-1.83,6.49,6.49,0,0,1-.31-1.93c0-1-.07-2.06,0-3.32s.06-2.59.12-4,.13-2.76.2-4,.14-2.4.22-3.39.15-1.69.2-2.14q.26-2.48.77-5.66c.34-2.13.78-4.25,1.32-6.38a42.37,42.37,0,0,1,2-6.07,16.64,16.64,0,0,1,3-4.79,5.54,5.54,0,0,1,2-1.07,26,26,0,0,1,3.44-.91c1.31-.27,2.72-.5,4.23-.7s3-.35,4.34-.45,2.64-.17,3.77-.21a19.79,19.79,0,0,1,2.57,0,4.26,4.26,0,0,1,1.86.64,4.6,4.6,0,0,1,1.41,1.33,5.81,5.81,0,0,1,.83,1.74,5.1,5.1,0,0,1,.16,1.95,4,4,0,0,1-.39,1.44,7.64,7.64,0,0,1-.84,1.26,9.9,9.9,0,0,1-3,1.78q-2.26,1-4.9,1.87c-1.75.6-3.43,1.14-5,1.6s-2.74.79-3.39,1c-.28,1-.58,2-.9,3a30.41,30.41,0,0,0-.77,3.13,40.58,40.58,0,0,1,4.89-1.51,14.87,14.87,0,0,1,5.05-.4c3.16.33,4.58,2.06,4.24,5.18a4.46,4.46,0,0,1-.64,2,5.65,5.65,0,0,1-1.3,1.41,8,8,0,0,1-1.73,1l-1.88.78a33.16,33.16,0,0,1-4.68,1.5q-2.43.58-4.86,1.14-.18.51-.39,1.14a6,6,0,0,0-.26,1.22,13.08,13.08,0,0,0-.07,1.88c0,.64.05,1.27.07,1.9l2.66-.59q1.85-.42,3.84-.81c1.34-.26,2.62-.47,3.85-.64A12.24,12.24,0,0,1,267.3,82a4.17,4.17,0,0,1,1.83.63,4.63,4.63,0,0,1,1.35,1.29,5.76,5.76,0,0,1,.79,1.74A5,5,0,0,1,271.44,87.53Z"/><path class="cls-4" d="M309.69,66.67a16.29,16.29,0,0,1-3,8.06,23,23,0,0,1-6.37,5.87c.6,1.15,1.2,2.48,1.81,4a42.26,42.26,0,0,1,1.56,4.73,39.58,39.58,0,0,1,1,4.9,18.62,18.62,0,0,1,.1,4.44,7.29,7.29,0,0,1-1.44,3.73,3.79,3.79,0,0,1-3.69,1.33,4.41,4.41,0,0,1-3.36-2.39,22.47,22.47,0,0,1-2.17-5.06q-.87-2.9-1.53-5.87a39.53,39.53,0,0,0-1.35-4.81c-.83.18-1.64.4-2.44.65s-1.6.5-2.44.72q-.23,1.47-.66,4a34.47,34.47,0,0,1-1.28,5,14.58,14.58,0,0,1-2.18,4.22,3.53,3.53,0,0,1-3.34,1.54,3.87,3.87,0,0,1-3.21-2.17,11.85,11.85,0,0,1-1.25-4.46,28.93,28.93,0,0,1,0-5.1q.21-2.58.36-4.05c.23-2.09.49-4.15.8-6.17s.56-4.07.79-6.17q.3-2.87.51-5.75t.52-5.83l.18-1.7a21.24,21.24,0,0,1,.33-2.13c.14-.73.3-1.42.46-2.08a4.41,4.41,0,0,1,.64-1.55,6.71,6.71,0,0,1,3.32-2.35,35.55,35.55,0,0,1,5.45-1.69,49.16,49.16,0,0,1,5.71-.94,22.13,22.13,0,0,1,4.11-.14,13.58,13.58,0,0,1,5.87,1.91,12.5,12.5,0,0,1,4,3.91,14.71,14.71,0,0,1,2.07,5.29A20.44,20.44,0,0,1,309.69,66.67Zm-12.47-.38a3.86,3.86,0,0,0-.52-2.73,3.33,3.33,0,0,0-2.51-1.18,8.6,8.6,0,0,0-2.75.18,18,18,0,0,0-2.62.8q-.3,5.31-.92,10.52a21.09,21.09,0,0,0,3-.9,13.14,13.14,0,0,0,2.9-1.52,9.91,9.91,0,0,0,2.29-2.18A5.88,5.88,0,0,0,297.22,66.29Z"/><path class="cls-4" d="M342.08,59.51a4.34,4.34,0,0,1-1.63,2.9,13.48,13.48,0,0,1-3.4,2.07,22.26,22.26,0,0,1-3.95,1.3,28.48,28.48,0,0,1-3.31.6q-1.08,5.09-1.93,10.17c-.56,3.38-1,6.79-1.39,10.22q-.3,2.74-.45,5.43c-.1,1.79-.24,3.58-.43,5.36a16.93,16.93,0,0,1-.52,2.61A11,11,0,0,1,324,102.8a6.2,6.2,0,0,1-1.8,2,3.66,3.66,0,0,1-2.56.6,3.89,3.89,0,0,1-2.67-1.26,6.65,6.65,0,0,1-1.35-2.55,11.77,11.77,0,0,1-.45-3,21.35,21.35,0,0,1,.1-2.86q.28-4,.66-8.08t.79-8.12c.25-2.27.49-4.5.75-6.68s.5-4.41.74-6.68q-.94,0-1.92,0t-2-.15a15.35,15.35,0,0,1-2.09-.39,11.43,11.43,0,0,1-2.44-.87,6.29,6.29,0,0,1-1.94-1.42,2.48,2.48,0,0,1-.66-2.06,4.73,4.73,0,0,1,1.94-3.34,14.16,14.16,0,0,1,4.29-2.18,33,33,0,0,1,5.61-1.3,57.23,57.23,0,0,1,6-.57c2-.09,3.77-.11,5.42-.07s2.9.11,3.79.2,1.75.22,2.7.39a9.85,9.85,0,0,1,2.64.86,5.14,5.14,0,0,1,2,1.62A3.82,3.82,0,0,1,342.08,59.51Z"/><path class="cls-4" d="M361.7,61.87a4.64,4.64,0,0,1-.81,2.21,5.57,5.57,0,0,1-1.69,1.55,9.41,9.41,0,0,1-2.2.94,10.93,10.93,0,0,1-2.27.44q-.94,7.53-2.12,14.51t-2.92,14.35l.4,0a9.65,9.65,0,0,1,2.08.46,5.59,5.59,0,0,1,1.79,1,4.7,4.7,0,0,1,1.19,1.55,3.91,3.91,0,0,1,.28,2.09,4,4,0,0,1-1.25,2.57,8.39,8.39,0,0,1-2.75,1.67,18.87,18.87,0,0,1-3.65,1,33.64,33.64,0,0,1-4,.42c-1.31.07-2.55.08-3.72.05s-2.11-.09-2.82-.17c-.53-.06-1.19-.15-2-.28a9,9,0,0,1-2.16-.63,4.91,4.91,0,0,1-1.67-1.19,2.36,2.36,0,0,1-.54-1.89,5.49,5.49,0,0,1,.83-2.44,7,7,0,0,1,1.72-1.81,7.57,7.57,0,0,1,2.25-1.18,11.46,11.46,0,0,1,2.46-.55q.85-3.63,1.65-7.23T341.17,82c.36-2.53.71-5,1.07-7.49s.7-4.94,1.06-7.43a8.76,8.76,0,0,1-.88,0c-.27,0-.52,0-.74,0a11.35,11.35,0,0,1-2-.42,7,7,0,0,1-1.93-.91,5.38,5.38,0,0,1-1.44-1.41,2.77,2.77,0,0,1-.44-1.93,4.53,4.53,0,0,1,2.31-3.54A14,14,0,0,1,343,57a29,29,0,0,1,5.5-.53,41,41,0,0,1,4.44.17c.63.06,1.44.2,2.46.4a13.87,13.87,0,0,1,3,.92,9,9,0,0,1,2.47,1.55A2.59,2.59,0,0,1,361.7,61.87Z"/><path class="cls-4" d="M395.42,80.94A28,28,0,0,1,391.8,92a33.41,33.41,0,0,1-7.47,9,31.52,31.52,0,0,1-10.14,5.71,26.7,26.7,0,0,1-11.6,1.3h-.13a2.34,2.34,0,0,1-1.85-1.32,10.31,10.31,0,0,1-1-2.91,21.05,21.05,0,0,1-.4-3.83c0-1.39,0-2.76,0-4.08s.13-2.51.24-3.56l.25-2.37c.16-1.51.34-3,.55-4.5s.43-3,.68-4.49q.07-.73.33-2.16c.17-1,.36-2,.58-3.22s.46-2.44.74-3.74.55-2.51.82-3.63.54-2.1.79-3A4.78,4.78,0,0,1,365,63.5a8,8,0,0,1,2.95-2.32A19.05,19.05,0,0,1,372,59.73a26.28,26.28,0,0,1,4.39-.65,22.6,22.6,0,0,1,3.82,0,16.8,16.8,0,0,1,7.47,2.45,15.82,15.82,0,0,1,5,5,18.51,18.51,0,0,1,2.52,6.72A27.16,27.16,0,0,1,395.42,80.94ZM384,81.68a9.18,9.18,0,0,0-.21-3.06,10.15,10.15,0,0,0-1.21-3,7.61,7.61,0,0,0-2.12-2.29,6.24,6.24,0,0,0-3-1.09,7,7,0,0,0-2.94.36c-.24.11-.48.5-.73,1.18a17.87,17.87,0,0,0-.71,2.46c-.21,1-.43,2-.64,3.17s-.38,2.25-.52,3.29-.25,2-.36,2.77-.18,1.33-.2,1.6l-.21,2q-.15,1.31-.18,2.58c0,.86,0,1.6,0,2.23s.14,1,.37,1a6.39,6.39,0,0,0,4.14-1.15,18.36,18.36,0,0,0,4-3.46,22.36,22.36,0,0,0,3.07-4.47A11.77,11.77,0,0,0,384,81.68Z"/><path class="cls-4" d="M410.29,115.17a12.41,12.41,0,0,1-6.87-2.79,16.3,16.3,0,0,1-4.39-6,27.61,27.61,0,0,1-2.09-8.3A46.16,46.16,0,0,1,399,79a31.69,31.69,0,0,1,4.1-8.35,19.86,19.86,0,0,1,6.09-5.77,12.66,12.66,0,0,1,8.08-1.64,11.57,11.57,0,0,1,7.14,3.16,17,17,0,0,1,4.08,6.65,31.92,31.92,0,0,1,1.64,8.72,57.11,57.11,0,0,1-.23,9.44,45.39,45.39,0,0,1-2.08,9.75,28,28,0,0,1-4,7.85,17,17,0,0,1-5.88,5A13.4,13.4,0,0,1,410.29,115.17ZM415.06,78a2.82,2.82,0,0,0-2.28.77A8.12,8.12,0,0,0,411,81.22a16.88,16.88,0,0,0-1.26,3.58,31.07,31.07,0,0,0-.71,4.08,38.89,38.89,0,0,0-.2,4.71,24.13,24.13,0,0,0,.46,4.31,9.53,9.53,0,0,0,1.18,3.16,2.7,2.7,0,0,0,2,1.37,2.64,2.64,0,0,0,2.5-1.22,13.35,13.35,0,0,0,1.75-3.4,27,27,0,0,0,1.12-4.2c.27-1.46.45-2.68.56-3.66a33.44,33.44,0,0,0,.17-3.83,20.38,20.38,0,0,0-.37-3.79,9.46,9.46,0,0,0-1.1-3A2.68,2.68,0,0,0,415.06,78Z"/><path class="cls-4" d="M365.91,135.24c-60.24,50.56-114.61,44.37-163.2-17.42-1.3-1.65-1.56-3.81.28-4.82h0a2.84,2.84,0,0,1,2.92.11c49.2,31.69,101.75,37.54,157.74,16.79a2.86,2.86,0,0,1,2.86.51l.09.08C368.17,131.85,367.5,133.9,365.91,135.24Z"/><path class="cls-4" d="M361.76,122.58c15.11-5.52,17.27,1.87,12.36,16.3C375.06,127.45,371,122,361.76,122.58Z"/><path class="cls-4" d="M209.44,106.34c-13.6-8.57-17.27-1.8-15.52,13.34C195.42,108.31,200.58,103.83,209.44,106.34Z"/></g></svg>