<svg id="Camada_1" data-name="Camada 1" xmlns="http://www.w3.org/2000/svg" viewBox="0 0 622.54 367.22"><defs><style>.cls-1{font-size:94.66px;}.cls-1,.cls-2,.cls-4{fill:#fff;}.cls-1,.cls-2{font-family:Chewy-Regular, Chewy;}.cls-2{font-size:150px;}.cls-3{letter-spacing:-0.01em;}</style></defs><text class="cls-1" transform="translate(163.09 82.82)">SORRISO</text><text class="cls-2" transform="translate(0 216.33)"><tspan class="cls-3">D</tspan><tspan x="80.56" y="0">IVERTIDO</tspan></text><path class="cls-4" d="M490.13,274.92C371.23,398.43,252,397.56,132.38,274.85c-3.19-3.28-4.26-7.9-.5-10.51h0a6.22,6.22,0,0,1,6.36-.44c114,57.34,229.19,57.88,345.75,0a6.23,6.23,0,0,1,6.33.45l.2.14C494.24,267.05,493.27,271.65,490.13,274.92Z"/><path class="cls-4" d="M478.2,248.43c31.48-15.44,37.87.08,30.57,32.49C508.15,255.92,498,245,478.2,248.43Z"/><path class="cls-4" d="M144.34,248.43c-31.48-15.44-37.86.08-30.57,32.49C114.39,255.92,124.54,245,144.34,248.43Z"/></svg>