<svg id="Camada_1" data-name="Camada 1" xmlns="http://www.w3.org/2000/svg" viewBox="0 0 707.95 681.7"><defs><style>.cls-1{fill:#6f12dc;}</style></defs><path class="cls-1" d="M638.61,471.83C590.48,588.16,480.3,669.69,352.38,669.69S114.28,588.16,66.15,471.83H53.66c.22.56.43,1.13.65,1.7a341.33,341.33,0,0,0,69.33,108.34,321.84,321.84,0,0,0,102.82,73,309.32,309.32,0,0,0,251.84,0,322,322,0,0,0,102.82-73,341.12,341.12,0,0,0,69.32-108.34c.23-.57.44-1.14.66-1.7Z"/><path class="cls-1" d="M49.51,261.45C83.31,118.36,206.27,12,352.38,12S621.45,118.36,655.25,261.45H667a349.91,349.91,0,0,0-16.6-53.28A341.24,341.24,0,0,0,581.12,99.83a322.11,322.11,0,0,0-102.82-73,309.32,309.32,0,0,0-251.84,0,322,322,0,0,0-102.82,73A341.44,341.44,0,0,0,54.31,208.17a351,351,0,0,0-16.59,53.28Z"/><path class="cls-1" d="M87.66,350.89a70.48,70.48,0,0,1-3.85,28.4,91.32,91.32,0,0,1-14.36,25.19,88.55,88.55,0,0,1-22.31,18.74c-7.87,4.56-18.65,8.31-27.92,9.07l-.34,0a5.91,5.91,0,0,1-5.25-2.18,25.23,25.23,0,0,1-4-6.45,50.78,50.78,0,0,1-3-9c-.83-3.34-1.53-6.62-2.11-9.82s-1-6.08-1.3-8.65-.5-4.51-.64-5.83q-.62-5.56-1.06-11.09c-.29-3.67-.42-7.51-.7-11.13-.09-1.17-.25-3-.33-5.36s-.18-5-.27-8S0,348.74,0,345.48s0-6.32.14-9.15.23-5.34.41-7.52a11.39,11.39,0,0,1,1-4.5,20.06,20.06,0,0,1,6.28-7.15,51.67,51.67,0,0,1,9.73-5.67,71.76,71.76,0,0,1,10.91-3.84,63.13,63.13,0,0,1,9.8-1.87q11.55-1.12,20.4,2.15a40.6,40.6,0,0,1,15.09,9.6,44.44,44.44,0,0,1,9.68,15A66.65,66.65,0,0,1,87.66,350.89Zm-28.53,7.29a21.27,21.27,0,0,0-2.06-7.26,24.32,24.32,0,0,0-4.52-6.55A19.41,19.41,0,0,0,46,339.93,16.55,16.55,0,0,0,38,338.8a18.93,18.93,0,0,0-7.28,2.38c-.55.39-1,1.46-1.25,3.2a44.33,44.33,0,0,0-.51,6.27c0,2.43,0,5.09,0,8s.19,5.59.4,8.17.37,4.86.51,6.83.25,3.29.32,3.95c.11,1.09.27,2.71.49,4.84s.51,4.24.9,6.3.76,3.85,1.14,5.36.85,2.23,1.42,2.18a16.79,16.79,0,0,0,9.75-4.87,46.92,46.92,0,0,0,8.22-10.32,54.91,54.91,0,0,0,5.5-12.28A28.44,28.44,0,0,0,59.13,358.18Z"/><path class="cls-1" d="M149.28,308.53a10.56,10.56,0,0,1-1.13,5.69,13.89,13.89,0,0,1-3.65,4.45,24.68,24.68,0,0,1-5.21,3.23,30.44,30.44,0,0,1-5.63,2c.5,12,1,24.1,1,36s-.45,24-1,36l1-.07A24.27,24.27,0,0,1,140,396a13.82,13.82,0,0,1,4.89,1.66,11.21,11.21,0,0,1,3.63,3.23,9.5,9.5,0,0,1,1.59,4.95,9.68,9.68,0,0,1-2,6.74,20.6,20.6,0,0,1-6.1,5.2,47.77,47.77,0,0,1-8.64,3.9,89.62,89.62,0,0,1-9.63,2.76q-4.83,1.09-9.18,1.76c-2.91.44-5.26.74-7,.88-1.35.1-3,.18-5,.23a23.59,23.59,0,0,1-5.64-.54,12.26,12.26,0,0,1-4.66-2.1A5.66,5.66,0,0,1,90,420.42a13,13,0,0,1,.92-6.28A17.46,17.46,0,0,1,94.3,409a19.91,19.91,0,0,1,5.06-3.89,30.33,30.33,0,0,1,5.86-2.45q.48-9.15.81-18.19t0-18.29q-.39-9.4-.75-18.57c-.23-6.1-.48-12.23-.71-18.4-.81.18-1.55.32-2.24.43s-1.33.18-1.91.23a30,30,0,0,1-5.24-.09,18.8,18.8,0,0,1-5.35-1.3,14.22,14.22,0,0,1-4.33-2.71,6.63,6.63,0,0,1-2-4.47,11,11,0,0,1,4.21-9.62,37.18,37.18,0,0,1,11.44-6.54A78.89,78.89,0,0,1,113,301.33a115.13,115.13,0,0,1,11.51-1.58q2.45-.17,6.5-.12a40.22,40.22,0,0,1,8.07.95,24.11,24.11,0,0,1,7,2.69A6.24,6.24,0,0,1,149.28,308.53Z"/><path class="cls-1" d="M234.29,307.11a65,65,0,0,1-1.08,13.34q-1.29,7.4-3.35,15.07t-4.43,15c-1.59,4.85-3,9.28-4.2,13.13-.79,2.44-1.69,5.5-2.63,9.11s-2,7.44-3.27,11.46-2.64,8.05-4.16,12.08a72.49,72.49,0,0,1-5.11,10.89,32.94,32.94,0,0,1-6.32,8,12.19,12.19,0,0,1-7.7,3.36,9.92,9.92,0,0,1-7-2.77,39.34,39.34,0,0,1-6.7-7.65,93.78,93.78,0,0,1-6.21-10.56q-3-5.86-5.45-11.5c-1.65-3.76-3.05-7.27-4.22-10.5s-2-5.72-2.6-7.45q-4.22-12.65-8.14-25.54a114.13,114.13,0,0,1-4.78-26.07,67.65,67.65,0,0,1-.08-6.86,19.56,19.56,0,0,1,1.33-6.62,12.68,12.68,0,0,1,3.64-5.1,11.61,11.61,0,0,1,7-2.33c2.57-.15,5,1.06,7.33,3.62a42.23,42.23,0,0,1,6.45,10.14,128.14,128.14,0,0,1,5.58,14.07q2.59,7.78,4.91,15.36t4.37,14.15a76.56,76.56,0,0,0,4,10.45q.87-3.34,2.53-9.79t4-14.16q2.31-7.71,5.16-15.86a131.45,131.45,0,0,1,6.14-14.82,52.55,52.55,0,0,1,7-10.95q3.67-4.29,7.72-4.45a8.6,8.6,0,0,1,5,1.13,9,9,0,0,1,3.11,3.35,17.4,17.4,0,0,1,1.65,4.57A27,27,0,0,1,234.29,307.11Z"/><path class="cls-1" d="M312.4,388.54a12,12,0,0,1-1.62,6.12c-1.07,1.88-3.74,4.13-7.89,6.72a128.55,128.55,0,0,1-13.76,7.44q-7.54,3.53-14.58,6.11t-10.4,2.67a18.16,18.16,0,0,1-5.6-.91,46.36,46.36,0,0,1-6.51-2.52,33.59,33.59,0,0,1-6-3.6,16.94,16.94,0,0,1-4-4A15.51,15.51,0,0,1,240.7,402q-.72-3.44-1.31-8t-1.12-9.79q-.54-5.18-1-9.87c-.29-3.13-.5-5.9-.65-8.32s-.24-4.17-.28-5.27q-.23-6.1-.08-14t1.07-16a96.79,96.79,0,0,1,3-15.46,39.12,39.12,0,0,1,6-12.67,13.86,13.86,0,0,1,4.8-3.3,69.48,69.48,0,0,1,8.58-3.39q4.95-1.63,10.71-3.1t11.09-2.49c3.55-.68,6.8-1.25,9.72-1.69a53.1,53.1,0,0,1,6.66-.69,12,12,0,0,1,5,1,12.31,12.31,0,0,1,4.08,2.82,14.55,14.55,0,0,1,2.69,4,11.73,11.73,0,0,1,1,4.69,9.61,9.61,0,0,1-.56,3.64,15.85,15.85,0,0,1-1.79,3.32c-1,1.43-3.57,3.19-7.25,5.23s-7.7,4.07-12,6.08-8.45,3.83-12.41,5.47-7.8,2.81-8.34,3.51c-.81,1.06-.82,5.11-1.27,7.71a71.26,71.26,0,0,0-.91,7.87,100,100,0,0,1,12-5.26,39,39,0,0,1,12.76-2.58q12.29-.24,12.47,11.33a10.47,10.47,0,0,1-1,5,13.75,13.75,0,0,1-2.86,3.84,20.32,20.32,0,0,1-4.08,3c-1.53.86-3,1.69-4.51,2.48a90.3,90.3,0,0,1-11.4,5.12q-6,2.2-11.89,4.34c-.21.89-.41,1.86-.61,2.91a14.07,14.07,0,0,0-.26,3.06,31.19,31.19,0,0,0,.47,4.61c.27,1.53.53,3.06.81,4.6l6.51-2.32q4.47-1.59,9.4-3.19t9.52-2.75a33.26,33.26,0,0,1,6.81-1.2,10.87,10.87,0,0,1,4.81,1,11.79,11.79,0,0,1,3.8,2.75,13.81,13.81,0,0,1,2.53,4A12.31,12.31,0,0,1,312.4,388.54Z"/><path class="cls-1" d="M402.35,327.73a38.77,38.77,0,0,1-5.83,20.38A58.68,58.68,0,0,1,381.72,364a102.54,102.54,0,0,1,5.57,9.29,95.19,95.19,0,0,1,5.09,11.2A93.17,93.17,0,0,1,396,396.22a45,45,0,0,1,1.3,10.82,17.64,17.64,0,0,1-2.75,9.46q-2.67,4.17-8.9,4.11-5.24-.06-9-5a56,56,0,0,1-6.69-11.84q-2.94-6.87-5.38-14a88.79,88.79,0,0,0-4.66-11.4c-2,.65-4,1.39-6,2.22s-3.93,1.63-6,2.4c-.11,2.42-.31,5.75-.58,10a79.8,79.8,0,0,1-1.84,12.63,35.66,35.66,0,0,1-4.27,10.91,8.92,8.92,0,0,1-7.91,4.66,9.83,9.83,0,0,1-8.64-4.38,29.25,29.25,0,0,1-4.41-10.52,70.43,70.43,0,0,1-1.58-12.45c-.16-4.23-.26-7.56-.28-10q-.09-7.75.17-15.27t.18-15.27c-.06-4.73-.19-9.46-.42-14.19s-.36-9.51-.42-14.35c0-1.1,0-2.5,0-4.21s0-3.46.2-5.28.34-3.56.55-5.21a11,11,0,0,1,1.18-4q1.71-3.48,7.9-6.68a92.34,92.34,0,0,1,13.64-5.61A127.45,127.45,0,0,1,355.93,290a59.57,59.57,0,0,1,10.63-1.37,37.15,37.15,0,0,1,15.79,3.23,32.2,32.2,0,0,1,11.3,8.62,35.79,35.79,0,0,1,6.65,12.46A47.74,47.74,0,0,1,402.35,327.73Zm-32.13,2c0-2.86-.67-5-2.05-6.53s-3.64-2.25-6.77-2.25a22.69,22.69,0,0,0-7,1.14,45.5,45.5,0,0,0-6.51,2.65q.71,13,.56,25.91a58.43,58.43,0,0,0,7.41-3,33.92,33.92,0,0,0,7-4.45,25.06,25.06,0,0,0,5.3-5.92A14,14,0,0,0,370.22,329.72Z"/><path class="cls-1" d="M482.81,304a10.41,10.41,0,0,1-3.7,7.37A34.92,34.92,0,0,1,470.7,317a62.09,62.09,0,0,1-10,3.86,77.08,77.08,0,0,1-8.42,2.05q-1.79,12.66-2.92,25.26t-1.52,25.3q-.21,6.76-.05,13.37t-.05,13.21a39.31,39.31,0,0,1-.79,6.49,26.53,26.53,0,0,1-2.22,6.63,15,15,0,0,1-4.12,5.16,9.3,9.3,0,0,1-6.3,2,10,10,0,0,1-6.94-2.56,16.22,16.22,0,0,1-3.92-5.95,28.66,28.66,0,0,1-1.79-7.38,60.46,60.46,0,0,1-.36-7c0-6.49-.12-13.23-.09-19.89s.11-13.34.25-20.05q.16-8.42.43-16.5c.17-5.38.31-10.89.43-16.5-1.63.19-3.28.32-5,.4s-3.39.1-5.13.07a49.72,49.72,0,0,1-5.46-.51,32.48,32.48,0,0,1-6.5-1.58,16.84,16.84,0,0,1-5.35-3.05,6,6,0,0,1-2.2-4.89,11.36,11.36,0,0,1,4.21-8.62A37.08,37.08,0,0,1,407.53,300a88.65,88.65,0,0,1,14.28-4.35,151.59,151.59,0,0,1,15.5-2.62q7.65-.87,14.08-1.18t9.93-.18c2.23.07,4.59.23,7.1.48a27.19,27.19,0,0,1,7.06,1.66,13.61,13.61,0,0,1,5.39,3.67A9,9,0,0,1,482.81,304Z"/><path class="cls-1" d="M532.38,307a10.62,10.62,0,0,1-1.79,5.52,13.87,13.87,0,0,1-4.14,4,25.69,25.69,0,0,1-5.55,2.6,31.1,31.1,0,0,1-5.83,1.36c-.91,12-1.87,24-3.24,35.86s-3.25,23.74-5.25,35.6l1,.05a25.2,25.2,0,0,1,5.33.84A13.94,13.94,0,0,1,517.6,395a11.06,11.06,0,0,1,3.22,3.64,9.37,9.37,0,0,1,1,5.09,9.74,9.74,0,0,1-2.81,6.46,20.43,20.43,0,0,1-6.67,4.45,47.72,47.72,0,0,1-9,2.87,92.52,92.52,0,0,1-9.89,1.61q-4.92.53-9.32.68c-2.94.1-5.3.11-7.1,0-1.35-.05-3-.17-5-.35a22.73,22.73,0,0,1-5.53-1.19,12.28,12.28,0,0,1-4.39-2.63,5.68,5.68,0,0,1-1.71-4.52,13.07,13.07,0,0,1,1.65-6.14,17.43,17.43,0,0,1,4-4.73,20,20,0,0,1,5.47-3.27,30.25,30.25,0,0,1,6.11-1.75q1.53-9,2.92-18t2.1-18.17q.72-9.37,1.43-18.52t1.44-18.36c-.82.08-1.58.13-2.27.15s-1.34,0-1.92,0a29.91,29.91,0,0,1-5.2-.69,18.55,18.55,0,0,1-5.15-1.93,14.12,14.12,0,0,1-4-3.19,6.59,6.59,0,0,1-1.5-4.68,11,11,0,0,1,5.3-9.06,37.29,37.29,0,0,1,12.12-5.16,79.91,79.91,0,0,1,14.22-2.14,114.65,114.65,0,0,1,11.6-.21q2.46.12,6.48.64a39.15,39.15,0,0,1,7.9,1.89,23.43,23.43,0,0,1,6.66,3.49A6.21,6.21,0,0,1,532.38,307Z"/><path class="cls-1" d="M619.87,350.85a70.39,70.39,0,0,1-8.46,27.38,91.35,91.35,0,0,1-18.3,22.5,88.68,88.68,0,0,1-25.06,14.83c-8.51,3.2-19.75,5.14-29,4.37l-.34,0a5.91,5.91,0,0,1-4.82-3,25.66,25.66,0,0,1-2.91-7,51.05,51.05,0,0,1-1.52-9.34c-.27-3.43-.42-6.78-.47-10s0-6.17.13-8.75.25-4.53.33-5.85c.2-3.74.46-7.44.78-11.12s.81-7.47,1.12-11.09c.11-1.17.26-3,.56-5.34s.65-5,1-8,.86-6,1.39-9.26,1.07-6.23,1.63-9,1.11-5.23,1.64-7.35a11.06,11.06,0,0,1,1.73-4.28,20,20,0,0,1,7.36-6,50.81,50.81,0,0,1,10.51-4,71.5,71.5,0,0,1,11.39-2,63.94,63.94,0,0,1,10-.24q11.57.79,19.76,5.47a40.66,40.66,0,0,1,13.32,11.95,44.39,44.39,0,0,1,7.08,16.38A66.88,66.88,0,0,1,619.87,350.85Zm-29.34,2.52a21.41,21.41,0,0,0-.84-7.51,24,24,0,0,0-3.39-7.2,19.37,19.37,0,0,0-5.7-5.45,16.54,16.54,0,0,0-7.77-2.43,18.58,18.58,0,0,0-7.56,1.15c-.61.29-1.19,1.28-1.76,2.95A44.61,44.61,0,0,0,562,341q-.66,3.6-1.28,7.85c-.41,2.84-.73,5.56-1,8.13s-.43,4.85-.61,6.82-.3,3.29-.34,4c-.07,1.1-.17,2.72-.31,4.86s-.19,4.26-.15,6.36.12,3.92.25,5.47.48,2.35,1,2.38a16.64,16.64,0,0,0,10.4-3.2,47,47,0,0,0,9.8-8.83,55.45,55.45,0,0,0,7.44-11.22A28.55,28.55,0,0,0,590.53,353.37Z"/><path class="cls-1" d="M657.67,434.27a32,32,0,0,1-17.37-6.69A41,41,0,0,1,628.93,413a67.39,67.39,0,0,1-5.78-20.29,109.3,109.3,0,0,1-.5-23.73,105.63,105.63,0,0,1,4.63-23.13,75,75,0,0,1,10.07-20.67,49.24,49.24,0,0,1,15.51-14.35q9.12-5.29,21-4.14,11.55,1.13,18.72,7.78a41.57,41.57,0,0,1,10.76,16.4,75.15,75.15,0,0,1,4.32,21.47,135.82,135.82,0,0,1-.55,23.19,108,108,0,0,1-5.31,23.9,68.15,68.15,0,0,1-10.14,19.24,42.63,42.63,0,0,1-14.76,12.39A34.76,34.76,0,0,1,657.67,434.27Zm10.94-91.46a7.51,7.51,0,0,0-5.86,1.92,19.78,19.78,0,0,0-4.5,6.12,40.29,40.29,0,0,0-3.09,8.83,73.7,73.7,0,0,0-1.63,10,87.5,87.5,0,0,0-.31,11.57,56.76,56.76,0,0,0,1.33,10.57,23.19,23.19,0,0,0,3.12,7.76,7,7,0,0,0,5.25,3.32,6.74,6.74,0,0,0,6.3-3,31.39,31.39,0,0,0,4.36-8.36,64.4,64.4,0,0,0,2.77-10.34c.64-3.58,1.09-6.58,1.34-9a79.47,79.47,0,0,0,.34-9.42A47.59,47.59,0,0,0,677,353.5a22.15,22.15,0,0,0-2.93-7.34A7,7,0,0,0,668.61,342.81Z"/><path class="cls-1" d="M224.22,179.92a5.06,5.06,0,0,1-.87,3.73,13,13,0,0,1-2.94,3c-1,.78-2.13,1.69-3.22,2.62a22.56,22.56,0,0,0-2.95,3,12,12,0,0,0-2,3.44,7.54,7.54,0,0,0-.32,3.94,6.27,6.27,0,0,0,1.5,3.19,19.77,19.77,0,0,0,2.78,2.57c1.06.83,2.22,1.66,3.48,2.52a22.81,22.81,0,0,1,3.52,3,19.74,19.74,0,0,1,2.93,3.92,15.34,15.34,0,0,1,1.55,10.55,33.77,33.77,0,0,1-1.73,6,42,42,0,0,1-3,6.07,40.85,40.85,0,0,1-3.89,5.47,25.25,25.25,0,0,1-4.55,4.21,12.3,12.3,0,0,1-4.92,2.19,8.58,8.58,0,0,1-5.15-.59,5.22,5.22,0,0,1-3-4.07,7.51,7.51,0,0,1,.28-3.91,18.68,18.68,0,0,1,1.81-3.75,32.92,32.92,0,0,1,2.64-3.66c1-1.2,1.89-2.39,2.68-3.56a18.6,18.6,0,0,0,1.91-3.55,6.62,6.62,0,0,0,.41-3.64,9.3,9.3,0,0,0-2.8-4.91c-1.57-1.56-3.31-3.16-5.2-4.78a71,71,0,0,1-5.31-5.05,11.37,11.37,0,0,1-3.06-5.69,17.39,17.39,0,0,1,.69-8.35A31.76,31.76,0,0,1,206.65,178a18.38,18.38,0,0,1,8.27-3.7,9.39,9.39,0,0,1,6.13.95A6,6,0,0,1,224.22,179.92Z"/><path class="cls-1" d="M257.33,241.68a17.14,17.14,0,0,1-9.81-1.54,22.51,22.51,0,0,1-7.65-6.36,36.85,36.85,0,0,1-5.48-10,58.79,58.79,0,0,1-3.15-12.43,55.13,55.13,0,0,1-.35-12.75,39,39,0,0,1,2.91-12.12,26.48,26.48,0,0,1,6.7-9.43,19.24,19.24,0,0,1,11-4.64,17.51,17.51,0,0,1,11.09,2,22.32,22.32,0,0,1,7.65,7.51,39.47,39.47,0,0,1,4.64,10.92A71.78,71.78,0,0,1,277,205.19a58.58,58.58,0,0,1-.3,13.23,37.88,37.88,0,0,1-3.31,11.27,23.35,23.35,0,0,1-6.4,8.15A18.44,18.44,0,0,1,257.33,241.68Zm-4.59-49.58a4.18,4.18,0,0,0-2.93,1.69,10.46,10.46,0,0,0-1.71,3.76,20.92,20.92,0,0,0-.63,5,38.91,38.91,0,0,0,.29,5.5,46.49,46.49,0,0,0,1.18,6.14,31.23,31.23,0,0,0,1.92,5.43,12.67,12.67,0,0,0,2.54,3.74,3.76,3.76,0,0,0,3.14,1.16,3.64,3.64,0,0,0,3-2.31,17.37,17.37,0,0,0,1.38-4.9,34.55,34.55,0,0,0,.31-5.78c0-2-.14-3.6-.28-4.9a41,41,0,0,0-.87-5,24.46,24.46,0,0,0-1.61-4.81,11.88,11.88,0,0,0-2.4-3.55A3.89,3.89,0,0,0,252.74,192.1Z"/><path class="cls-1" d="M327.64,187a20.91,20.91,0,0,1-2.79,11.13,32.62,32.62,0,0,1-7.71,8.88,55.4,55.4,0,0,1,3.23,4.89,50,50,0,0,1,3,5.94,48.19,48.19,0,0,1,2.17,6.28,25,25,0,0,1,.92,5.82,9.68,9.68,0,0,1-1.28,5.16,5.12,5.12,0,0,1-4.65,2.41,5.92,5.92,0,0,1-4.89-2.51,30.61,30.61,0,0,1-3.87-6.22c-1.16-2.42-2.25-4.89-3.25-7.4a46.48,46.48,0,0,0-2.82-6c-1.09.41-2.15.87-3.16,1.37s-2.07,1-3.15,1.47c0,1.31,0,3.11,0,5.41a44.27,44.27,0,0,1-.6,6.87,19.36,19.36,0,0,1-1.94,6,4.73,4.73,0,0,1-4,2.76,5.21,5.21,0,0,1-4.74-2.07,15.86,15.86,0,0,1-2.73-5.52A38.91,38.91,0,0,1,284,225c-.24-2.28-.41-4.07-.51-5.38q-.33-4.17-.46-8.24t-.46-8.24c-.2-2.55-.44-5.09-.74-7.64s-.54-5.11-.75-7.72c0-.59-.1-1.35-.18-2.27s-.09-1.87-.07-2.86,0-1.93.11-2.83a5.78,5.78,0,0,1,.51-2.18q.82-2,4.15-3.89a50.27,50.27,0,0,1,7.4-3.49,67.93,67.93,0,0,1,8-2.51,33,33,0,0,1,5.89-1,21.06,21.06,0,0,1,8.88,1.34,17.66,17.66,0,0,1,6.49,4.4,19.1,19.1,0,0,1,3.94,6.59A25.32,25.32,0,0,1,327.64,187ZM310,188.78a4.86,4.86,0,0,0-1.3-3.47,4.93,4.93,0,0,0-3.79-1,12.36,12.36,0,0,0-3.85.82,26.77,26.77,0,0,0-3.52,1.62q.79,7,1.1,14a32.12,32.12,0,0,0,4-1.83,19.26,19.26,0,0,0,3.71-2.59,13.9,13.9,0,0,0,2.74-3.34A7.5,7.5,0,0,0,310,188.78Z"/><path class="cls-1" d="M377.64,187.49a20.79,20.79,0,0,1-3.48,10.93,32.51,32.51,0,0,1-8.25,8.39,53.56,53.56,0,0,1,2.92,5.08,50.81,50.81,0,0,1,2.62,6.11,48.61,48.61,0,0,1,1.78,6.4,24.41,24.41,0,0,1,.55,5.87,9.56,9.56,0,0,1-1.59,5.07c-1,1.49-2.58,2.19-4.79,2.12a6,6,0,0,1-4.73-2.81,31,31,0,0,1-3.47-6.45q-1.51-3.73-2.79-7.59a46.42,46.42,0,0,0-2.44-6.19q-1.67.51-3.24,1.17c-1.05.44-2.13.86-3.23,1.27-.07,1.31-.18,3.11-.34,5.4a45.3,45.3,0,0,1-1,6.82,19.42,19.42,0,0,1-2.3,5.89,4.76,4.76,0,0,1-4.21,2.51,5.24,5.24,0,0,1-4.6-2.37,16,16,0,0,1-2.38-5.67,38.62,38.62,0,0,1-.88-6.73c-.1-2.28-.16-4.08-.18-5.39-.05-2.79,0-5.55.05-8.25s.1-5.46.06-8.26c-.05-2.55-.13-5.11-.27-7.66s-.23-5.15-.27-7.76c0-.6,0-1.35,0-2.28s0-1.87.1-2.85.18-1.93.3-2.82a5.58,5.58,0,0,1,.64-2.15c.63-1.26,2.08-2.47,4.38-3.62a51,51,0,0,1,7.6-3,68.78,68.78,0,0,1,8.13-2,33.62,33.62,0,0,1,5.94-.68,21.05,21.05,0,0,1,8.78,1.89,17.62,17.62,0,0,1,6.2,4.79,18.92,18.92,0,0,1,3.53,6.83A25.14,25.14,0,0,1,377.64,187.49Zm-17.71.71a4.93,4.93,0,0,0-1.08-3.55,5,5,0,0,0-3.72-1.26,12.64,12.64,0,0,0-3.9.58,25.48,25.48,0,0,0-3.6,1.41q.35,7.05.22,14a33.38,33.38,0,0,0,4.06-1.57,19.22,19.22,0,0,0,3.86-2.37,13.69,13.69,0,0,0,2.94-3.16A7.51,7.51,0,0,0,359.93,188.2Z"/><path class="cls-1" d="M415.18,176.22a5.65,5.65,0,0,1-1.08,2.95,7.65,7.65,0,0,1-2.36,2.08,13.71,13.71,0,0,1-3.11,1.31,17.7,17.7,0,0,1-3.24.65q-1,10-2.26,19.33t-3.31,19.17l.54,0a13.11,13.11,0,0,1,2.86.52,7.56,7.56,0,0,1,2.48,1.27,5.94,5.94,0,0,1,1.67,2,5,5,0,0,1,.46,2.77,5.29,5.29,0,0,1-1.6,3.45,11.31,11.31,0,0,1-3.64,2.31,26.06,26.06,0,0,1-4.85,1.43,51,51,0,0,1-5.29.76c-1.75.16-3.41.25-5,.28s-2.82,0-3.78,0c-.72,0-1.6-.12-2.64-.23a12,12,0,0,1-2.94-.67,6.56,6.56,0,0,1-2.33-1.44,3.09,3.09,0,0,1-.89-2.45,7,7,0,0,1,.91-3.31,9.44,9.44,0,0,1,2.15-2.54,10.83,10.83,0,0,1,3-1.74,16.27,16.27,0,0,1,3.29-.91q.89-4.86,1.71-9.69c.54-3.21,1-6.48,1.27-9.8s.62-6.71.93-10,.61-6.59.92-9.91l-1.25.06c-.39,0-.74,0-1.06,0a16.38,16.38,0,0,1-2.87-.41,10.67,10.67,0,0,1-2.84-1.07,8.16,8.16,0,0,1-2.19-1.75,3.53,3.53,0,0,1-.81-2.53,5.91,5.91,0,0,1,3-4.88,20.86,20.86,0,0,1,6.77-2.7,44.13,44.13,0,0,1,8-1,61.18,61.18,0,0,1,6.47,0c.91.06,2.11.21,3.6.44a22.41,22.41,0,0,1,4.38,1.14,13.29,13.29,0,0,1,3.66,2A3.36,3.36,0,0,1,415.18,176.22Z"/><path class="cls-1" d="M448.45,177.72a5,5,0,0,1-1.85,3.36,12.77,12.77,0,0,1-3.63,2.07c-1.21.47-2.5,1.06-3.8,1.65a22,22,0,0,0-3.64,2.1,12.07,12.07,0,0,0-2.83,2.78,7.67,7.67,0,0,0-1.37,3.71,6.29,6.29,0,0,0,.58,3.47,20.07,20.07,0,0,0,2,3.23q1.2,1.62,2.66,3.36a23.2,23.2,0,0,1,2.59,3.81,19.45,19.45,0,0,1,1.75,4.57,15.57,15.57,0,0,1,.24,5.69,15.93,15.93,0,0,1-1.59,4.89,33.51,33.51,0,0,1-3.29,5.3,41.29,41.29,0,0,1-9.71,9.26,25.19,25.19,0,0,1-5.5,2.83,12.44,12.44,0,0,1-5.31.78,8.55,8.55,0,0,1-4.79-2,5.24,5.24,0,0,1-1.76-4.72,7.55,7.55,0,0,1,1.32-3.7,19.35,19.35,0,0,1,2.75-3.11,31.65,31.65,0,0,1,3.52-2.81q1.92-1.35,3.53-2.71a19,19,0,0,0,2.8-2.9,6.7,6.7,0,0,0,1.37-3.4,9.34,9.34,0,0,0-1.36-5.48c-1.09-1.93-2.33-3.93-3.7-6a68.13,68.13,0,0,1-3.74-6.3,11.36,11.36,0,0,1-1.4-6.3,17.25,17.25,0,0,1,2.91-7.85,31.77,31.77,0,0,1,14.89-12.2,18.26,18.26,0,0,1,9-1.33,9.31,9.31,0,0,1,5.63,2.57A6,6,0,0,1,448.45,177.72Z"/><path class="cls-1" d="M463.65,246.13a17.07,17.07,0,0,1-9-4.14A22.33,22.33,0,0,1,449,233.8a37,37,0,0,1-2.57-11.1,59.69,59.69,0,0,1,.32-12.83,55.87,55.87,0,0,1,3.11-12.36,38.92,38.92,0,0,1,6.08-10.88,26.33,26.33,0,0,1,9-7.27,19.24,19.24,0,0,1,11.84-1.5,17.57,17.57,0,0,1,10.16,4.92,22.37,22.37,0,0,1,5.36,9.31,39.61,39.61,0,0,1,1.52,11.76,71.94,71.94,0,0,1-1.26,12.48A58.54,58.54,0,0,1,488.64,229a37.45,37.45,0,0,1-6.24,10,23.56,23.56,0,0,1-8.38,6.12A18.59,18.59,0,0,1,463.65,246.13Zm9-49a4.21,4.21,0,0,0-3.29.83,10.58,10.58,0,0,0-2.67,3.15,21.84,21.84,0,0,0-2,4.66,37.87,37.87,0,0,0-1.2,5.37,46.35,46.35,0,0,0-.53,6.24,30.29,30.29,0,0,0,.39,5.74,12.64,12.64,0,0,0,1.43,4.29,3.8,3.8,0,0,0,2.72,2A3.67,3.67,0,0,0,471,228a17.11,17.11,0,0,0,2.65-4.35,35.23,35.23,0,0,0,1.87-5.47q.72-2.86,1.05-4.8a41.36,41.36,0,0,0,.52-5.07,25.17,25.17,0,0,0-.25-5.06,11.83,11.83,0,0,0-1.36-4.07A3.86,3.86,0,0,0,472.64,197.16Z"/><path class="cls-1" d="M533.09,485.8c-126.28,131.19-253,130.27-380-.07-3.4-3.48-4.53-8.39-.53-11.17h0a6.63,6.63,0,0,1,6.75-.46c121,60.9,243.43,61.48,367.23,0a6.61,6.61,0,0,1,6.73.48l.21.15C537.46,477.44,536.43,482.34,533.09,485.8Z"/><path class="cls-1" d="M508.14,457c36.36-12,48.06,6.39,43.85,44.44a3.61,3.61,0,0,1-7.13.38q-7.64-34.27-36-37.8A3.61,3.61,0,0,1,508.14,457Z"/><path class="cls-1" d="M178,462c-30.51-9.92-40.46,5.53-37.07,37.44a3.19,3.19,0,0,0,6.26.45q6.54-28.54,30.2-31.71A3.18,3.18,0,0,0,178,462Z"/></svg>