<svg id="Camada_1" data-name="Camada 1" xmlns="http://www.w3.org/2000/svg" viewBox="0 0 622.54 367.22"><defs><style>.cls-1{fill:#6f12dc;}</style></defs><path class="cls-1" d="M196.09,17.93a5.54,5.54,0,0,1-1.34,3.7,11.31,11.31,0,0,1-3.19,2.59c-1.11.68-2.25,1.4-3.42,2.17A21.44,21.44,0,0,0,184.91,29a12.71,12.71,0,0,0-2.41,3.19,8.45,8.45,0,0,0-.92,4,6.87,6.87,0,0,0,.92,3.52,20.85,20.85,0,0,0,2.27,3.09q1.33,1.53,3,3.15a24.31,24.31,0,0,1,3,3.6A21.14,21.14,0,0,1,193,54a17,17,0,0,1,.92,5.83,16.62,16.62,0,0,1-1,5.22,33.16,33.16,0,0,1-2.63,5.87,40.53,40.53,0,0,1-3.93,5.73,38.33,38.33,0,0,1-4.81,5,24.78,24.78,0,0,1-5.31,3.51,12.36,12.36,0,0,1-5.36,1.34,8.58,8.58,0,0,1-5.09-1.57,5.4,5.4,0,0,1-2.22-4.72,7.89,7.89,0,0,1,1-3.93,20,20,0,0,1,2.5-3.46,35.94,35.94,0,0,1,3.28-3.24,45.09,45.09,0,0,0,3.28-3.14,18.88,18.88,0,0,0,2.5-3.28,7.1,7.1,0,0,0,1-3.65,9.88,9.88,0,0,0-1.89-5.5q-1.91-2.82-4.21-5.83a65.48,65.48,0,0,1-4.2-6.14,12.19,12.19,0,0,1-1.9-6.38,19.21,19.21,0,0,1,2.13-8.37,33.64,33.64,0,0,1,5.45-8,31.36,31.36,0,0,1,7.49-6,16.27,16.27,0,0,1,8.23-2.41,8.36,8.36,0,0,1,5.54,1.94A6.53,6.53,0,0,1,196.09,17.93Z"/><path class="cls-1" d="M220.5,85.88a17.11,17.11,0,0,1-9.8-2.82,22.45,22.45,0,0,1-6.89-7.58,38.29,38.29,0,0,1-4.07-11,63.52,63.52,0,0,1-1.34-13.22,62,62,0,0,1,1.44-13.13,43.37,43.37,0,0,1,4.39-12,27.3,27.3,0,0,1,7.48-8.78,17.45,17.45,0,0,1,10.82-3.42,15.83,15.83,0,0,1,10.21,3.28,23.29,23.29,0,0,1,6.57,8.5,44.51,44.51,0,0,1,3.51,11.69,79.66,79.66,0,0,1,1.06,12.95,62.82,62.82,0,0,1-1.43,13.63,38.35,38.35,0,0,1-4.34,11.32A23.35,23.35,0,0,1,230.8,83,18.41,18.41,0,0,1,220.5,85.88Zm1.11-51.59a3.91,3.91,0,0,0-3,1.39,11.32,11.32,0,0,0-2.08,3.65,23.61,23.61,0,0,0-1.2,5.09A43,43,0,0,0,215,50.1a50.09,50.09,0,0,0,.42,6.47,32.59,32.59,0,0,0,1.24,5.83,13.35,13.35,0,0,0,2.08,4.16,3.77,3.77,0,0,0,3,1.57,3.63,3.63,0,0,0,3.23-2,17.76,17.76,0,0,0,1.9-4.9,36.78,36.78,0,0,0,.92-5.91c.16-2,.23-3.73.23-5.09a44.66,44.66,0,0,0-.32-5.27,28.89,28.89,0,0,0-1.06-5.13,12.7,12.7,0,0,0-1.94-3.92A3.7,3.7,0,0,0,221.61,34.29Z"/><path class="cls-1" d="M294.17,34.2a22.36,22.36,0,0,1-3,11.46,31.78,31.78,0,0,1-7.86,9,58.46,58.46,0,0,1,3,5.18,53.74,53.74,0,0,1,2.82,6.24,55,55,0,0,1,2,6.56,26.36,26.36,0,0,1,.78,6A10.07,10.07,0,0,1,290.61,84a5.23,5.23,0,0,1-4.85,2.36,6.08,6.08,0,0,1-4.95-2.78,31,31,0,0,1-3.7-6.61c-1.07-2.55-2.06-5.16-2.95-7.81a52.18,52.18,0,0,0-2.55-6.37c-1.11.36-2.18.78-3.23,1.24s-2.13.91-3.24,1.34c-.06,1.36-.17,3.22-.32,5.6a44.78,44.78,0,0,1-1,7.07,20.31,20.31,0,0,1-2.35,6.1,4.88,4.88,0,0,1-4.35,2.59,5.33,5.33,0,0,1-4.71-2.5A16.3,16.3,0,0,1,250,78.29a40.2,40.2,0,0,1-.79-7c-.06-2.38-.09-4.24-.09-5.6q0-4.34.19-8.55t.18-8.55q0-4-.14-7.95t-.14-8V30.27c0-.95,0-1.94.14-2.95s.2-2,.33-2.92a6.18,6.18,0,0,1,.64-2.21q.93-1.95,4.21-3.7a49.17,49.17,0,0,1,7.21-3.1,67.71,67.71,0,0,1,7.67-2.13,30.37,30.37,0,0,1,5.59-.78,18.75,18.75,0,0,1,8.32,1.76,17.09,17.09,0,0,1,6,4.76A20.62,20.62,0,0,1,293,25.93,28.18,28.18,0,0,1,294.17,34.2Zm-17.1,1.3A5.36,5.36,0,0,0,276,31.84a4.61,4.61,0,0,0-3.61-1.24,11.53,11.53,0,0,0-3.74.64,25.85,25.85,0,0,0-3.47,1.48q.38,7.31.28,14.52a30.54,30.54,0,0,0,4-1.67,18.45,18.45,0,0,0,3.74-2.49A13.87,13.87,0,0,0,276,39.75,8.09,8.09,0,0,0,277.07,35.5Z"/><path class="cls-1" d="M342.51,34.2a22.36,22.36,0,0,1-2.95,11.46,32.09,32.09,0,0,1-7.86,9q1.47,2.22,3.05,5.18a53.74,53.74,0,0,1,2.82,6.24,53.13,53.13,0,0,1,2,6.56,26.4,26.4,0,0,1,.79,6A10,10,0,0,1,339,84q-1.43,2.35-4.85,2.36a6.05,6.05,0,0,1-4.94-2.78,31,31,0,0,1-3.7-6.61c-1.08-2.55-2.07-5.16-3-7.81A50.78,50.78,0,0,0,320,62.77c-1.11.36-2.19.78-3.24,1.24s-2.12.91-3.23,1.34c-.06,1.36-.17,3.22-.33,5.6a46,46,0,0,1-1,7.07,20.32,20.32,0,0,1-2.36,6.1,4.87,4.87,0,0,1-4.34,2.59,5.33,5.33,0,0,1-4.72-2.5,16.48,16.48,0,0,1-2.36-5.92,40.2,40.2,0,0,1-.78-7c-.06-2.38-.09-4.24-.09-5.6q0-4.34.18-8.55c.12-2.8.19-5.65.19-8.55q0-4-.14-7.95c-.1-2.65-.14-5.33-.14-8V30.27c0-.95,0-1.94.14-2.95s.2-2,.32-2.92a6.17,6.17,0,0,1,.65-2.21c.61-1.3,2-2.53,4.2-3.7a49.17,49.17,0,0,1,7.21-3.1,67.28,67.28,0,0,1,7.68-2.13,30.26,30.26,0,0,1,5.59-.78,18.82,18.82,0,0,1,8.32,1.76,17.27,17.27,0,0,1,6,4.76,20.6,20.6,0,0,1,3.6,6.93A28.18,28.18,0,0,1,342.51,34.2Zm-17.1,1.3a5.36,5.36,0,0,0-1.11-3.66,4.6,4.6,0,0,0-3.6-1.24,11.59,11.59,0,0,0-3.75.64,25.71,25.71,0,0,0-3.46,1.48q.36,7.31.28,14.52a30.43,30.43,0,0,0,4-1.67,18.45,18.45,0,0,0,3.74-2.49,13.87,13.87,0,0,0,2.82-3.33A8.09,8.09,0,0,0,325.41,35.5Z"/><path class="cls-1" d="M377.73,20.06A6.28,6.28,0,0,1,377,23.2a7.7,7.7,0,0,1-2.08,2.36A13,13,0,0,1,372,27.18a15.26,15.26,0,0,1-3.05.92q-.18,10.45-.78,20.15t-1.9,20.06h.55a13.61,13.61,0,0,1,2.92.32,7.65,7.65,0,0,1,2.58,1.11,6.25,6.25,0,0,1,1.85,2,5.4,5.4,0,0,1,.7,2.81,5.52,5.52,0,0,1-1.34,3.7A11.34,11.34,0,0,1,370,80.88a25.36,25.36,0,0,1-4.85,1.85,48.88,48.88,0,0,1-5.36,1.16c-1.79.28-3.48.47-5.09.6s-2.89.18-3.88.18c-.74,0-1.65,0-2.72-.09a12.39,12.39,0,0,1-3.05-.55,6.62,6.62,0,0,1-2.45-1.39,3.21,3.21,0,0,1-1-2.5,7.47,7.47,0,0,1,.78-3.46A10,10,0,0,1,344.45,74,11,11,0,0,1,347.37,72a16.69,16.69,0,0,1,3.28-1.11q.64-5.09,1.2-10.12c.37-3.36.61-6.76.74-10.22s.24-7,.37-10.4.24-6.85.37-10.3c-.43.06-.83.11-1.2.14s-.71,0-1,0a14.61,14.61,0,0,1-2.77-.28,9.28,9.28,0,0,1-2.78-1,7.55,7.55,0,0,1-2.17-1.71,3.82,3.82,0,0,1-.88-2.58,6.27,6.27,0,0,1,2.64-5.18,19.28,19.28,0,0,1,6.28-3.14,41.23,41.23,0,0,1,7.45-1.53,57.32,57.32,0,0,1,6.1-.41q1.29,0,3.42.18a19.89,19.89,0,0,1,4.2.83A12.26,12.26,0,0,1,376.21,17,3.57,3.57,0,0,1,377.73,20.06Z"/><path class="cls-1" d="M409.25,17.93a5.49,5.49,0,0,1-1.34,3.7,11.18,11.18,0,0,1-3.19,2.59c-1.11.68-2.25,1.4-3.42,2.17A21.44,21.44,0,0,0,398.07,29a12.44,12.44,0,0,0-2.4,3.19,8.34,8.34,0,0,0-.93,4,6.78,6.78,0,0,0,.93,3.52,20.08,20.08,0,0,0,2.26,3.09q1.33,1.53,3,3.15a25,25,0,0,1,3,3.6A21.6,21.6,0,0,1,406.11,54,16.56,16.56,0,0,1,406.06,65a33.16,33.16,0,0,1-2.63,5.87,40.53,40.53,0,0,1-3.93,5.73,38.33,38.33,0,0,1-4.81,5,24.78,24.78,0,0,1-5.31,3.51A12.36,12.36,0,0,1,384,86.43a8.58,8.58,0,0,1-5.09-1.57,5.4,5.4,0,0,1-2.22-4.72,7.89,7.89,0,0,1,1-3.93,20,20,0,0,1,2.5-3.46,35.94,35.94,0,0,1,3.28-3.24,45.09,45.09,0,0,0,3.28-3.14,18.88,18.88,0,0,0,2.5-3.28,7.1,7.1,0,0,0,1-3.65,9.88,9.88,0,0,0-1.89-5.5q-1.91-2.82-4.21-5.83A65.48,65.48,0,0,1,380,42a12.19,12.19,0,0,1-1.9-6.38,19.21,19.21,0,0,1,2.13-8.37,33.64,33.64,0,0,1,5.45-8,31.36,31.36,0,0,1,7.49-6,16.27,16.27,0,0,1,8.23-2.41,8.36,8.36,0,0,1,5.54,1.94A6.53,6.53,0,0,1,409.25,17.93Z"/><path class="cls-1" d="M433.66,85.88a17.11,17.11,0,0,1-9.8-2.82A22.45,22.45,0,0,1,417,75.48a38.29,38.29,0,0,1-4.07-11,63.52,63.52,0,0,1-1.34-13.22A62,62,0,0,1,413,38.08a43.37,43.37,0,0,1,4.39-12,27.2,27.2,0,0,1,7.49-8.78,17.4,17.4,0,0,1,10.81-3.42,15.83,15.83,0,0,1,10.21,3.28,23.29,23.29,0,0,1,6.57,8.5A44.51,44.51,0,0,1,456,37.34,79.66,79.66,0,0,1,457,50.29a62.2,62.2,0,0,1-1.43,13.63,38.35,38.35,0,0,1-4.34,11.32A23.35,23.35,0,0,1,444,83,18.41,18.41,0,0,1,433.66,85.88Zm1.11-51.59a3.91,3.91,0,0,0-3,1.39,11.32,11.32,0,0,0-2.08,3.65,24.22,24.22,0,0,0-1.2,5.09,43,43,0,0,0-.37,5.68,50.09,50.09,0,0,0,.42,6.47,32.59,32.59,0,0,0,1.24,5.83,13.35,13.35,0,0,0,2.08,4.16,3.77,3.77,0,0,0,3,1.57,3.63,3.63,0,0,0,3.23-2,17.76,17.76,0,0,0,1.9-4.9,36.78,36.78,0,0,0,.92-5.91c.16-2,.23-3.73.23-5.09a44.66,44.66,0,0,0-.32-5.27,28.89,28.89,0,0,0-1.06-5.13,12.7,12.7,0,0,0-1.94-3.92A3.7,3.7,0,0,0,434.77,34.29Z"/><path class="cls-1" d="M79.83,150.42a60.92,60.92,0,0,1-5.27,24.83,72.7,72.7,0,0,1-14.14,21.16,68.44,68.44,0,0,1-20.65,14.72,58,58,0,0,1-24.83,5.5h-.29a5.08,5.08,0,0,1-4.32-2.42,22.49,22.49,0,0,1-2.86-6.08,46.42,46.42,0,0,1-1.76-8.2q-.58-4.55-.88-8.86t-.29-7.77v-5.2c0-3.32,0-6.61.15-9.89s.24-6.56.44-9.88c0-1.08.07-2.66.22-4.76s.31-4.47.51-7.11.44-5.39.73-8.27.61-5.57,1-8.06.69-4.69,1-6.59a10.34,10.34,0,0,1,1.24-3.88,17.47,17.47,0,0,1,5.86-5.72,43.12,43.12,0,0,1,8.57-4.1,57.16,57.16,0,0,1,9.38-2.41,50.19,50.19,0,0,1,8.27-.81,36.83,36.83,0,0,1,16.78,3.59,34.77,34.77,0,0,1,11.86,9.67,40.51,40.51,0,0,1,7,14A59.81,59.81,0,0,1,79.83,150.42Zm-24.61,4.25a20.08,20.08,0,0,0-1.17-6.6,22,22,0,0,0-3.3-6.15,16.72,16.72,0,0,0-5.12-4.47A13.43,13.43,0,0,0,39,135.77a15.19,15.19,0,0,0-6.29,1.46c-.5.3-.93,1.2-1.32,2.71a42,42,0,0,0-1,5.5q-.36,3.23-.65,7t-.37,7.25q-.07,3.43-.15,6.08c0,1.76-.07,2.93-.07,3.51v4.32c0,1.91.07,3.79.22,5.64s.31,3.47.51,4.84.54,2,1,2a14,14,0,0,0,8.71-3.44,40.46,40.46,0,0,0,7.84-8.43,49,49,0,0,0,5.64-10.4A26.21,26.21,0,0,0,55.22,154.67Z"/><path class="cls-1" d="M135.64,116.87a10,10,0,0,1-1.24,5,12.17,12.17,0,0,1-3.3,3.74,20.72,20.72,0,0,1-4.54,2.56,24.62,24.62,0,0,1-4.84,1.47q-.28,16.55-1.24,31.93t-3,31.79h.88a20.94,20.94,0,0,1,4.61.51,11.86,11.86,0,0,1,4.1,1.76,9.74,9.74,0,0,1,2.93,3.07,8.59,8.59,0,0,1,1.1,4.47A8.76,8.76,0,0,1,129,209a18,18,0,0,1-5.57,4.25,40.87,40.87,0,0,1-7.69,2.93,75.87,75.87,0,0,1-8.5,1.83c-2.83.44-5.51.75-8,.95s-4.59.29-6.16.29c-1.17,0-2.61,0-4.32-.14a19.22,19.22,0,0,1-4.83-.88A10.35,10.35,0,0,1,80,216a5,5,0,0,1-1.61-3.95,11.85,11.85,0,0,1,1.24-5.5,15.62,15.62,0,0,1,3.3-4.32,17.1,17.1,0,0,1,4.61-3.07,26.13,26.13,0,0,1,5.2-1.76q1-8.06,1.91-16t1.17-16.19q.28-8.34.58-16.48T97,132.4c-.68.1-1.32.17-1.9.22s-1.13.07-1.62.07a23.23,23.23,0,0,1-4.39-.44,15.06,15.06,0,0,1-4.39-1.53A12.17,12.17,0,0,1,81.22,128a6.1,6.1,0,0,1-1.39-4.1A9.94,9.94,0,0,1,84,115.7a30.62,30.62,0,0,1,10-5,64.76,64.76,0,0,1,11.79-2.42,95,95,0,0,1,9.67-.65c1.36,0,3.17.09,5.42.29a32.19,32.19,0,0,1,6.66,1.32,19.34,19.34,0,0,1,5.71,2.78A5.65,5.65,0,0,1,135.64,116.87Z"/><path class="cls-1" d="M208.29,119.36a60,60,0,0,1-1.31,11.8q-1.32,6.51-3.3,13.25c-1.32,4.5-2.73,8.86-4.25,13.11s-2.85,8.08-4,11.5q-1.17,3.22-2.56,8t-3.22,10q-1.83,5.27-4,10.54a64.08,64.08,0,0,1-4.83,9.45,28.67,28.67,0,0,1-5.79,6.81,10.4,10.4,0,0,1-6.81,2.64,8.51,8.51,0,0,1-5.93-2.78,34,34,0,0,1-5.42-7.11,82,82,0,0,1-4.84-9.66q-2.26-5.35-4.1-10.48t-3.08-9.52c-.83-2.93-1.44-5.17-1.83-6.74q-2.93-11.41-5.56-23.07a105.33,105.33,0,0,1-2.64-23.36q0-2.92.29-6.08a18.53,18.53,0,0,1,1.47-5.79,11.3,11.3,0,0,1,3.3-4.32,9.32,9.32,0,0,1,5.93-1.68c2.14,0,4.12,1.19,5.93,3.59a38.21,38.21,0,0,1,4.91,9.3,122.65,122.65,0,0,1,4,12.74q1.81,7,3.44,13.84c1.07,4.55,2.1,8.79,3.07,12.75a69.42,69.42,0,0,0,2.93,9.45l2.57-8.57q1.68-5.64,4-12.38t5-13.84a124.88,124.88,0,0,1,5.71-12.89,47.44,47.44,0,0,1,6.23-9.45c2.15-2.44,4.34-3.66,6.59-3.66a6.79,6.79,0,0,1,4.1,1.17,7.67,7.67,0,0,1,2.49,3.07,16.23,16.23,0,0,1,1.25,4.11A26.2,26.2,0,0,1,208.29,119.36Z"/><path class="cls-1" d="M274.36,193.34a11,11,0,0,1-1.47,5.42q-1.45,2.49-6.88,5.86A107.55,107.55,0,0,1,254,211q-6.6,3-12.75,5.12t-9.08,2.13a15.34,15.34,0,0,1-4.83-1,39,39,0,0,1-5.57-2.42,28.65,28.65,0,0,1-5.05-3.37,14.51,14.51,0,0,1-3.3-3.66,14.18,14.18,0,0,1-1.1-4.1c-.34-2.05-.63-4.45-.88-7.18s-.46-5.64-.65-8.72-.37-6-.52-8.79-.24-5.24-.29-7.39-.07-3.71-.07-4.69q0-5.41.36-12.45t1.39-14.14a93.14,93.14,0,0,1,3-13.62A35.92,35.92,0,0,1,220,115.7a11.77,11.77,0,0,1,4.1-2.78,55.23,55.23,0,0,1,7.26-2.78q4.17-1.32,9-2.49t9.31-2q4.45-.81,8.12-1.32a44,44,0,0,1,5.57-.51,9.58,9.58,0,0,1,4.18,1,10.54,10.54,0,0,1,3.37,2.56,13.2,13.2,0,0,1,2.19,3.59,10.92,10.92,0,0,1,.81,4.18,9,9,0,0,1-.51,3.22,18.28,18.28,0,0,1-1.54,2.93q-1.47,1.91-6.16,4.54T255.53,131Q250,133.57,245,135.62t-7.11,2.93q-.58,3.38-1.24,6.81a65,65,0,0,0-.95,7,85.26,85.26,0,0,1,10.25-4.39,32,32,0,0,1,10.84-2.05q10.39,0,10.4,10.25a9.79,9.79,0,0,1-.95,4.4,12.29,12.29,0,0,1-2.49,3.36,17.42,17.42,0,0,1-3.52,2.57c-1.32.73-2.61,1.44-3.88,2.12a74.39,74.39,0,0,1-9.81,4.32q-5.13,1.83-10.26,3.59c-.19.78-.39,1.64-.58,2.56a12.92,12.92,0,0,0-.3,2.71,28.42,28.42,0,0,0,.3,4.11c.19,1.36.39,2.73.58,4.1l5.64-1.91c2.59-.88,5.3-1.75,8.13-2.63s5.57-1.64,8.2-2.27a27.77,27.77,0,0,1,5.86-1,9,9,0,0,1,4.11,1,10.16,10.16,0,0,1,3.22,2.49,12.39,12.39,0,0,1,2.12,3.59A11,11,0,0,1,274.36,193.34Z"/><path class="cls-1" d="M352.43,139.29a35.41,35.41,0,0,1-4.69,18.16,50.29,50.29,0,0,1-12.45,14.21q2.34,3.51,4.84,8.2a85.58,85.58,0,0,1,4.46,9.89,84,84,0,0,1,3.23,10.4,41.38,41.38,0,0,1,1.24,9.59,16,16,0,0,1-2.27,8.43c-1.51,2.49-4.08,3.73-7.69,3.73q-4.55,0-7.84-4.39A49.14,49.14,0,0,1,325.41,207q-2.57-6.08-4.69-12.37a82.15,82.15,0,0,0-4-10.11,54.43,54.43,0,0,0-5.13,2q-2.49,1.09-5.12,2.12-.15,3.22-.52,8.86a72.43,72.43,0,0,1-1.61,11.21,31.86,31.86,0,0,1-3.73,9.66,7.7,7.7,0,0,1-6.89,4.11,8.46,8.46,0,0,1-7.47-4,26,26,0,0,1-3.73-9.37,63.49,63.49,0,0,1-1.25-11.06c-.1-3.76-.14-6.72-.14-8.86q0-6.88.29-13.55t.29-13.55q0-6.3-.22-12.6t-.22-12.75v-3.73c0-1.51.08-3.08.22-4.69s.32-3.15.51-4.61a10.08,10.08,0,0,1,1-3.52c1-2,3.2-4,6.66-5.86a76.74,76.74,0,0,1,11.43-4.9,102.55,102.55,0,0,1,12.16-3.37,47.79,47.79,0,0,1,8.86-1.25,29.68,29.68,0,0,1,13.18,2.79,27.3,27.3,0,0,1,9.52,7.54,32.69,32.69,0,0,1,5.72,11A44.89,44.89,0,0,1,352.43,139.29Zm-27.1,2.05a8.43,8.43,0,0,0-1.76-5.79q-1.76-2-5.71-2a18.37,18.37,0,0,0-5.93,1,37.44,37.44,0,0,0-5.49,2.34q.58,11.58.44,23a46.47,46.47,0,0,0,6.29-2.64,28.56,28.56,0,0,0,5.94-4,21.67,21.67,0,0,0,4.46-5.28A12.73,12.73,0,0,0,325.33,141.34Z"/><path class="cls-1" d="M421,116.29a9.46,9.46,0,0,1-2.85,6.66,29.23,29.23,0,0,1-6.89,5.28A49.63,49.63,0,0,1,403,132a61,61,0,0,1-7,2q-1.19,11.28-1.83,22.49T393.45,179q0,6,.29,11.87c.19,3.9.29,7.81.29,11.71a36.44,36.44,0,0,1-.51,5.79,23.68,23.68,0,0,1-1.76,5.93,13.32,13.32,0,0,1-3.44,4.69,8,8,0,0,1-5.42,1.91,8.52,8.52,0,0,1-6.08-2.13,14.51,14.51,0,0,1-3.52-5.2,25.92,25.92,0,0,1-1.68-6.52,50.09,50.09,0,0,1-.44-6.22q-.3-8.79-.44-17.65t-.15-17.8q0-7.47.08-14.65t.07-14.65c-1.37.2-2.76.35-4.17.44s-2.86.15-4.32.15a37,37,0,0,1-4.62-.37,25.28,25.28,0,0,1-5.49-1.32,13.82,13.82,0,0,1-4.54-2.63,5.52,5.52,0,0,1-1.91-4.32,10.31,10.31,0,0,1,3.45-7.69,31,31,0,0,1,8.78-5.72,74.26,74.26,0,0,1,11.87-4.1,124.91,124.91,0,0,1,12.89-2.63q6.38-1,11.72-1.4t8.27-.44c1.86,0,3.84.08,5.94.22a21.65,21.65,0,0,1,5.93,1.25,11.26,11.26,0,0,1,4.61,3.08A8.26,8.26,0,0,1,421,116.29Z"/><path class="cls-1" d="M464.05,116.87a9.9,9.9,0,0,1-1.25,5,12,12,0,0,1-3.29,3.74,20.72,20.72,0,0,1-4.54,2.56,24.83,24.83,0,0,1-4.84,1.47q-.28,16.55-1.24,31.93t-3,31.79h.87a21,21,0,0,1,4.62.51,11.86,11.86,0,0,1,4.1,1.76,9.74,9.74,0,0,1,2.93,3.07,8.59,8.59,0,0,1,1.1,4.47,8.72,8.72,0,0,1-2.13,5.86,17.81,17.81,0,0,1-5.56,4.25,40.87,40.87,0,0,1-7.69,2.93,76.36,76.36,0,0,1-8.5,1.83c-2.83.44-5.52.75-8.05.95s-4.6.29-6.16.29c-1.17,0-2.61,0-4.32-.14a19.22,19.22,0,0,1-4.83-.88,10.35,10.35,0,0,1-3.88-2.2,5,5,0,0,1-1.61-3.95,11.85,11.85,0,0,1,1.24-5.5,15.62,15.62,0,0,1,3.3-4.32,17.1,17.1,0,0,1,4.61-3.07,26.13,26.13,0,0,1,5.2-1.76q1-8.06,1.91-16t1.17-16.19q.29-8.34.58-16.48t.59-16.33c-.69.1-1.32.17-1.91.22s-1.12.07-1.61.07a23.23,23.23,0,0,1-4.39-.44,15.22,15.22,0,0,1-4.4-1.53,12.26,12.26,0,0,1-3.44-2.71,6.1,6.1,0,0,1-1.39-4.1,9.94,9.94,0,0,1,4.18-8.21,30.62,30.62,0,0,1,10-5,64.76,64.76,0,0,1,11.79-2.42,95,95,0,0,1,9.66-.65c1.37,0,3.18.09,5.42.29a32.16,32.16,0,0,1,6.67,1.32,19.34,19.34,0,0,1,5.71,2.78A5.65,5.65,0,0,1,464.05,116.87Z"/><path class="cls-1" d="M541.54,150.42a60.77,60.77,0,0,1-5.28,24.83,72.47,72.47,0,0,1-14.13,21.16,68.56,68.56,0,0,1-20.65,14.72,58,58,0,0,1-24.83,5.5h-.3a5.09,5.09,0,0,1-4.32-2.42,22.79,22.79,0,0,1-2.85-6.08,45.54,45.54,0,0,1-1.76-8.2c-.39-3-.69-6-.88-8.86s-.29-5.47-.29-7.77v-5.2c0-3.32,0-6.61.14-9.89s.25-6.56.44-9.88c0-1.08.08-2.66.22-4.76s.32-4.47.52-7.11.43-5.39.73-8.27.61-5.57.95-8.06.68-4.69,1-6.59a10.34,10.34,0,0,1,1.24-3.88,17.37,17.37,0,0,1,5.86-5.72,42.86,42.86,0,0,1,8.57-4.1,57.05,57.05,0,0,1,9.37-2.41,50.4,50.4,0,0,1,8.28-.81,36.82,36.82,0,0,1,16.77,3.59,34.81,34.81,0,0,1,11.87,9.67,40.69,40.69,0,0,1,7,14A59.81,59.81,0,0,1,541.54,150.42Zm-24.61,4.25a20.08,20.08,0,0,0-1.17-6.6,22.24,22.24,0,0,0-3.3-6.15,16.88,16.88,0,0,0-5.13-4.47,13.4,13.4,0,0,0-6.66-1.68,15.27,15.27,0,0,0-6.3,1.46c-.49.3-.93,1.2-1.32,2.71a40.5,40.5,0,0,0-.95,5.5q-.36,3.23-.66,7t-.36,7.25c-.06,2.29-.1,4.32-.15,6.08s-.07,2.93-.07,3.51v4.32c0,1.91.07,3.79.22,5.64s.31,3.47.51,4.84.53,2,1,2a14,14,0,0,0,8.72-3.44,40.72,40.72,0,0,0,7.84-8.43,48.46,48.46,0,0,0,5.63-10.4A26,26,0,0,0,516.93,154.67Z"/><path class="cls-1" d="M581.67,221.17a27,27,0,0,1-15.52-4.47,35.53,35.53,0,0,1-10.92-12,60.11,60.11,0,0,1-6.44-17.51,99.92,99.92,0,0,1-2.13-20.94,98.83,98.83,0,0,1,2.27-20.8,69.94,69.94,0,0,1,7-19,43.45,43.45,0,0,1,11.87-13.91,27.62,27.62,0,0,1,17.14-5.42q9.66,0,16.18,5.2a37,37,0,0,1,10.4,13.48,70.33,70.33,0,0,1,5.57,18.53,126.54,126.54,0,0,1,1.68,20.5,99.32,99.32,0,0,1-2.27,21.61,60.72,60.72,0,0,1-6.88,17.94A37,37,0,0,1,598,216.63,29.29,29.29,0,0,1,581.67,221.17Zm1.76-81.74a6.16,6.16,0,0,0-4.76,2.2,17.55,17.55,0,0,0-3.3,5.79,37.88,37.88,0,0,0-1.9,8.05,69.32,69.32,0,0,0-.59,9,80.05,80.05,0,0,0,.66,10.25,51.66,51.66,0,0,0,2,9.23,20.69,20.69,0,0,0,3.3,6.59,5.89,5.89,0,0,0,4.76,2.49,5.76,5.76,0,0,0,5.12-3.22,28.49,28.49,0,0,0,3-7.76,58.43,58.43,0,0,0,1.46-9.38c.24-3.22.37-5.9.37-8.05a72.52,72.52,0,0,0-.51-8.35,45.07,45.07,0,0,0-1.69-8.13,20,20,0,0,0-3.08-6.23A5.84,5.84,0,0,0,583.43,139.43Z"/><path class="cls-1" d="M490.13,274.92C371.23,398.43,252,397.56,132.38,274.85c-3.19-3.28-4.26-7.9-.5-10.51h0a6.22,6.22,0,0,1,6.36-.44c114,57.34,229.19,57.88,345.75,0a6.23,6.23,0,0,1,6.33.45l.2.14C494.23,267.05,493.27,271.65,490.13,274.92Z"/><path class="cls-1" d="M478.2,248.43c31.48-15.44,37.86.08,30.57,32.49C508.15,255.92,498,245,478.2,248.43Z"/><path class="cls-1" d="M144.34,248.43c-31.48-15.44-37.86.08-30.57,32.49C114.39,255.92,124.54,245,144.34,248.43Z"/></svg>