<svg id="Camada_1" data-name="Camada 1" xmlns="http://www.w3.org/2000/svg" viewBox="0 0 675.84 681.18"><defs><style>.cls-1,.cls-2,.cls-3{fill:#6f12dc;}.cls-2{font-size:94.66px;}.cls-2,.cls-3{font-family:Chewy-Regular, Chewy;}.cls-3{font-size:150px;}.cls-4{letter-spacing:-0.01em;}</style></defs><path class="cls-1" d="M563.91,101.25A327.24,327.24,0,0,0,10.68,337.92q0,4,.1,8a326,326,0,0,0,90.47,218A326.22,326.22,0,0,1,0,327.24C0,146.51,146.51,0,327.24,0q5.36,0,10.68.17A326.25,326.25,0,0,1,563.91,101.25Z"/><path class="cls-1" d="M675.84,327.24A326.22,326.22,0,0,1,574.59,563.91a326.06,326.06,0,0,0,90.48-218q.09-4,.09-8A327.24,327.24,0,0,0,111.93,101.25,326.27,326.27,0,0,1,337.92.17Q343.25,0,348.6,0C529.33,0,675.84,146.51,675.84,327.24Z"/><path class="cls-1" d="M665.16,353.94a326.92,326.92,0,0,1-18.25,108c-44.63,127.64-166.12,219.2-309,219.2S73.56,589.62,28.93,462a326.92,326.92,0,0,1-18.25-108q0-4,.1-8a327.24,327.24,0,0,0,654.29,0Q665.16,349.92,665.16,353.94Z"/><text class="cls-2" transform="translate(189.74 254.92)">SORRISO</text><text class="cls-3" transform="translate(26.65 388.43)"><tspan class="cls-4">D</tspan><tspan x="80.56" y="0">IVERTIDO</tspan></text><path class="cls-1" d="M516.78,447C397.88,570.52,278.63,569.66,159,447c-3.19-3.28-4.26-7.9-.5-10.52h0a6.26,6.26,0,0,1,6.36-.44c114,57.34,229.19,57.88,345.75,0a6.23,6.23,0,0,1,6.33.45l.2.14C520.89,439.14,519.92,443.75,516.78,447Z"/><path class="cls-1" d="M504.85,420.53c31.48-15.44,37.87.08,30.57,32.49C534.8,428,524.66,417.12,504.85,420.53Z"/><path class="cls-1" d="M171,420.53c-31.48-15.44-37.86.08-30.57,32.49C141,428,151.19,417.12,171,420.53Z"/></svg>