<svg id="Camada_1" data-name="Camada 1" xmlns="http://www.w3.org/2000/svg" viewBox="0 0 676.71 681.18"><defs><style>.cls-1{fill:#fff;}.cls-2{fill:#6f12dc;}.cls-3{fill:#f00271;}.cls-4{fill:#eaa94d;}</style></defs><rect class="cls-1" x="-5.81" y="-4.67" width="688.38" height="686.79"/><path class="cls-2" d="M363.82,682.12H682.56V318.62C652.5,546.06,542.92,662.58,363.82,682.12Z"/><path class="cls-3" d="M363.82-4.67H682.56V358.84C652.5,131.4,542.92,14.87,363.82-4.67Z"/><path class="cls-3" d="M328.05,685.46H-6.64V320.19C24.93,548.73,140,665.83,328.05,685.46Z"/><path class="cls-4" d="M328.88-4.67H-5.81V360.6C25.75,132.06,140.81,15,328.88-4.67Z"/><path class="cls-3" d="M569.22,96.55A333.67,333.67,0,0,0,5.13,337.87c0,2.73,0,5.45.1,8.16A332.47,332.47,0,0,0,97.48,568.29,332.73,332.73,0,0,1-5.76,327C-5.76,142.7,143.63-6.68,327.9-6.68q5.48,0,10.9.17A332.68,332.68,0,0,1,569.22,96.55Z"/><path class="cls-2" d="M683.35,327A332.63,332.63,0,0,1,580.11,568.29,332.42,332.42,0,0,0,672.36,346q.1-4.06.1-8.16A333.67,333.67,0,0,0,108.37,96.55,332.69,332.69,0,0,1,338.8-6.51q5.42-.17,10.89-.17C534-6.68,683.35,142.7,683.35,327Z"/><path class="cls-4" d="M672.46,354.2a333.38,333.38,0,0,1-18.61,110.16c-45.51,130.15-169.38,223.51-315,223.51s-269.55-93.36-315-223.51A333.13,333.13,0,0,1,5.13,354.2c0-2.73,0-5.45.1-8.17a333.67,333.67,0,0,0,667.13,0Q672.46,350.11,672.46,354.2Z"/><path class="cls-4" d="M221.36,187.07a5.65,5.65,0,0,1-1.37,3.78,11.57,11.57,0,0,1-3.25,2.63c-1.13.7-2.29,1.43-3.49,2.22a22.87,22.87,0,0,0-3.3,2.64,13,13,0,0,0-2.45,3.25,8.52,8.52,0,0,0-.94,4,6.89,6.89,0,0,0,.94,3.58,20.49,20.49,0,0,0,2.31,3.16q1.37,1.56,3,3.21a24.64,24.64,0,0,1,3,3.67,20.82,20.82,0,0,1,2.31,4.57,16.79,16.79,0,0,1,0,11.27,34.48,34.48,0,0,1-2.69,6,41.36,41.36,0,0,1-4,5.85,39.75,39.75,0,0,1-4.9,5,25.41,25.41,0,0,1-5.42,3.58,12.51,12.51,0,0,1-5.46,1.37,8.76,8.76,0,0,1-5.19-1.61,5.52,5.52,0,0,1-2.26-4.8,8,8,0,0,1,1-4,20.77,20.77,0,0,1,2.54-3.53,37.41,37.41,0,0,1,3.35-3.3q1.83-1.6,3.35-3.21a19.15,19.15,0,0,0,2.54-3.34,7.2,7.2,0,0,0,1-3.73,10,10,0,0,0-1.94-5.6q-1.92-2.88-4.28-5.94a65.09,65.09,0,0,1-4.29-6.27,12.42,12.42,0,0,1-1.93-6.5,19.64,19.64,0,0,1,2.16-8.53,34.38,34.38,0,0,1,5.56-8.2,32.21,32.21,0,0,1,7.64-6.18,16.71,16.71,0,0,1,8.39-2.45,8.49,8.49,0,0,1,5.65,2A6.65,6.65,0,0,1,221.36,187.07Z"/><path class="cls-4" d="M246.24,256.35a17.43,17.43,0,0,1-10-2.87,22.92,22.92,0,0,1-7-7.73,38.61,38.61,0,0,1-4.15-11.27A64.49,64.49,0,0,1,223.72,221a63.15,63.15,0,0,1,1.46-13.39,44.54,44.54,0,0,1,4.47-12.25,27.93,27.93,0,0,1,7.64-9,17.71,17.71,0,0,1,11-3.49,16.19,16.19,0,0,1,10.42,3.34,23.93,23.93,0,0,1,6.69,8.68A44.9,44.9,0,0,1,269,206.87a81.6,81.6,0,0,1,1.09,13.19A64.08,64.08,0,0,1,268.63,234a39.29,39.29,0,0,1-4.43,11.54,23.85,23.85,0,0,1-7.45,7.92A18.79,18.79,0,0,1,246.24,256.35Zm1.13-52.59a4,4,0,0,0-3.06,1.41,11.29,11.29,0,0,0-2.12,3.72,23.94,23.94,0,0,0-1.23,5.19,44.79,44.79,0,0,0-.37,5.79,52.22,52.22,0,0,0,.42,6.6,33.62,33.62,0,0,0,1.27,5.94,13.42,13.42,0,0,0,2.12,4.24,3.8,3.8,0,0,0,3.07,1.6,3.69,3.69,0,0,0,3.29-2.07,18.1,18.1,0,0,0,1.94-5,38.23,38.23,0,0,0,.94-6c.16-2.07.24-3.8.24-5.18a48.59,48.59,0,0,0-.33-5.37,29.44,29.44,0,0,0-1.09-5.23,12.73,12.73,0,0,0-2-4A3.75,3.75,0,0,0,247.37,203.76Z"/><path class="cls-4" d="M321.36,203.66a22.8,22.8,0,0,1-3,11.69,32.39,32.39,0,0,1-8,9.14c1,1.51,2,3.27,3.11,5.28a55.85,55.85,0,0,1,2.88,6.36,54,54,0,0,1,2.07,6.69,27,27,0,0,1,.8,6.18,10.26,10.26,0,0,1-1.46,5.42q-1.46,2.4-5,2.4a6.16,6.16,0,0,1-5-2.83,31.76,31.76,0,0,1-3.77-6.74c-1.1-2.6-2.11-5.26-3-8a51.66,51.66,0,0,0-2.59-6.5c-1.13.37-2.23.8-3.3,1.27s-2.16.93-3.3,1.37q-.09,2.07-.33,5.7a46.55,46.55,0,0,1-1,7.21,20.64,20.64,0,0,1-2.41,6.22,4.94,4.94,0,0,1-4.43,2.64,5.43,5.43,0,0,1-4.8-2.55,16.84,16.84,0,0,1-2.41-6,41.83,41.83,0,0,1-.8-7.11c-.06-2.42-.09-4.32-.09-5.71,0-3,.06-5.85.19-8.72s.19-5.76.19-8.71c0-2.7,0-5.41-.15-8.11s-.14-5.43-.14-8.2v-2.4c0-1,.05-2,.14-3s.21-2,.33-3a6.67,6.67,0,0,1,.66-2.26c.63-1.32,2.06-2.57,4.29-3.77a50.62,50.62,0,0,1,7.35-3.16,65.8,65.8,0,0,1,7.83-2.16,30.28,30.28,0,0,1,5.7-.81,19.06,19.06,0,0,1,8.48,1.8,17.64,17.64,0,0,1,6.13,4.85,21,21,0,0,1,3.67,7.07A28.55,28.55,0,0,1,321.36,203.66ZM303.92,205a5.41,5.41,0,0,0-1.13-3.72,4.68,4.68,0,0,0-3.67-1.27,11.77,11.77,0,0,0-3.82.66,24,24,0,0,0-3.54,1.51q.38,7.44.29,14.79a30.94,30.94,0,0,0,4.05-1.69,18.44,18.44,0,0,0,3.82-2.55,13.76,13.76,0,0,0,2.87-3.39A8.21,8.21,0,0,0,303.92,205Z"/><path class="cls-4" d="M370.65,203.66a22.8,22.8,0,0,1-3,11.69,32.39,32.39,0,0,1-8,9.14q1.5,2.26,3.11,5.28a57.61,57.61,0,0,1,2.87,6.36,54,54,0,0,1,2.07,6.69,26.46,26.46,0,0,1,.81,6.18,10.18,10.18,0,0,1-1.47,5.42q-1.45,2.4-4.94,2.4A6.19,6.19,0,0,1,357,254a31.76,31.76,0,0,1-3.77-6.74c-1.1-2.6-2.1-5.26-3-8a53.23,53.23,0,0,0-2.59-6.5,34.16,34.16,0,0,0-3.3,1.27c-1.07.47-2.17.93-3.3,1.37q-.1,2.07-.33,5.7a47.81,47.81,0,0,1-1,7.21,20.38,20.38,0,0,1-2.4,6.22,5,5,0,0,1-4.43,2.64,5.44,5.44,0,0,1-4.81-2.55,16.65,16.65,0,0,1-2.4-6,40.84,40.84,0,0,1-.8-7.11c-.07-2.42-.1-4.32-.1-5.71,0-3,.06-5.85.19-8.72s.19-5.76.19-8.71c0-2.7-.05-5.41-.14-8.11s-.14-5.43-.14-8.2v-2.4c0-1,0-2,.14-3s.2-2,.33-3a6.25,6.25,0,0,1,.66-2.26c.63-1.32,2.06-2.57,4.29-3.77a50.62,50.62,0,0,1,7.35-3.16,66.18,66.18,0,0,1,7.82-2.16,30.49,30.49,0,0,1,5.7-.81,19.07,19.07,0,0,1,8.49,1.8,17.51,17.51,0,0,1,6.12,4.85,21,21,0,0,1,3.68,7.07A28.88,28.88,0,0,1,370.65,203.66ZM353.22,205a5.46,5.46,0,0,0-1.13-3.72,4.7,4.7,0,0,0-3.68-1.27,11.77,11.77,0,0,0-3.82.66,23.87,23.87,0,0,0-3.53,1.51q.38,7.44.28,14.79a30.94,30.94,0,0,0,4.05-1.69,17.93,17.93,0,0,0,3.82-2.55,14,14,0,0,0,2.88-3.39A8.31,8.31,0,0,0,353.22,205Z"/><path class="cls-4" d="M406.56,189.24a6.42,6.42,0,0,1-.8,3.21,7.72,7.72,0,0,1-2.12,2.4,13.21,13.21,0,0,1-2.92,1.65,16.09,16.09,0,0,1-3.11.94q-.19,10.65-.8,20.55t-1.93,20.45h.56a13.39,13.39,0,0,1,3,.33,7.79,7.79,0,0,1,2.64,1.13,6.44,6.44,0,0,1,1.88,2,5.44,5.44,0,0,1,.71,2.88,5.65,5.65,0,0,1-1.37,3.77,11.35,11.35,0,0,1-3.58,2.73,26.57,26.57,0,0,1-4.95,1.89,48.35,48.35,0,0,1-5.46,1.17c-1.83.29-3.55.49-5.19.62s-2.95.18-3.95.18c-.76,0-1.69,0-2.78-.09a12.58,12.58,0,0,1-3.12-.56,6.79,6.79,0,0,1-2.49-1.42,3.26,3.26,0,0,1-1-2.54,7.69,7.69,0,0,1,.8-3.54,10.32,10.32,0,0,1,2.12-2.78,11.5,11.5,0,0,1,3-2,17,17,0,0,1,3.35-1.13q.66-5.18,1.22-10.32t.76-10.41c.12-3.59.25-7.12.37-10.61s.25-7,.38-10.51c-.44.07-.85.11-1.22.14a9.86,9.86,0,0,1-1,0,15.3,15.3,0,0,1-2.83-.28,9.92,9.92,0,0,1-2.83-1,7.55,7.55,0,0,1-2.21-1.74,3.88,3.88,0,0,1-.9-2.64,6.4,6.4,0,0,1,2.69-5.28,20,20,0,0,1,6.41-3.21,41.72,41.72,0,0,1,7.59-1.55,60.06,60.06,0,0,1,6.22-.42q1.32,0,3.48.18a20.5,20.5,0,0,1,4.29.85,12.61,12.61,0,0,1,3.68,1.79A3.65,3.65,0,0,1,406.56,189.24Z"/><path class="cls-4" d="M438.7,187.07a5.65,5.65,0,0,1-1.36,3.78,11.76,11.76,0,0,1-3.26,2.63c-1.13.7-2.29,1.43-3.48,2.22a21.83,21.83,0,0,0-3.3,2.64,12.75,12.75,0,0,0-2.45,3.25,8.52,8.52,0,0,0-.94,4,6.89,6.89,0,0,0,.94,3.58,20.49,20.49,0,0,0,2.31,3.16q1.36,1.56,3,3.21a24.7,24.7,0,0,1,3,3.67,21.73,21.73,0,0,1,2.31,4.57,16.87,16.87,0,0,1-.05,11.27,33.75,33.75,0,0,1-2.69,6,41.28,41.28,0,0,1-4,5.85,39.75,39.75,0,0,1-4.9,5,25.67,25.67,0,0,1-5.42,3.58,12.59,12.59,0,0,1-5.47,1.37,8.73,8.73,0,0,1-5.18-1.61,5.49,5.49,0,0,1-2.26-4.8,8,8,0,0,1,1-4,20.3,20.3,0,0,1,2.55-3.53,37.27,37.27,0,0,1,3.34-3.3c1.23-1.07,2.34-2.14,3.35-3.21a19.15,19.15,0,0,0,2.54-3.34,7.2,7.2,0,0,0,1-3.73,10,10,0,0,0-1.93-5.6q-1.93-2.88-4.29-5.94a67,67,0,0,1-4.29-6.27,12.42,12.42,0,0,1-1.93-6.5,19.52,19.52,0,0,1,2.17-8.53,34.09,34.09,0,0,1,5.56-8.2,32.16,32.16,0,0,1,7.63-6.18,16.74,16.74,0,0,1,8.39-2.45,8.51,8.51,0,0,1,5.66,2A6.65,6.65,0,0,1,438.7,187.07Z"/><path class="cls-4" d="M463.59,256.35a17.44,17.44,0,0,1-10-2.87,23.12,23.12,0,0,1-7-7.73,38.89,38.89,0,0,1-4.14-11.27,64.44,64.44,0,0,1,.09-26.86A44.55,44.55,0,0,1,447,195.37a27.9,27.9,0,0,1,7.63-9,17.76,17.76,0,0,1,11-3.49,16.14,16.14,0,0,1,10.41,3.34,24,24,0,0,1,6.7,8.68,45.65,45.65,0,0,1,3.58,11.92,81.58,81.58,0,0,1,1.08,13.19A64.08,64.08,0,0,1,486,234a39.29,39.29,0,0,1-4.43,11.54,23.75,23.75,0,0,1-7.45,7.92A18.74,18.74,0,0,1,463.59,256.35Zm1.13-52.59a4,4,0,0,0-3.07,1.41,11.47,11.47,0,0,0-2.12,3.72,24.55,24.55,0,0,0-1.22,5.19,44.8,44.8,0,0,0-.38,5.79,52.22,52.22,0,0,0,.42,6.6,33.59,33.59,0,0,0,1.28,5.94,13.22,13.22,0,0,0,2.12,4.24,3.8,3.8,0,0,0,3.06,1.6,3.72,3.72,0,0,0,3.3-2.07,18.1,18.1,0,0,0,1.93-5,37.11,37.11,0,0,0,.94-6c.16-2.07.24-3.8.24-5.18a46.27,46.27,0,0,0-.33-5.37,28.59,28.59,0,0,0-1.08-5.23,13.17,13.17,0,0,0-2-4A3.76,3.76,0,0,0,464.72,203.76Z"/><path class="cls-4" d="M102.82,322.16a62.13,62.13,0,0,1-5.38,25.32A74.27,74.27,0,0,1,83,369.06a70.06,70.06,0,0,1-21.06,15,59.34,59.34,0,0,1-25.32,5.6h-.3A5.15,5.15,0,0,1,32,387.2,22.71,22.71,0,0,1,29,381a47.24,47.24,0,0,1-1.8-8.37c-.4-3.08-.69-6.1-.89-9s-.3-5.58-.3-7.92v-5.3q0-5.08.15-10.08t.45-10.08c0-1.1.07-2.72.22-4.86s.32-4.55.52-7.24.45-5.5.75-8.44.62-5.68,1-8.22.7-4.77,1.05-6.72a10.38,10.38,0,0,1,1.27-3.95,17.57,17.57,0,0,1,6-5.83,43.2,43.2,0,0,1,8.74-4.18,58.13,58.13,0,0,1,9.56-2.47,52.19,52.19,0,0,1,8.43-.82,37.46,37.46,0,0,1,17.1,3.66A35.42,35.42,0,0,1,93.33,291a41.29,41.29,0,0,1,7.17,14.26A61.06,61.06,0,0,1,102.82,322.16Zm-25.1,4.33a20.28,20.28,0,0,0-1.19-6.72,22.54,22.54,0,0,0-3.36-6.27,17,17,0,0,0-5.23-4.56,13.71,13.71,0,0,0-6.79-1.72,15.44,15.44,0,0,0-6.43,1.5c-.5.3-.94,1.22-1.34,2.76a41.67,41.67,0,0,0-1,5.6q-.37,3.29-.67,7.17c-.2,2.59-.33,5.06-.38,7.39s-.1,4.41-.15,6.2-.07,3-.07,3.59v4.4c0,1.94.07,3.86.22,5.75s.33,3.54.53,4.93.54,2.09,1,2.09a14.23,14.23,0,0,0,8.89-3.51,41.49,41.49,0,0,0,8-8.59,49.94,49.94,0,0,0,5.75-10.6A26.71,26.71,0,0,0,77.72,326.49Z"/><path class="cls-4" d="M159.72,288a10.11,10.11,0,0,1-1.27,5.08,12.34,12.34,0,0,1-3.36,3.8,20.94,20.94,0,0,1-4.63,2.62,25,25,0,0,1-4.93,1.49q-.3,16.88-1.27,32.56t-3.06,32.41h.9a21.77,21.77,0,0,1,4.7.52,12.05,12.05,0,0,1,4.18,1.8,9.91,9.91,0,0,1,3,3.13,8.71,8.71,0,0,1,1.12,4.56,8.91,8.91,0,0,1-2.16,6,18.14,18.14,0,0,1-5.68,4.33,41.25,41.25,0,0,1-7.84,3,77,77,0,0,1-8.66,1.87q-4.34.68-8.22,1t-6.27.3q-1.8,0-4.41-.15a19.65,19.65,0,0,1-4.93-.9,10.58,10.58,0,0,1-4-2.24,5.16,5.16,0,0,1-1.65-4,12.12,12.12,0,0,1,1.27-5.6A16.09,16.09,0,0,1,106,375a17.59,17.59,0,0,1,4.71-3.13,26.52,26.52,0,0,1,5.3-1.8q1-8.21,1.94-16.35t1.2-16.51q.29-8.5.59-16.8t.6-16.65c-.7.1-1.34.17-1.94.22s-1.15.08-1.64.08a24.2,24.2,0,0,1-4.48-.45,15.29,15.29,0,0,1-4.48-1.57,12,12,0,0,1-3.51-2.76,6.16,6.16,0,0,1-1.42-4.18,10.15,10.15,0,0,1,4.25-8.37,31.23,31.23,0,0,1,10.16-5.07,65.77,65.77,0,0,1,12-2.47,94.05,94.05,0,0,1,9.86-.67c1.39,0,3.23.1,5.53.3a32.65,32.65,0,0,1,6.79,1.34,19.91,19.91,0,0,1,5.83,2.84A5.76,5.76,0,0,1,159.72,288Z"/><path class="cls-4" d="M233.8,290.5a61.63,61.63,0,0,1-1.34,12q-1.35,6.64-3.36,13.52t-4.34,13.36c-1.54,4.34-2.91,8.24-4.1,11.73q-1.2,3.28-2.62,8.14t-3.28,10.23q-1.87,5.37-4.11,10.75a64.24,64.24,0,0,1-4.93,9.64,29.53,29.53,0,0,1-5.9,6.94,10.63,10.63,0,0,1-6.94,2.69,8.68,8.68,0,0,1-6-2.84,34.77,34.77,0,0,1-5.53-7.24,83.85,83.85,0,0,1-4.93-9.86q-2.31-5.44-4.18-10.68t-3.14-9.71c-.84-3-1.47-5.27-1.86-6.87q-3-11.64-5.68-23.52A107.68,107.68,0,0,1,158.82,295q0-3,.3-6.2a18.62,18.62,0,0,1,1.5-5.9,11.39,11.39,0,0,1,3.36-4.41,9.53,9.53,0,0,1,6.05-1.71q3.28,0,6,3.66a39,39,0,0,1,5,9.48,123.54,123.54,0,0,1,4.11,13q1.86,7.17,3.51,14.12t3.13,13a68.84,68.84,0,0,0,3,9.63q.9-3,2.61-8.73t4-12.62q2.31-6.87,5.07-14.12A125.66,125.66,0,0,1,212.37,291a47.81,47.81,0,0,1,6.35-9.63q3.27-3.74,6.72-3.74a6.92,6.92,0,0,1,4.18,1.2,8,8,0,0,1,2.54,3.13,16.33,16.33,0,0,1,1.27,4.19A27.23,27.23,0,0,1,233.8,290.5Z"/><path class="cls-4" d="M301.16,365.92a11.31,11.31,0,0,1-1.49,5.53q-1.5,2.54-7,6a108.45,108.45,0,0,1-12.25,6.5q-6.72,3.06-13,5.23c-4.19,1.44-7.27,2.16-9.26,2.16a15.47,15.47,0,0,1-4.93-1,40.47,40.47,0,0,1-5.68-2.46,28.88,28.88,0,0,1-5.15-3.44,10,10,0,0,1-4.48-7.91c-.35-2.1-.65-4.53-.9-7.32s-.47-5.75-.67-8.89-.37-6.12-.52-9-.25-5.35-.3-7.54-.08-3.79-.08-4.78q0-5.52.38-12.7t1.42-14.41A92.42,92.42,0,0,1,240.3,298a36.56,36.56,0,0,1,5.45-11.28,11.84,11.84,0,0,1,4.18-2.83,56.61,56.61,0,0,1,7.39-2.84c2.84-.9,5.9-1.74,9.19-2.54s6.44-1.47,9.48-2,5.8-1,8.29-1.34a44.07,44.07,0,0,1,5.68-.52,9.62,9.62,0,0,1,4.25,1,10.47,10.47,0,0,1,3.44,2.61,13.49,13.49,0,0,1,2.24,3.66,11.11,11.11,0,0,1,.82,4.26,9,9,0,0,1-.52,3.28,17.47,17.47,0,0,1-1.57,3c-1,1.29-3.09,2.84-6.27,4.63s-6.65,3.56-10.38,5.3-7.32,3.31-10.76,4.7-5.85,2.39-7.24,3q-.6,3.44-1.27,6.95a67.13,67.13,0,0,0-1,7.09,88.61,88.61,0,0,1,10.45-4.48,32.88,32.88,0,0,1,11.06-2.09q10.61,0,10.6,10.46a9.88,9.88,0,0,1-1,4.48,12.24,12.24,0,0,1-2.54,3.43,17,17,0,0,1-3.58,2.61c-1.35.75-2.67,1.48-4,2.17a76.26,76.26,0,0,1-10,4.41q-5.22,1.86-10.45,3.65c-.2.8-.4,1.67-.6,2.62a13.39,13.39,0,0,0-.3,2.76,29.28,29.28,0,0,0,.3,4.18l.6,4.19,5.75-1.95c2.63-.89,5.4-1.79,8.29-2.68s5.67-1.67,8.36-2.32a28.33,28.33,0,0,1,6-1,9.22,9.22,0,0,1,4.19,1,10.33,10.33,0,0,1,3.28,2.54,12.8,12.8,0,0,1,2.17,3.66A11.51,11.51,0,0,1,301.16,365.92Z"/><path class="cls-4" d="M380.77,310.81A36.22,36.22,0,0,1,376,329.33a51.54,51.54,0,0,1-12.7,14.49q2.38,3.58,4.93,8.36a90.76,90.76,0,0,1,4.56,10.08,87.9,87.9,0,0,1,3.28,10.61,42,42,0,0,1,1.27,9.78,16.23,16.23,0,0,1-2.31,8.59c-1.55,2.54-4.16,3.81-7.85,3.81q-4.62,0-8-4.48a50.35,50.35,0,0,1-6-10.68q-2.61-6.19-4.78-12.62A81.93,81.93,0,0,0,344.32,357q-2.69.9-5.22,2c-1.7.74-3.44,1.47-5.23,2.16-.1,2.19-.28,5.21-.52,9a74,74,0,0,1-1.65,11.42,32.19,32.19,0,0,1-3.81,9.86,7.84,7.84,0,0,1-7,4.18,8.62,8.62,0,0,1-7.61-4,26.63,26.63,0,0,1-3.81-9.56,64.82,64.82,0,0,1-1.27-11.27q-.15-5.76-.15-9,0-7,.3-13.82t.3-13.81q0-6.42-.23-12.85t-.22-13v-3.81c0-1.54.07-3.14.22-4.78s.33-3.21.53-4.7a10,10,0,0,1,1-3.59q1.5-3.13,6.8-6a77.32,77.32,0,0,1,11.65-5A105.11,105.11,0,0,1,340.81,277a49.34,49.34,0,0,1,9-1.27,30.33,30.33,0,0,1,13.44,2.84,28,28,0,0,1,9.71,7.69,33.28,33.28,0,0,1,5.82,11.2A45.32,45.32,0,0,1,380.77,310.81Zm-27.63,2.09a8.59,8.59,0,0,0-1.8-5.9c-1.19-1.34-3.13-2-5.82-2a18.57,18.57,0,0,0-6,1,38.48,38.48,0,0,0-5.6,2.39q.6,11.81.45,23.45a48.93,48.93,0,0,0,6.42-2.69,29.25,29.25,0,0,0,6.05-4,22.07,22.07,0,0,0,4.55-5.38A13,13,0,0,0,353.14,312.9Z"/><path class="cls-4" d="M450.66,287.36a9.66,9.66,0,0,1-2.91,6.8,29.63,29.63,0,0,1-7,5.37,50.06,50.06,0,0,1-8.44,3.81,60.08,60.08,0,0,1-7.17,2.09q-1.19,11.51-1.86,22.93t-.67,22.92q0,6.14.29,12.1t.3,11.95a36.76,36.76,0,0,1-.52,5.9,24.63,24.63,0,0,1-1.79,6,13.71,13.71,0,0,1-3.51,4.78,8.18,8.18,0,0,1-5.53,1.94,8.7,8.7,0,0,1-6.2-2.17,14.62,14.62,0,0,1-3.58-5.3,26.46,26.46,0,0,1-1.72-6.64,50.41,50.41,0,0,1-.45-6.35q-.3-9-.44-18t-.15-18.15q0-7.61.07-14.93t.08-14.94q-2.1.3-4.26.45c-1.45.1-2.91.15-4.41.15a38.38,38.38,0,0,1-4.7-.37,26.16,26.16,0,0,1-5.6-1.35,13.93,13.93,0,0,1-4.63-2.69,5.58,5.58,0,0,1-1.94-4.4,10.52,10.52,0,0,1,3.51-7.84,31.78,31.78,0,0,1,9-5.83,75.33,75.33,0,0,1,12.09-4.18,130.62,130.62,0,0,1,13.15-2.69q6.5-1,11.95-1.42t8.43-.44c1.9,0,3.91.07,6.05.22a21.71,21.71,0,0,1,6,1.27,11.57,11.57,0,0,1,4.71,3.14A8.44,8.44,0,0,1,450.66,287.36Z"/><path class="cls-4" d="M494.57,288A10.11,10.11,0,0,1,493.3,293a12.09,12.09,0,0,1-3.36,3.8,20.71,20.71,0,0,1-4.63,2.62,24.94,24.94,0,0,1-4.92,1.49q-.3,16.88-1.27,32.56t-3.07,32.41h.9a21.93,21.93,0,0,1,4.71.52,12.14,12.14,0,0,1,4.18,1.8,9.88,9.88,0,0,1,3,3.13,8.71,8.71,0,0,1,1.12,4.56,8.91,8.91,0,0,1-2.16,6,18.14,18.14,0,0,1-5.68,4.33,41.25,41.25,0,0,1-7.84,3,76.54,76.54,0,0,1-8.66,1.87q-4.34.68-8.21,1c-2.59.2-4.69.3-6.28.3-1.19,0-2.66-.05-4.4-.15a19.49,19.49,0,0,1-4.93-.9,10.55,10.55,0,0,1-4-2.24,5.19,5.19,0,0,1-1.64-4,12,12,0,0,1,1.27-5.6,15.7,15.7,0,0,1,3.36-4.41,17.53,17.53,0,0,1,4.7-3.13,26.52,26.52,0,0,1,5.3-1.8q1.05-8.21,1.95-16.35T454,337.24q.3-8.5.6-16.8t.59-16.65c-.69.1-1.34.17-1.94.22a16.16,16.16,0,0,1-1.64.08,24.2,24.2,0,0,1-4.48-.45,15.4,15.4,0,0,1-4.48-1.57,12,12,0,0,1-3.51-2.76,6.16,6.16,0,0,1-1.42-4.18,10.13,10.13,0,0,1,4.26-8.37,31.18,31.18,0,0,1,10.15-5.07,65.87,65.87,0,0,1,12-2.47,93.89,93.89,0,0,1,9.85-.67c1.4,0,3.24.1,5.53.3a32.74,32.74,0,0,1,6.8,1.34,19.73,19.73,0,0,1,5.82,2.84A5.76,5.76,0,0,1,494.57,288Z"/><path class="cls-4" d="M573.58,322.16a62.12,62.12,0,0,1-5.37,25.32,74.3,74.3,0,0,1-14.42,21.58,69.82,69.82,0,0,1-21.06,15,59.27,59.27,0,0,1-25.31,5.6h-.3a5.18,5.18,0,0,1-4.41-2.47A23.32,23.32,0,0,1,499.8,381a47.27,47.27,0,0,1-1.79-8.37c-.4-3.08-.7-6.1-.9-9s-.3-5.58-.3-7.92v-5.3q0-5.08.15-10.08t.45-10.08c0-1.1.08-2.72.23-4.86s.32-4.55.52-7.24.45-5.5.75-8.44.62-5.68,1-8.22.69-4.77,1-6.72a10.56,10.56,0,0,1,1.27-3.95,17.6,17.6,0,0,1,6-5.83,43.12,43.12,0,0,1,8.73-4.18,58.39,58.39,0,0,1,9.56-2.47,52.4,52.4,0,0,1,8.44-.82,37.49,37.49,0,0,1,17.1,3.66A35.52,35.52,0,0,1,564.1,291a41.64,41.64,0,0,1,7.17,14.26A61.06,61.06,0,0,1,573.58,322.16Zm-25.09,4.33a20.54,20.54,0,0,0-1.19-6.72,22.54,22.54,0,0,0-3.36-6.27,17.15,17.15,0,0,0-5.23-4.56,13.72,13.72,0,0,0-6.8-1.72,15.39,15.39,0,0,0-6.42,1.5c-.5.3-1,1.22-1.34,2.76a40.14,40.14,0,0,0-1,5.6q-.37,3.29-.68,7.17c-.2,2.59-.32,5.06-.37,7.39s-.1,4.41-.15,6.2-.07,3-.07,3.59v4.4c0,1.94.07,3.86.22,5.75s.32,3.54.52,4.93.55,2.09,1.05,2.09a14.23,14.23,0,0,0,8.89-3.51,41.49,41.49,0,0,0,8-8.59,49.94,49.94,0,0,0,5.75-10.6A26.71,26.71,0,0,0,548.49,326.49Z"/><path class="cls-4" d="M614.51,394.3a27.55,27.55,0,0,1-15.84-4.56,36.08,36.08,0,0,1-11.12-12.24A61.36,61.36,0,0,1,581,359.65a101.78,101.78,0,0,1-2.17-21.36,100.16,100.16,0,0,1,2.32-21.21,70.44,70.44,0,0,1,7.09-19.41,44.25,44.25,0,0,1,12.1-14.19A28.12,28.12,0,0,1,617.79,278q9.86,0,16.51,5.3A37.83,37.83,0,0,1,644.9,297a71.89,71.89,0,0,1,5.68,18.9,129.34,129.34,0,0,1,1.71,20.91,101.26,101.26,0,0,1-2.31,22,62.22,62.22,0,0,1-7,18.29,37.69,37.69,0,0,1-11.8,12.55A29.83,29.83,0,0,1,614.51,394.3ZM616.3,311a6.34,6.34,0,0,0-4.86,2.24,18.11,18.11,0,0,0-3.36,5.9,38.78,38.78,0,0,0-1.94,8.21,70.33,70.33,0,0,0-.59,9.19,81.36,81.36,0,0,0,.67,10.45,53.33,53.33,0,0,0,2,9.41,21.29,21.29,0,0,0,3.36,6.72,6,6,0,0,0,4.86,2.54,5.88,5.88,0,0,0,5.23-3.28,29.08,29.08,0,0,0,3.06-7.92,60.51,60.51,0,0,0,1.49-9.56q.38-4.92.37-8.21a73.36,73.36,0,0,0-.52-8.52,44.86,44.86,0,0,0-1.72-8.28,20.36,20.36,0,0,0-3.13-6.35A6,6,0,0,0,616.3,311Z"/><path class="cls-4" d="M521.16,449.1C399.94,575,278.34,574.15,156.4,449c-3.26-3.34-4.34-8-.51-10.72h0a6.34,6.34,0,0,1,6.48-.44c116.19,58.46,233.69,59,352.53,0a6.38,6.38,0,0,1,6.46.46l.2.14C525.35,441.08,524.36,445.78,521.16,449.1Z"/><path class="cls-4" d="M509,422.09c32.09-15.74,38.6.09,31.16,33.13C539.54,429.73,529.2,418.62,509,422.09Z"/><path class="cls-4" d="M168.59,422.09c-32.1-15.74-38.61.09-31.17,33.13C138.05,429.73,148.4,418.62,168.59,422.09Z"/></svg>