<svg id="Camada_1" data-name="Camada 1" xmlns="http://www.w3.org/2000/svg" viewBox="0 0 676.71 681.18"><defs><style>.cls-1{fill:#fff;}.cls-2{fill:#6f12dc;}.cls-3{fill:#f00271;}.cls-4,.cls-5,.cls-6{fill:#eaa94d;}.cls-5{font-size:96.51px;}.cls-5,.cls-6{font-family:Chewy-Regular, Chewy;}.cls-6{font-size:152.94px;letter-spacing:-0.01em;}.cls-7{letter-spacing:0em;}</style></defs><rect class="cls-1" x="-5.81" y="-4.67" width="688.38" height="686.79"/><path class="cls-2" d="M363.82,682.12H682.56V318.62C652.5,546.06,542.92,662.58,363.82,682.12Z"/><path class="cls-3" d="M363.82-4.67H682.56V358.84C652.5,131.4,542.92,14.87,363.82-4.67Z"/><path class="cls-3" d="M328.05,685.46H-6.64V320.19C24.93,548.73,140,665.83,328.05,685.46Z"/><path class="cls-4" d="M328.88-4.67H-5.81V360.6C25.75,132.06,140.81,15,328.88-4.67Z"/><path class="cls-3" d="M569.22,96.55A333.67,333.67,0,0,0,5.13,337.87c0,2.73,0,5.45.1,8.16A332.47,332.47,0,0,0,97.48,568.29,332.73,332.73,0,0,1-5.76,327C-5.76,142.7,143.63-6.68,327.9-6.68q5.48,0,10.9.17A332.68,332.68,0,0,1,569.22,96.55Z"/><path class="cls-2" d="M683.35,327A332.63,332.63,0,0,1,580.11,568.29,332.42,332.42,0,0,0,672.36,346q.1-4.06.1-8.16A333.67,333.67,0,0,0,108.37,96.55,332.69,332.69,0,0,1,338.8-6.51q5.42-.17,10.89-.17C534-6.68,683.35,142.7,683.35,327Z"/><path class="cls-4" d="M672.46,354.2a333.38,333.38,0,0,1-18.61,110.16c-45.51,130.15-169.38,223.51-315,223.51s-269.55-93.36-315-223.51A333.13,333.13,0,0,1,5.13,354.2c0-2.73,0-5.45.1-8.17a333.67,333.67,0,0,0,667.13,0Q672.46,350.11,672.46,354.2Z"/><text class="cls-5" transform="translate(187.71 253.24)">SORRISO</text><text class="cls-6" transform="translate(21.42 389.37)">D<tspan class="cls-7" x="82.15" y="0">IVERTIDO</tspan></text><path class="cls-4" d="M521.16,449.1C399.94,575,278.34,574.15,156.4,449c-3.26-3.34-4.34-8-.51-10.72h0a6.34,6.34,0,0,1,6.48-.44c116.19,58.46,233.69,59,352.53,0a6.38,6.38,0,0,1,6.46.46l.2.14C525.35,441.08,524.36,445.78,521.16,449.1Z"/><path class="cls-4" d="M509,422.09c32.09-15.74,38.6.09,31.16,33.13C539.54,429.73,529.2,418.62,509,422.09Z"/><path class="cls-4" d="M168.59,422.09c-32.1-15.74-38.61.09-31.17,33.13C138.05,429.73,148.4,418.62,168.59,422.09Z"/></svg>