<svg id="Camada_1" data-name="Camada 1" xmlns="http://www.w3.org/2000/svg" viewBox="0 0 675.84 681.18"><defs><style>.cls-1{fill:#fff;}</style></defs><path class="cls-1" d="M563.91,101.25A327.24,327.24,0,0,0,10.68,337.92q0,4,.1,8a326,326,0,0,0,90.47,218A326.22,326.22,0,0,1,0,327.24C0,146.51,146.51,0,327.24,0q5.36,0,10.68.17A326.25,326.25,0,0,1,563.91,101.25Z"/><path class="cls-1" d="M675.84,327.24A326.22,326.22,0,0,1,574.59,563.91a326.06,326.06,0,0,0,90.48-218q.09-4,.09-8A327.24,327.24,0,0,0,111.93,101.25,326.27,326.27,0,0,1,337.92.17Q343.25,0,348.6,0C529.33,0,675.84,146.51,675.84,327.24Z"/><path class="cls-1" d="M665.16,353.94a326.92,326.92,0,0,1-18.25,108c-44.63,127.64-166.12,219.2-309,219.2S73.56,589.62,28.93,462a326.92,326.92,0,0,1-18.25-108q0-4,.1-8a327.24,327.24,0,0,0,654.29,0Q665.16,349.92,665.16,353.94Z"/><path class="cls-1" d="M222.74,190a5.49,5.49,0,0,1-1.34,3.7,11.18,11.18,0,0,1-3.19,2.59c-1.11.67-2.25,1.4-3.42,2.17a21.44,21.44,0,0,0-3.23,2.59,12.53,12.53,0,0,0-2.41,3.19,8.45,8.45,0,0,0-.92,4,6.84,6.84,0,0,0,.92,3.51,20.92,20.92,0,0,0,2.27,3.1q1.34,1.53,3,3.14a25.1,25.1,0,0,1,3,3.61,21.35,21.35,0,0,1,2.26,4.48,16.56,16.56,0,0,1,0,11,33.16,33.16,0,0,1-2.63,5.87,40.53,40.53,0,0,1-3.93,5.73,37.61,37.61,0,0,1-4.81,4.94,24.83,24.83,0,0,1-5.31,3.52,12.36,12.36,0,0,1-5.36,1.34,8.59,8.59,0,0,1-5.09-1.58,5.37,5.37,0,0,1-2.21-4.71,7.83,7.83,0,0,1,1-3.93,19.66,19.66,0,0,1,2.5-3.46,35.94,35.94,0,0,1,3.28-3.24c1.2-1.05,2.29-2.09,3.28-3.14a18.88,18.88,0,0,0,2.5-3.28,7.11,7.11,0,0,0,1-3.66,9.93,9.93,0,0,0-1.89-5.5c-1.27-1.87-2.67-3.82-4.21-5.82a64.33,64.33,0,0,1-4.2-6.15,12.15,12.15,0,0,1-1.9-6.37,19.21,19.21,0,0,1,2.13-8.37,33.25,33.25,0,0,1,5.45-8,31.4,31.4,0,0,1,7.49-6.06,16.35,16.35,0,0,1,8.23-2.4,8.36,8.36,0,0,1,5.54,1.94A6.53,6.53,0,0,1,222.74,190Z"/><path class="cls-1" d="M247.15,258a17,17,0,0,1-9.8-2.82,22.36,22.36,0,0,1-6.89-7.58,38.12,38.12,0,0,1-4.07-11,63.52,63.52,0,0,1-1.34-13.22,62,62,0,0,1,1.44-13.13,43.44,43.44,0,0,1,4.39-12,27.41,27.41,0,0,1,7.48-8.78A17.45,17.45,0,0,1,249.18,186a15.88,15.88,0,0,1,10.21,3.28,23.41,23.41,0,0,1,6.57,8.51,44.51,44.51,0,0,1,3.51,11.69,79.63,79.63,0,0,1,1.06,12.94A62.85,62.85,0,0,1,269.1,236a38.46,38.46,0,0,1-4.34,11.32,23.35,23.35,0,0,1-7.31,7.77A18.4,18.4,0,0,1,247.15,258Zm1.11-51.58a3.88,3.88,0,0,0-3,1.39,11.22,11.22,0,0,0-2.08,3.65,24.12,24.12,0,0,0-1.2,5.08,43.15,43.15,0,0,0-.37,5.69,50.2,50.2,0,0,0,.42,6.47,32.29,32.29,0,0,0,1.24,5.82,13.13,13.13,0,0,0,2.08,4.16,3.74,3.74,0,0,0,3,1.57,3.62,3.62,0,0,0,3.23-2,17.76,17.76,0,0,0,1.9-4.9,36.73,36.73,0,0,0,.92-5.92c.16-2,.23-3.72.23-5.08a44.66,44.66,0,0,0-.32-5.27,28.52,28.52,0,0,0-1.06-5.13,12.88,12.88,0,0,0-1.94-3.93A3.72,3.72,0,0,0,248.26,206.39Z"/><path class="cls-1" d="M320.82,206.3a22.39,22.39,0,0,1-3,11.46,31.78,31.78,0,0,1-7.86,9,57,57,0,0,1,3.05,5.18,54.36,54.36,0,0,1,2.82,6.23,53.34,53.34,0,0,1,2,6.57,26.29,26.29,0,0,1,.78,6,10,10,0,0,1-1.43,5.32c-1,1.57-2.57,2.35-4.85,2.35a6.07,6.07,0,0,1-5-2.77,31.48,31.48,0,0,1-3.7-6.61c-1.07-2.55-2.06-5.16-2.95-7.81a53.09,53.09,0,0,0-2.55-6.38c-1.1.37-2.18.79-3.23,1.25s-2.13.91-3.24,1.34c-.06,1.36-.17,3.22-.32,5.59a44.62,44.62,0,0,1-1,7.07,20.27,20.27,0,0,1-2.35,6.11,4.87,4.87,0,0,1-4.35,2.58,5.34,5.34,0,0,1-4.71-2.49,16.45,16.45,0,0,1-2.36-5.92,41.32,41.32,0,0,1-.79-7c-.06-2.37-.09-4.23-.09-5.59q0-4.35.19-8.55t.18-8.55c0-2.65,0-5.3-.14-7.95s-.14-5.33-.14-8v-2.36c0-1,.05-1.94.14-3s.2-2,.33-2.91a6.3,6.3,0,0,1,.64-2.22q.93-1.93,4.21-3.7a48.11,48.11,0,0,1,7.21-3.09,67.71,67.71,0,0,1,7.67-2.13,30.37,30.37,0,0,1,5.59-.78,18.75,18.75,0,0,1,8.32,1.75,17.2,17.2,0,0,1,6,4.76,20.76,20.76,0,0,1,3.61,6.94A28.13,28.13,0,0,1,320.82,206.3Zm-17.1,1.29a5.33,5.33,0,0,0-1.11-3.65,4.62,4.62,0,0,0-3.61-1.25,11.55,11.55,0,0,0-3.74.65,24.62,24.62,0,0,0-3.47,1.48q.38,7.31.28,14.51a29.87,29.87,0,0,0,4-1.66,18.09,18.09,0,0,0,3.74-2.5,13.64,13.64,0,0,0,2.82-3.32A8.13,8.13,0,0,0,303.72,207.59Z"/><path class="cls-1" d="M369.16,206.3a22.38,22.38,0,0,1-3,11.46,32.09,32.09,0,0,1-7.86,9c1,1.48,2,3.2,3,5.18a54.36,54.36,0,0,1,2.82,6.23,53.27,53.27,0,0,1,2,6.57,26.34,26.34,0,0,1,.79,6,10,10,0,0,1-1.44,5.32q-1.43,2.35-4.85,2.35a6,6,0,0,1-4.94-2.77,31,31,0,0,1-3.7-6.61c-1.08-2.55-2.07-5.16-3-7.81a51.65,51.65,0,0,0-2.54-6.38c-1.11.37-2.19.79-3.24,1.25s-2.12.91-3.23,1.34c-.06,1.36-.17,3.22-.33,5.59a45.78,45.78,0,0,1-1,7.07,20.28,20.28,0,0,1-2.36,6.11,4.85,4.85,0,0,1-4.34,2.58,5.35,5.35,0,0,1-4.72-2.49,16.63,16.63,0,0,1-2.36-5.92,40.31,40.31,0,0,1-.78-7c-.06-2.37-.09-4.23-.09-5.59q0-4.35.18-8.55c.12-2.8.19-5.65.19-8.55q0-4-.14-7.95t-.14-8v-2.36c0-1,.05-1.94.14-3s.2-2,.32-2.91a6.29,6.29,0,0,1,.65-2.22c.61-1.29,2-2.52,4.2-3.7a48.11,48.11,0,0,1,7.21-3.09,67.28,67.28,0,0,1,7.68-2.13,30.26,30.26,0,0,1,5.59-.78,18.78,18.78,0,0,1,8.32,1.75,17.38,17.38,0,0,1,6,4.76A20.74,20.74,0,0,1,368,198,28.13,28.13,0,0,1,369.16,206.3Zm-17.1,1.29a5.33,5.33,0,0,0-1.11-3.65,4.61,4.61,0,0,0-3.6-1.25,11.66,11.66,0,0,0-3.75.65,24.49,24.49,0,0,0-3.46,1.48q.36,7.31.28,14.51a30.32,30.32,0,0,0,4-1.66,17.82,17.82,0,0,0,3.74-2.5,13.64,13.64,0,0,0,2.82-3.32A8.13,8.13,0,0,0,352.06,207.59Z"/><path class="cls-1" d="M404.38,192.16a6.3,6.3,0,0,1-.78,3.14,7.82,7.82,0,0,1-2.08,2.36,13.36,13.36,0,0,1-2.87,1.61,15.32,15.32,0,0,1-3,.93q-.18,10.44-.78,20.15t-1.9,20.06h.55a13.61,13.61,0,0,1,2.92.32,7.65,7.65,0,0,1,2.58,1.11,6.21,6.21,0,0,1,1.85,1.94,5.32,5.32,0,0,1,.7,2.82,5.54,5.54,0,0,1-1.34,3.7,11.34,11.34,0,0,1-3.52,2.68,25.1,25.1,0,0,1-4.85,1.85,48.88,48.88,0,0,1-5.36,1.16c-1.79.27-3.48.47-5.08.6s-2.9.18-3.89.18c-.74,0-1.65,0-2.72-.09a12,12,0,0,1-3.05-.56,6.6,6.6,0,0,1-2.45-1.38,3.21,3.21,0,0,1-1-2.5,7.54,7.54,0,0,1,.78-3.47,10.1,10.1,0,0,1,2.08-2.72,11,11,0,0,1,2.92-1.94A15.47,15.47,0,0,1,377.3,243q.65-5.08,1.2-10.12t.74-10.22q.18-5.26.37-10.4c.12-3.42.24-6.85.37-10.31-.43.07-.83.11-1.2.14a9.38,9.38,0,0,1-1,0,14.61,14.61,0,0,1-2.77-.28,9.57,9.57,0,0,1-2.78-1,7.55,7.55,0,0,1-2.17-1.71,3.85,3.85,0,0,1-.88-2.59,6.25,6.25,0,0,1,2.64-5.17,19.29,19.29,0,0,1,6.28-3.15,41.2,41.2,0,0,1,7.45-1.52,57.94,57.94,0,0,1,6.1-.42c.86,0,2,.07,3.42.19a19.77,19.77,0,0,1,4.2.83,12.26,12.26,0,0,1,3.61,1.76A3.57,3.57,0,0,1,404.38,192.16Z"/><path class="cls-1" d="M435.9,190a5.49,5.49,0,0,1-1.34,3.7,11.18,11.18,0,0,1-3.19,2.59c-1.11.67-2.25,1.4-3.42,2.17a21.44,21.44,0,0,0-3.23,2.59,12.27,12.27,0,0,0-2.4,3.19,8.34,8.34,0,0,0-.93,4,6.75,6.75,0,0,0,.93,3.51,20.14,20.14,0,0,0,2.26,3.1q1.34,1.53,3,3.14a24.45,24.45,0,0,1,3,3.61,21.35,21.35,0,0,1,2.26,4.48,16.56,16.56,0,0,1-.05,11,33.16,33.16,0,0,1-2.63,5.87,40.53,40.53,0,0,1-3.93,5.73,37.61,37.61,0,0,1-4.81,4.94,24.83,24.83,0,0,1-5.31,3.52,12.36,12.36,0,0,1-5.36,1.34,8.59,8.59,0,0,1-5.09-1.58,5.37,5.37,0,0,1-2.21-4.71,7.83,7.83,0,0,1,1-3.93,19.66,19.66,0,0,1,2.5-3.46,35.94,35.94,0,0,1,3.28-3.24c1.2-1.05,2.29-2.09,3.28-3.14a18.88,18.88,0,0,0,2.5-3.28,7.11,7.11,0,0,0,1-3.66,9.93,9.93,0,0,0-1.89-5.5c-1.26-1.87-2.67-3.82-4.21-5.82a64.33,64.33,0,0,1-4.2-6.15,12.15,12.15,0,0,1-1.9-6.37,19.21,19.21,0,0,1,2.13-8.37,33.53,33.53,0,0,1,5.45-8,31.4,31.4,0,0,1,7.49-6.06,16.35,16.35,0,0,1,8.23-2.4,8.36,8.36,0,0,1,5.54,1.94A6.53,6.53,0,0,1,435.9,190Z"/><path class="cls-1" d="M460.31,258a17,17,0,0,1-9.8-2.82,22.46,22.46,0,0,1-6.89-7.58,38.12,38.12,0,0,1-4.07-11,63.52,63.52,0,0,1-1.34-13.22,62,62,0,0,1,1.44-13.13,43.44,43.44,0,0,1,4.39-12,27.43,27.43,0,0,1,7.49-8.78A17.4,17.4,0,0,1,462.34,186a15.88,15.88,0,0,1,10.21,3.28,23.41,23.41,0,0,1,6.57,8.51,44.51,44.51,0,0,1,3.51,11.69,79.63,79.63,0,0,1,1.06,12.94A62.23,62.23,0,0,1,482.26,236a38.46,38.46,0,0,1-4.34,11.32,23.35,23.35,0,0,1-7.31,7.77A18.4,18.4,0,0,1,460.31,258Zm1.11-51.58a3.9,3.9,0,0,0-3,1.39,11.22,11.22,0,0,0-2.08,3.65,24.12,24.12,0,0,0-1.2,5.08,43.15,43.15,0,0,0-.37,5.69,50.2,50.2,0,0,0,.42,6.47,31.42,31.42,0,0,0,1.25,5.82,12.92,12.92,0,0,0,2.07,4.16,3.74,3.74,0,0,0,3,1.57,3.62,3.62,0,0,0,3.23-2,17.76,17.76,0,0,0,1.9-4.9,36.73,36.73,0,0,0,.92-5.92c.16-2,.23-3.72.23-5.08a44.66,44.66,0,0,0-.32-5.27,28.52,28.52,0,0,0-1.06-5.13,12.88,12.88,0,0,0-1.94-3.93A3.71,3.71,0,0,0,461.42,206.39Z"/><path class="cls-1" d="M106.48,322.52a60.84,60.84,0,0,1-5.27,24.82,72.75,72.75,0,0,1-14.14,21.17,68.44,68.44,0,0,1-20.65,14.72,58.14,58.14,0,0,1-24.83,5.49H41.3A5.07,5.07,0,0,1,37,386.31a22.49,22.49,0,0,1-2.86-6.08,46.62,46.62,0,0,1-1.76-8.2q-.59-4.54-.88-8.87c-.19-2.88-.29-5.46-.29-7.76v-5.2c0-3.32,0-6.61.15-9.89s.24-6.56.44-9.88c0-1.08.07-2.66.22-4.77s.31-4.46.51-7.1.44-5.39.73-8.28.61-5.56.95-8,.69-4.69,1-6.59a10.47,10.47,0,0,1,1.24-3.89A17.44,17.44,0,0,1,42.32,286a42.57,42.57,0,0,1,8.57-4.1,58.22,58.22,0,0,1,9.38-2.42,51.17,51.17,0,0,1,8.27-.8,36.71,36.71,0,0,1,16.78,3.59A34.75,34.75,0,0,1,97.18,292a40.69,40.69,0,0,1,7,14A59.88,59.88,0,0,1,106.48,322.52Zm-24.61,4.24a20.07,20.07,0,0,0-1.17-6.59A22.21,22.21,0,0,0,77.41,314a16.88,16.88,0,0,0-5.13-4.47,13.43,13.43,0,0,0-6.67-1.68,15.19,15.19,0,0,0-6.29,1.46c-.49.29-.93,1.2-1.32,2.71a40.61,40.61,0,0,0-1,5.49q-.37,3.23-.66,7c-.2,2.54-.32,4.95-.37,7.25s-.1,4.32-.15,6.08-.07,2.92-.07,3.51v4.32c0,1.91.07,3.79.22,5.64s.32,3.47.51,4.84.54,2.05,1,2.05a13.92,13.92,0,0,0,8.71-3.45,40.4,40.4,0,0,0,7.84-8.42A49.19,49.19,0,0,0,79.75,336,26.26,26.26,0,0,0,81.87,326.76Z"/><path class="cls-1" d="M162.29,289a10,10,0,0,1-1.24,5,12,12,0,0,1-3.3,3.74,20.72,20.72,0,0,1-4.54,2.56,24.68,24.68,0,0,1-4.83,1.46q-.3,16.56-1.25,31.94t-3,31.78H145a21,21,0,0,1,4.61.52,12,12,0,0,1,4.1,1.75,9.77,9.77,0,0,1,2.93,3.08,8.56,8.56,0,0,1,1.1,4.47,8.76,8.76,0,0,1-2.12,5.86,18.13,18.13,0,0,1-5.57,4.25,40.86,40.86,0,0,1-7.69,2.92,73.31,73.31,0,0,1-8.5,1.84c-2.83.44-5.51.75-8.05.95s-4.59.29-6.15.29c-1.18,0-2.62-.05-4.33-.15a19.22,19.22,0,0,1-4.83-.87,10.56,10.56,0,0,1-3.88-2.2,5.06,5.06,0,0,1-1.61-4,11.81,11.81,0,0,1,1.24-5.49,15.62,15.62,0,0,1,3.3-4.32,17.37,17.37,0,0,1,4.61-3.08,26.09,26.09,0,0,1,5.2-1.75q1-8.06,1.91-16t1.17-16.19q.28-8.35.58-16.48t.59-16.33c-.68.1-1.32.17-1.9.22s-1.13.07-1.62.07a24.17,24.17,0,0,1-4.39-.44,14.79,14.79,0,0,1-4.39-1.54,11.82,11.82,0,0,1-3.45-2.71,6.08,6.08,0,0,1-1.39-4.1,9.92,9.92,0,0,1,4.18-8.2,30.62,30.62,0,0,1,10-5,64.76,64.76,0,0,1,11.79-2.42,92.58,92.58,0,0,1,9.67-.66c1.36,0,3.17.1,5.42.3a31.53,31.53,0,0,1,6.66,1.31,19.61,19.61,0,0,1,5.71,2.79A5.62,5.62,0,0,1,162.29,289Z"/><path class="cls-1" d="M235,291.46a59.84,59.84,0,0,1-1.32,11.79q-1.32,6.53-3.3,13.26t-4.25,13.11q-2.27,6.38-4,11.5-1.17,3.22-2.56,8t-3.22,10q-1.83,5.26-4,10.54a63.12,63.12,0,0,1-4.83,9.45,29.07,29.07,0,0,1-5.79,6.81,10.4,10.4,0,0,1-6.81,2.64,8.48,8.48,0,0,1-5.93-2.79,33.62,33.62,0,0,1-5.42-7.1,81.4,81.4,0,0,1-4.84-9.67q-2.26-5.34-4.1-10.47T171.45,349c-.83-2.93-1.45-5.18-1.84-6.74q-2.93-11.43-5.56-23.07a105.33,105.33,0,0,1-2.64-23.36c0-2,.1-4,.3-6.08a18.25,18.25,0,0,1,1.46-5.79,11.15,11.15,0,0,1,3.3-4.32A9.32,9.32,0,0,1,172.4,278c2.15,0,4.12,1.19,5.93,3.58a38.48,38.48,0,0,1,4.91,9.31,121.89,121.89,0,0,1,4,12.74q1.83,7,3.44,13.84t3.07,12.75a68.77,68.77,0,0,0,2.93,9.44c.59-1.95,1.44-4.81,2.57-8.57s2.44-7.88,3.95-12.37,3.17-9.11,5-13.85A123.67,123.67,0,0,1,213.93,292a47.2,47.2,0,0,1,6.22-9.44c2.15-2.44,4.34-3.67,6.59-3.67a6.79,6.79,0,0,1,4.1,1.18,7.6,7.6,0,0,1,2.49,3.07,16.16,16.16,0,0,1,1.25,4.1A26.46,26.46,0,0,1,235,291.46Z"/><path class="cls-1" d="M301,365.43a11,11,0,0,1-1.47,5.42q-1.46,2.5-6.88,5.86a105.92,105.92,0,0,1-12,6.37c-4.4,2-8.64,3.72-12.75,5.13s-7.13,2.13-9.08,2.13a15.11,15.11,0,0,1-4.83-1,39.39,39.39,0,0,1-5.57-2.41,28.65,28.65,0,0,1-5-3.37,9.82,9.82,0,0,1-4.4-7.77q-.51-3.07-.88-7.17c-.24-2.74-.46-5.64-.65-8.72s-.37-6-.52-8.79-.24-5.25-.29-7.4-.07-3.71-.07-4.68c0-3.61.12-7.77.36-12.45s.71-9.4,1.39-14.14a92.86,92.86,0,0,1,3-13.62,35.81,35.81,0,0,1,5.34-11.06,11.64,11.64,0,0,1,4.1-2.78,56.61,56.61,0,0,1,7.26-2.79c2.78-.88,5.78-1.7,9-2.49s6.33-1.44,9.31-2,5.68-1,8.13-1.32a44.15,44.15,0,0,1,5.56-.52,9.45,9.45,0,0,1,4.18,1,10.4,10.4,0,0,1,3.37,2.56,13.2,13.2,0,0,1,2.19,3.59,10.91,10.91,0,0,1,.81,4.17,9,9,0,0,1-.51,3.23,18.28,18.28,0,0,1-1.54,2.93q-1.47,1.9-6.15,4.54t-10.19,5.2q-5.49,2.56-10.54,4.61c-3.37,1.37-5.74,2.34-7.11,2.93q-.58,3.38-1.24,6.81a65,65,0,0,0-1,7A83.68,83.68,0,0,1,272.59,320,32.06,32.06,0,0,1,283.43,318q10.4,0,10.4,10.26a9.75,9.75,0,0,1-.95,4.39,12.18,12.18,0,0,1-2.49,3.37,17,17,0,0,1-3.52,2.56q-2,1.11-3.88,2.13a74.39,74.39,0,0,1-9.81,4.32q-5.13,1.83-10.26,3.59c-.19.78-.39,1.64-.58,2.56a12.85,12.85,0,0,0-.3,2.71,28.18,28.18,0,0,0,.3,4.1c.19,1.37.39,2.74.58,4.11l5.64-1.91q3.88-1.32,8.13-2.64c2.83-.87,5.57-1.63,8.2-2.27a28.27,28.27,0,0,1,5.86-.95,9.13,9.13,0,0,1,4.11.95,10.46,10.46,0,0,1,3.22,2.49,12.66,12.66,0,0,1,2.12,3.59A11.12,11.12,0,0,1,301,365.43Z"/><path class="cls-1" d="M379.08,311.38a35.42,35.42,0,0,1-4.69,18.17,50.25,50.25,0,0,1-12.45,14.2,94.79,94.79,0,0,1,4.84,8.21,87.7,87.7,0,0,1,7.69,20.28,41.46,41.46,0,0,1,1.24,9.6,15.81,15.81,0,0,1-2.27,8.42c-1.51,2.49-4.08,3.74-7.69,3.74q-4.54,0-7.83-4.4a48.88,48.88,0,0,1-5.86-10.47q-2.56-6.08-4.69-12.38a81.92,81.92,0,0,0-4-10.1q-2.64.87-5.13,2c-1.66.74-3.37,1.44-5.12,2.13q-.15,3.22-.52,8.86a72.31,72.31,0,0,1-1.61,11.2,31.82,31.82,0,0,1-3.73,9.67,7.71,7.71,0,0,1-6.89,4.1,8.46,8.46,0,0,1-7.47-3.95,26.14,26.14,0,0,1-3.73-9.38,64.35,64.35,0,0,1-1.25-11.05c-.1-3.76-.14-6.72-.14-8.87q0-6.88.29-13.55t.29-13.55q0-6.28-.22-12.59t-.22-12.75v-3.73c0-1.52.08-3.08.22-4.69s.32-3.15.52-4.61a9.89,9.89,0,0,1,1-3.52q1.47-3.07,6.66-5.86a77.81,77.81,0,0,1,11.43-4.91,106.51,106.51,0,0,1,12.16-3.37,48.45,48.45,0,0,1,8.86-1.24,29.81,29.81,0,0,1,13.18,2.78,27.46,27.46,0,0,1,9.53,7.55,32.8,32.8,0,0,1,5.71,11A44.55,44.55,0,0,1,379.08,311.38ZM352,313.43a8.41,8.41,0,0,0-1.76-5.78q-1.75-2-5.71-2a18.11,18.11,0,0,0-5.93,1,37.44,37.44,0,0,0-5.49,2.34q.59,11.56.44,23a48.47,48.47,0,0,0,6.3-2.64,28.76,28.76,0,0,0,5.93-3.95,21.86,21.86,0,0,0,4.46-5.28A12.76,12.76,0,0,0,352,313.43Z"/><path class="cls-1" d="M447.63,288.39a9.46,9.46,0,0,1-2.85,6.66,29.2,29.2,0,0,1-6.89,5.27,49.68,49.68,0,0,1-8.27,3.74,61,61,0,0,1-7,2.05q-1.18,11.28-1.83,22.48t-.66,22.49q0,6,.29,11.86t.29,11.72a36.44,36.44,0,0,1-.51,5.79,23.68,23.68,0,0,1-1.76,5.93,13.32,13.32,0,0,1-3.44,4.69,8,8,0,0,1-5.42,1.9,8.56,8.56,0,0,1-6.08-2.12,14.36,14.36,0,0,1-3.51-5.2,25.52,25.52,0,0,1-1.69-6.52,50.11,50.11,0,0,1-.44-6.23q-.3-8.77-.44-17.65c-.1-5.9-.14-11.84-.14-17.79q0-7.47.07-14.65t.07-14.65c-1.37.2-2.76.34-4.17.44s-2.86.15-4.32.15a39,39,0,0,1-4.62-.37,25.28,25.28,0,0,1-5.49-1.32,13.67,13.67,0,0,1-4.54-2.64,5.5,5.5,0,0,1-1.91-4.32,10.32,10.32,0,0,1,3.45-7.69,31.07,31.07,0,0,1,8.79-5.71,72.83,72.83,0,0,1,11.86-4.1A127.69,127.69,0,0,1,409.33,280q6.38-.94,11.72-1.39t8.27-.44q2.79,0,5.94.22a21.29,21.29,0,0,1,5.93,1.25,11.34,11.34,0,0,1,4.61,3.07A8.31,8.31,0,0,1,447.63,288.39Z"/><path class="cls-1" d="M490.7,289a10,10,0,0,1-1.24,5,12.17,12.17,0,0,1-3.3,3.74,20.72,20.72,0,0,1-4.54,2.56,24.77,24.77,0,0,1-4.84,1.46q-.28,16.56-1.24,31.94t-3,31.78h.88A21,21,0,0,1,478,366a12,12,0,0,1,4.1,1.75,9.77,9.77,0,0,1,2.93,3.08,8.56,8.56,0,0,1,1.1,4.47,8.76,8.76,0,0,1-2.12,5.86,18.13,18.13,0,0,1-5.57,4.25,40.86,40.86,0,0,1-7.69,2.92,73.76,73.76,0,0,1-8.5,1.84c-2.83.44-5.52.75-8,.95s-4.6.29-6.16.29q-1.76,0-4.32-.15a19.22,19.22,0,0,1-4.83-.87,10.48,10.48,0,0,1-3.88-2.2,5.06,5.06,0,0,1-1.61-4,11.81,11.81,0,0,1,1.24-5.49,15.62,15.62,0,0,1,3.3-4.32,17.37,17.37,0,0,1,4.61-3.08,26.09,26.09,0,0,1,5.2-1.75q1-8.06,1.91-16t1.17-16.19q.28-8.35.58-16.48T452,304.5c-.69.1-1.32.17-1.9.22s-1.13.07-1.62.07a24.08,24.08,0,0,1-4.39-.44,15,15,0,0,1-4.4-1.54,11.91,11.91,0,0,1-3.44-2.71,6.08,6.08,0,0,1-1.39-4.1,9.92,9.92,0,0,1,4.18-8.2,30.62,30.62,0,0,1,10-5,64.76,64.76,0,0,1,11.79-2.42,92.58,92.58,0,0,1,9.67-.66c1.36,0,3.17.1,5.42.3a31.53,31.53,0,0,1,6.66,1.31,19.61,19.61,0,0,1,5.71,2.79A5.65,5.65,0,0,1,490.7,289Z"/><path class="cls-1" d="M568.19,322.52a60.84,60.84,0,0,1-5.27,24.82,72.75,72.75,0,0,1-14.14,21.17,68.44,68.44,0,0,1-20.65,14.72,58.17,58.17,0,0,1-24.83,5.49H503a5.08,5.08,0,0,1-4.32-2.41,22.79,22.79,0,0,1-2.85-6.08,45.73,45.73,0,0,1-1.76-8.2c-.39-3-.69-6-.88-8.87s-.29-5.46-.29-7.76v-5.2c0-3.32.05-6.61.14-9.89s.25-6.56.44-9.88c0-1.08.08-2.66.22-4.77s.32-4.46.52-7.1.44-5.39.73-8.28.61-5.56.95-8,.68-4.69,1-6.59a10.47,10.47,0,0,1,1.24-3.89A17.35,17.35,0,0,1,504,286a42.32,42.32,0,0,1,8.57-4.1,58.38,58.38,0,0,1,9.37-2.42,51.38,51.38,0,0,1,8.28-.8A36.69,36.69,0,0,1,547,282.31,34.78,34.78,0,0,1,558.89,292a40.87,40.87,0,0,1,7,14A59.88,59.88,0,0,1,568.19,322.52Zm-24.61,4.24a20.07,20.07,0,0,0-1.17-6.59,22,22,0,0,0-3.3-6.15,16.65,16.65,0,0,0-5.13-4.47,13.4,13.4,0,0,0-6.66-1.68,15.27,15.27,0,0,0-6.3,1.46c-.49.29-.93,1.2-1.32,2.71a40.61,40.61,0,0,0-1,5.49q-.36,3.23-.66,7c-.2,2.54-.32,4.95-.36,7.25s-.1,4.32-.15,6.08-.07,2.92-.07,3.51v4.32c0,1.91.07,3.79.22,5.64s.31,3.47.51,4.84.53,2.05,1,2.05a13.94,13.94,0,0,0,8.72-3.45,40.66,40.66,0,0,0,7.84-8.42,49.19,49.19,0,0,0,5.64-10.4A26.26,26.26,0,0,0,543.58,326.76Z"/><path class="cls-1" d="M608.32,393.27a27,27,0,0,1-15.52-4.47,35.53,35.53,0,0,1-10.92-12,60.22,60.22,0,0,1-6.44-17.51,100,100,0,0,1-2.13-20.95,98.34,98.34,0,0,1,2.28-20.8,69.53,69.53,0,0,1,6.95-19,43.45,43.45,0,0,1,11.87-13.91,27.62,27.62,0,0,1,17.14-5.42q9.66,0,16.18,5.2a37,37,0,0,1,10.4,13.47,70.56,70.56,0,0,1,5.57,18.53,126.76,126.76,0,0,1,1.68,20.51,98.71,98.71,0,0,1-2.27,21.61,60.94,60.94,0,0,1-6.88,17.94,36.9,36.9,0,0,1-11.57,12.3A29.22,29.22,0,0,1,608.32,393.27Zm1.76-81.74a6.16,6.16,0,0,0-4.76,2.2,17.59,17.59,0,0,0-3.3,5.78,38.13,38.13,0,0,0-1.9,8.06,69.32,69.32,0,0,0-.59,9,80.17,80.17,0,0,0,.66,10.25,51.66,51.66,0,0,0,2,9.23,20.79,20.79,0,0,0,3.3,6.59,5.9,5.9,0,0,0,4.76,2.49,5.75,5.75,0,0,0,5.12-3.22,28.3,28.3,0,0,0,3-7.76,58.6,58.6,0,0,0,1.46-9.38c.24-3.22.37-5.91.37-8.06a72.65,72.65,0,0,0-.51-8.35,45.44,45.44,0,0,0-1.69-8.13,20.19,20.19,0,0,0-3.07-6.22A5.87,5.87,0,0,0,610.08,311.53Z"/><path class="cls-1" d="M516.78,447C397.88,570.52,278.63,569.66,159,447c-3.19-3.28-4.26-7.9-.5-10.52h0a6.26,6.26,0,0,1,6.36-.44c114,57.34,229.19,57.88,345.75,0a6.23,6.23,0,0,1,6.33.45l.2.14C520.89,439.14,519.92,443.75,516.78,447Z"/><path class="cls-1" d="M504.85,420.53c31.48-15.44,37.87.08,30.57,32.49C534.8,428,524.66,417.12,504.85,420.53Z"/><path class="cls-1" d="M171,420.53c-31.48-15.44-37.86.08-30.57,32.49C141,428,151.19,417.12,171,420.53Z"/></svg>