<svg xmlns="http://www.w3.org/2000/svg" viewBox="0 0 671.86 254.84"><g id="Camada_3" data-name="Camada 3"><path d="M83.2,175.52a63.23,63.23,0,0,1-3.66,26.94,79.75,79.75,0,0,1-13.63,23.91,77.46,77.46,0,0,1-21.17,17.79,66.46,66.46,0,0,1-26.5,8.6l-.32,0a5.63,5.63,0,0,1-5-2.06,24.15,24.15,0,0,1-3.82-6.13,48.59,48.59,0,0,1-2.88-8.5q-1.17-4.76-2-9.32T3,218.58q-.41-3.66-.61-5.53c-.39-3.52-.72-7-1-10.52S1,195.4.72,192c-.09-1.11-.23-2.83-.31-5.08s-.17-4.79-.26-7.62S0,173.47,0,170.38s0-6,.13-8.68.22-5.07.39-7.14a10.55,10.55,0,0,1,1-4.28,19,19,0,0,1,6-6.78,48.38,48.38,0,0,1,9.23-5.37A67.32,67.32,0,0,1,27,134.48a60.39,60.39,0,0,1,9.3-1.78,43.49,43.49,0,0,1,19.36,2.05A38.48,38.48,0,0,1,70,143.86a42,42,0,0,1,9.19,14.23A60.71,60.71,0,0,1,83.2,175.52Zm-27.08,6.92a20.31,20.31,0,0,0-2-6.9,22.82,22.82,0,0,0-4.29-6.21,18.49,18.49,0,0,0-6.19-4.21A15.66,15.66,0,0,0,36,164.05a17.63,17.63,0,0,0-6.91,2.25c-.52.37-.92,1.38-1.19,3a40.55,40.55,0,0,0-.48,5.95c0,2.32,0,4.83,0,7.56s.18,5.31.37,7.75.36,4.61.49,6.49.24,3.12.3,3.74c.11,1,.26,2.58.47,4.6s.49,4,.85,6,.72,3.66,1.08,5.09.81,2.12,1.35,2.07a15.85,15.85,0,0,0,9.25-4.62,44.73,44.73,0,0,0,7.81-9.79,52.74,52.74,0,0,0,5.22-11.66A27.16,27.16,0,0,0,56.12,182.44Z"/><path d="M141.68,135.31a10.17,10.17,0,0,1-1.08,5.4,13.24,13.24,0,0,1-3.46,4.23,24.41,24.41,0,0,1-4.95,3.07,29.2,29.2,0,0,1-5.34,1.92q.87,17.69.92,34.16t-1,34.14l1-.07a23.67,23.67,0,0,1,5.12.2,13.34,13.34,0,0,1,4.64,1.57A10.65,10.65,0,0,1,141,223a8.89,8.89,0,0,1,1.51,4.69,9.21,9.21,0,0,1-1.92,6.4,19.77,19.77,0,0,1-5.8,4.93,46.15,46.15,0,0,1-8.19,3.71,86.38,86.38,0,0,1-9.14,2.61q-4.59,1.05-8.72,1.68c-2.75.41-5,.69-6.69.83-1.28.1-2.85.17-4.72.21a21.19,21.19,0,0,1-5.35-.51,11.5,11.5,0,0,1-4.43-2,5.38,5.38,0,0,1-2.12-4.07,12.37,12.37,0,0,1,.88-6,16.81,16.81,0,0,1,3.23-4.9,19.31,19.31,0,0,1,4.8-3.69,29.5,29.5,0,0,1,5.57-2.33q.45-8.67.76-17.26t0-17.35q-.36-8.92-.7-17.62t-.68-17.47c-.76.17-1.47.3-2.13.41s-1.25.17-1.8.22a28.92,28.92,0,0,1-5-.08,18.26,18.26,0,0,1-5.08-1.24,13.53,13.53,0,0,1-4.11-2.57,6.29,6.29,0,0,1-1.93-4.24,10.41,10.41,0,0,1,4-9.13A35.21,35.21,0,0,1,94,132.07a76.33,76.33,0,0,1,13.17-3.6A107.59,107.59,0,0,1,118.11,127q2.33-.17,6.18-.12a38.22,38.22,0,0,1,7.65.9,22.72,22.72,0,0,1,6.67,2.55A6,6,0,0,1,141.68,135.31Z"/><path d="M222.34,134a60.71,60.71,0,0,1-1,12.65q-1.23,7-3.17,14.31t-4.21,14.19c-1.51,4.61-2.81,8.81-4,12.47-.75,2.31-1.61,5.21-2.49,8.64s-1.92,7.06-3.11,10.88-2.5,7.63-3.95,11.46a68,68,0,0,1-4.85,10.34,31.64,31.64,0,0,1-6,7.57,11.62,11.62,0,0,1-7.31,3.19A9.43,9.43,0,0,1,175.6,237a37.08,37.08,0,0,1-6.35-7.26,87.77,87.77,0,0,1-5.89-10q-2.84-5.56-5.18-10.92t-4-10q-1.67-4.6-2.47-7.07-4-12-7.72-24.24a108,108,0,0,1-4.54-24.74q-.19-3.14-.08-6.51a18.58,18.58,0,0,1,1.27-6.28,12.08,12.08,0,0,1,3.45-4.85,11.08,11.08,0,0,1,6.63-2.2c2.44-.15,4.76,1,7,3.43A39.7,39.7,0,0,1,163.8,136a119.27,119.27,0,0,1,5.29,13.36q2.47,7.4,4.66,14.57t4.16,13.43a69,69,0,0,0,3.78,9.92q.81-3.18,2.39-9.29c1.06-4.08,2.31-8.56,3.78-13.44s3.09-9.9,4.9-15.05a125.57,125.57,0,0,1,5.82-14.06,49.54,49.54,0,0,1,6.62-10.4c2.33-2.71,4.77-4.11,7.33-4.22a8.1,8.1,0,0,1,4.71,1.08,8.29,8.29,0,0,1,2.95,3.18,16,16,0,0,1,1.57,4.32A25.32,25.32,0,0,1,222.34,134Z"/><path d="M296.47,211.24a11.33,11.33,0,0,1-1.53,5.82c-1,1.78-3.56,3.91-7.49,6.37a121.12,121.12,0,0,1-13.06,7.06q-7.15,3.36-13.83,5.79t-9.88,2.54a17.08,17.08,0,0,1-5.31-.86,44.59,44.59,0,0,1-6.18-2.39,31.67,31.67,0,0,1-5.65-3.42,15.63,15.63,0,0,1-3.75-3.79,14.63,14.63,0,0,1-1.36-4.34c-.46-2.17-.87-4.72-1.25-7.63s-.73-6-1.06-9.29-.64-6.4-.91-9.37-.48-5.6-.61-7.89-.23-4-.27-5q-.21-5.79-.08-13.31t1-15.17a93.1,93.1,0,0,1,2.86-14.67,37.23,37.23,0,0,1,5.65-12,13.26,13.26,0,0,1,4.56-3.12,66.42,66.42,0,0,1,8.14-3.22q4.7-1.55,10.16-2.94T267.17,118c3.37-.64,6.45-1.18,9.22-1.6a52.47,52.47,0,0,1,6.33-.66,11.48,11.48,0,0,1,4.77.94,11.71,11.71,0,0,1,3.87,2.68,13.68,13.68,0,0,1,2.55,3.81,11.06,11.06,0,0,1,1,4.45,9.07,9.07,0,0,1-.53,3.45,15.22,15.22,0,0,1-1.7,3.16c-1,1.35-3.38,3-6.88,5s-7.3,3.86-11.4,5.76-8,3.64-11.77,5.19-7.41,2.67-7.92,3.34c-.77,1-.78,4.85-1.2,7.31a66.73,66.73,0,0,0-.87,7.47,95.85,95.85,0,0,1,11.37-5,37,37,0,0,1,12.11-2.45c7.78-.15,11.72,3.45,11.84,10.76a9.92,9.92,0,0,1-1,4.71,13.13,13.13,0,0,1-2.72,3.65,19,19,0,0,1-3.87,2.81q-2.18,1.22-4.28,2.35A86,86,0,0,1,265.25,190Q259.61,192,254,194.08q-.28,1.26-.57,2.76a13.82,13.82,0,0,0-.25,2.9,29.57,29.57,0,0,0,.45,4.38c.25,1.45.5,2.91.76,4.36l6.18-2.2c2.84-1,5.81-2,8.93-3s6.12-1.88,9-2.61a31.47,31.47,0,0,1,6.47-1.13,10.36,10.36,0,0,1,4.56.94,11.23,11.23,0,0,1,3.6,2.61,13.36,13.36,0,0,1,2.41,3.81A11.61,11.61,0,0,1,296.47,211.24Z"/><path d="M381.84,153.53a36.8,36.8,0,0,1-5.53,19.35,55.81,55.81,0,0,1-14.05,15,99.11,99.11,0,0,1,5.29,8.82,89.48,89.48,0,0,1,4.82,10.63,86.45,86.45,0,0,1,3.42,11.16A43.37,43.37,0,0,1,377,228.81a16.76,16.76,0,0,1-2.61,9q-2.54,4-8.45,3.9c-3.31,0-6.14-1.63-8.53-4.78a53.07,53.07,0,0,1-6.35-11.23q-2.79-6.53-5.1-13.26a84.77,84.77,0,0,0-4.43-10.82c-1.94.62-3.84,1.33-5.67,2.11s-3.73,1.54-5.67,2.28c-.1,2.29-.29,5.45-.55,9.47a76.34,76.34,0,0,1-1.74,12,34,34,0,0,1-4.06,10.35,8.49,8.49,0,0,1-7.5,4.43,9.35,9.35,0,0,1-8.2-4.17,27.54,27.54,0,0,1-4.19-10,66.24,66.24,0,0,1-1.5-11.81q-.23-6-.27-9.47-.07-7.36.17-14.49c.16-4.76.22-9.58.16-14.5,0-4.48-.17-9-.39-13.46s-.34-9-.4-13.62c0-1.05,0-2.38,0-4s.05-3.29.19-5,.32-3.37.53-4.94a10,10,0,0,1,1.12-3.77q1.62-3.31,7.49-6.34A87.72,87.72,0,0,1,324,121.34a120.38,120.38,0,0,1,13.82-3.63,56.56,56.56,0,0,1,10.09-1.3,35.22,35.22,0,0,1,15,3.07,30.43,30.43,0,0,1,10.73,8.17,34.24,34.24,0,0,1,6.32,11.83A45.33,45.33,0,0,1,381.84,153.53Zm-30.49,1.89q0-4.06-2-6.2T343,147.09a21.27,21.27,0,0,0-6.68,1.09,43.61,43.61,0,0,0-6.19,2.51q.69,12.38.54,24.59a57.2,57.2,0,0,0,7-2.83,32.45,32.45,0,0,0,6.64-4.21,23.79,23.79,0,0,0,5-5.63A13.13,13.13,0,0,0,351.35,155.42Z"/><path d="M458.2,131a9.87,9.87,0,0,1-3.51,7,33.29,33.29,0,0,1-8,5.35,59.18,59.18,0,0,1-9.47,3.67,72.05,72.05,0,0,1-8,1.94q-1.68,12-2.77,24t-1.44,24q-.19,6.42,0,12.69t-.05,12.53a37.23,37.23,0,0,1-.74,6.17,25.73,25.73,0,0,1-2.11,6.29,14.27,14.27,0,0,1-3.91,4.9,8.89,8.89,0,0,1-6,1.88A9.51,9.51,0,0,1,405.6,239a15.56,15.56,0,0,1-3.72-5.65,27.54,27.54,0,0,1-1.7-7,63.27,63.27,0,0,1-.34-6.66c0-6.16-.11-12.56-.08-18.88s.1-12.66.23-19c.12-5.33.25-10.54.41-15.66s.3-10.33.42-15.65c-1.55.17-3.12.3-4.71.37s-3.22.09-4.87.06a43.93,43.93,0,0,1-5.19-.48,30,30,0,0,1-6.16-1.5,15.85,15.85,0,0,1-5.08-2.89,5.73,5.73,0,0,1-2.09-4.64,10.75,10.75,0,0,1,4-8.18,35.3,35.3,0,0,1,10.05-6,85.18,85.18,0,0,1,13.55-4.13A141.63,141.63,0,0,1,415,120.6q7.26-.84,13.36-1.12c4.06-.2,7.21-.25,9.43-.18s4.35.22,6.74.46a25.75,25.75,0,0,1,6.69,1.57,13,13,0,0,1,5.12,3.49A8.53,8.53,0,0,1,458.2,131Z"/><path d="M505.24,133.84a10.16,10.16,0,0,1-1.69,5.25,13.3,13.3,0,0,1-3.94,3.78,23.38,23.38,0,0,1-5.27,2.47,28.37,28.37,0,0,1-5.53,1.29q-1.2,17.67-3.07,34t-5,33.78l1,.05a23.31,23.31,0,0,1,5.06.8,13.32,13.32,0,0,1,4.43,2.1,10.77,10.77,0,0,1,3,3.45,8.9,8.9,0,0,1,1,4.84,9.24,9.24,0,0,1-2.66,6.13,19.76,19.76,0,0,1-6.33,4.23,46.58,46.58,0,0,1-8.57,2.72,91.09,91.09,0,0,1-9.38,1.53q-4.68.49-8.85.64c-2.78.09-5,.11-6.74,0-1.27,0-2.85-.16-4.71-.34a21.38,21.38,0,0,1-5.25-1.13,11.46,11.46,0,0,1-4.16-2.49,5.39,5.39,0,0,1-1.63-4.29,12.49,12.49,0,0,1,1.57-5.83,16.81,16.81,0,0,1,3.78-4.49,19.17,19.17,0,0,1,5.19-3.1,29.32,29.32,0,0,1,5.8-1.66q1.47-8.57,2.78-17.06t2-17.24q.68-8.9,1.36-17.58t1.36-17.42c-.78.07-1.49.13-2.15.15s-1.27,0-1.82,0a29.64,29.64,0,0,1-4.94-.66A17.74,17.74,0,0,1,447,146a13.45,13.45,0,0,1-3.78-3,6.24,6.24,0,0,1-1.42-4.44,10.43,10.43,0,0,1,5-8.6,35.45,35.45,0,0,1,11.5-4.9,75.6,75.6,0,0,1,13.5-2,108.92,108.92,0,0,1,11-.21q2.32.12,6.14.61a37.89,37.89,0,0,1,7.5,1.79,22.58,22.58,0,0,1,6.32,3.31A5.91,5.91,0,0,1,505.24,133.84Z"/><path d="M588.27,175.48a63.26,63.26,0,0,1-8,26,79.41,79.41,0,0,1-17.36,21.35,77.45,77.45,0,0,1-23.79,14.08A66.46,66.46,0,0,1,511.56,241l-.32,0a5.6,5.6,0,0,1-4.58-2.85,24.13,24.13,0,0,1-2.76-6.67,48.82,48.82,0,0,1-1.44-8.86c-.25-3.25-.4-6.43-.45-9.52s0-5.85.13-8.3.24-4.3.31-5.55c.19-3.55.44-7.06.74-10.55s.77-7.09,1.07-10.53c.09-1.11.24-2.83.53-5.07s.61-4.75,1-7.55.81-5.73,1.31-8.79,1-5.91,1.55-8.54,1.05-5,1.55-7a10.79,10.79,0,0,1,1.64-4.06,19,19,0,0,1,7-5.71,48,48,0,0,1,10-3.79,66.39,66.39,0,0,1,10.8-1.9,59.9,59.9,0,0,1,9.46-.23,43.46,43.46,0,0,1,18.75,5.19,38.55,38.55,0,0,1,12.64,11.34,42,42,0,0,1,6.72,15.54A60.55,60.55,0,0,1,588.27,175.48Zm-27.84,2.39a20.43,20.43,0,0,0-.8-7.13,22.86,22.86,0,0,0-3.21-6.83,18.43,18.43,0,0,0-5.42-5.17,15.65,15.65,0,0,0-7.37-2.31,17.73,17.73,0,0,0-7.18,1.09c-.57.28-1.12,1.21-1.67,2.8a41.71,41.71,0,0,0-1.44,5.79c-.43,2.28-.83,4.76-1.22,7.45s-.7,5.27-.91,7.71-.4,4.61-.57,6.48-.28,3.12-.33,3.75c-.06,1-.16,2.58-.29,4.61s-.18,4-.14,6,.11,3.72.24,5.19.45,2.23,1,2.27a15.92,15.92,0,0,0,9.87-3,44.69,44.69,0,0,0,9.3-8.38,52.34,52.34,0,0,0,7.06-10.65A26.91,26.91,0,0,0,560.43,177.87Z"/><path d="M624.14,254.64a30.34,30.34,0,0,1-16.48-6.34,38.93,38.93,0,0,1-10.79-13.86,64.28,64.28,0,0,1-5.49-19.25,104.51,104.51,0,0,1-.47-22.52,100,100,0,0,1,4.4-21.94,71,71,0,0,1,9.55-19.62,46.56,46.56,0,0,1,14.73-13.62q8.64-5,19.95-3.93,11,1.06,17.76,7.38a39.51,39.51,0,0,1,10.22,15.57,71.39,71.39,0,0,1,4.1,20.37,129,129,0,0,1-.53,22,102.89,102.89,0,0,1-5,22.69,64.66,64.66,0,0,1-9.63,18.26,40.51,40.51,0,0,1-14,11.76A32.9,32.9,0,0,1,624.14,254.64Zm10.39-86.79a7,7,0,0,0-5.56,1.82,18.56,18.56,0,0,0-4.28,5.81,38.12,38.12,0,0,0-2.93,8.38,70.74,70.74,0,0,0-1.55,9.52,83.87,83.87,0,0,0-.29,11,54.9,54.9,0,0,0,1.26,10,22.26,22.26,0,0,0,3,7.36,6.6,6.6,0,0,0,5,3.16,6.42,6.42,0,0,0,6-2.88,30.1,30.1,0,0,0,4.14-7.93,61.49,61.49,0,0,0,2.62-9.81q.93-5.1,1.27-8.53a75.57,75.57,0,0,0,.33-8.94,46.11,46.11,0,0,0-1-8.84,21.08,21.08,0,0,0-2.78-7A6.66,6.66,0,0,0,634.53,167.85Z"/><path d="M212.79,13.25A4.83,4.83,0,0,1,212,16.8a12,12,0,0,1-2.79,2.82c-1,.75-2,1.61-3,2.49a21.51,21.51,0,0,0-2.8,2.85,11.43,11.43,0,0,0-1.87,3.27,7.09,7.09,0,0,0-.3,3.74,5.89,5.89,0,0,0,1.42,3,18.93,18.93,0,0,0,2.64,2.44c1,.78,2.11,1.58,3.3,2.39a21.61,21.61,0,0,1,3.34,2.82,18.32,18.32,0,0,1,2.78,3.72,14.74,14.74,0,0,1,1.67,5.14,14.93,14.93,0,0,1-.2,4.87,31.72,31.72,0,0,1-1.64,5.69,38.28,38.28,0,0,1-2.82,5.76A37.6,37.6,0,0,1,208,73a23.84,23.84,0,0,1-4.32,4A11.7,11.7,0,0,1,199,79.09a8.12,8.12,0,0,1-4.89-.56,5,5,0,0,1-2.83-3.86,7.07,7.07,0,0,1,.26-3.71,17.88,17.88,0,0,1,1.72-3.56,31.83,31.83,0,0,1,2.51-3.47c.94-1.15,1.79-2.27,2.54-3.38a17.56,17.56,0,0,0,1.81-3.37,6.25,6.25,0,0,0,.39-3.46,8.73,8.73,0,0,0-2.65-4.65c-1.5-1.49-3.14-3-4.94-4.54a65.81,65.81,0,0,1-5-4.8,10.73,10.73,0,0,1-2.9-5.4,16.47,16.47,0,0,1,.65-7.92,30.22,30.22,0,0,1,10.51-15A17.55,17.55,0,0,1,204,7.92a8.9,8.9,0,0,1,5.81.91A5.72,5.72,0,0,1,212.79,13.25Z"/><path d="M244.21,71.87a16.18,16.18,0,0,1-9.3-1.47,21.12,21.12,0,0,1-7.27-6,35.36,35.36,0,0,1-5.2-9.49,56.19,56.19,0,0,1-3-11.8,52.32,52.32,0,0,1-.33-12.1,37.22,37.22,0,0,1,2.76-11.49,25.16,25.16,0,0,1,6.36-9,18.28,18.28,0,0,1,10.42-4.4A16.65,16.65,0,0,1,249.19,8a21.23,21.23,0,0,1,7.26,7.13,37.75,37.75,0,0,1,4.4,10.36,68.49,68.49,0,0,1,2,11.72,55.61,55.61,0,0,1-.29,12.56,35.62,35.62,0,0,1-3.14,10.69,22.11,22.11,0,0,1-6.07,7.74A17.63,17.63,0,0,1,244.21,71.87Zm-4.35-47.05a4,4,0,0,0-2.78,1.6A10,10,0,0,0,235.45,30a20.59,20.59,0,0,0-.6,4.77,37.91,37.91,0,0,0,.28,5.21,45.06,45.06,0,0,0,1.12,5.83,29.14,29.14,0,0,0,1.82,5.15,12.16,12.16,0,0,0,2.41,3.55,3.57,3.57,0,0,0,3,1.1,3.45,3.45,0,0,0,2.83-2.19,16.56,16.56,0,0,0,1.3-4.65,33.15,33.15,0,0,0,.3-5.48c-.05-1.87-.14-3.42-.27-4.66a40.65,40.65,0,0,0-.82-4.76,24.4,24.4,0,0,0-1.53-4.56A11.26,11.26,0,0,0,243,25.92,3.68,3.68,0,0,0,239.86,24.82Z"/><path d="M310.94,20a19.72,19.72,0,0,1-2.65,10.56A30.78,30.78,0,0,1,301,38.94,54.19,54.19,0,0,1,304,43.58a47.9,47.9,0,0,1,2.83,5.64,46.33,46.33,0,0,1,2.07,6,23.3,23.3,0,0,1,.87,5.52,9.22,9.22,0,0,1-1.21,4.9,4.85,4.85,0,0,1-4.41,2.28,5.63,5.63,0,0,1-4.65-2.38,29.26,29.26,0,0,1-3.67-5.91q-1.65-3.44-3.08-7a46.12,46.12,0,0,0-2.68-5.72,31.17,31.17,0,0,0-3,1.3c-1,.48-2,.94-3,1.4,0,1.24,0,3,0,5.13a42.11,42.11,0,0,1-.57,6.52,18.6,18.6,0,0,1-1.84,5.71,4.5,4.5,0,0,1-3.84,2.63,5,5,0,0,1-4.5-2,15.49,15.49,0,0,1-2.59-5.24A36.85,36.85,0,0,1,269.55,56c-.23-2.17-.39-3.87-.49-5.1-.21-2.65-.36-5.25-.44-7.82s-.23-5.18-.43-7.82q-.29-3.63-.71-7.25c-.27-2.41-.51-4.86-.71-7.33,0-.57-.1-1.28-.17-2.16s-.09-1.77-.07-2.71.06-1.83.11-2.68a5.53,5.53,0,0,1,.49-2.08c.52-1.22,1.83-2.46,3.93-3.68a47.25,47.25,0,0,1,7-3.32,64.13,64.13,0,0,1,7.59-2.38,32.17,32.17,0,0,1,5.59-1A19.94,19.94,0,0,1,299.69,2a16.68,16.68,0,0,1,6.16,4.17,18.1,18.1,0,0,1,3.74,6.26A23.91,23.91,0,0,1,310.94,20Zm-16.73,1.71A4.65,4.65,0,0,0,293,18.37a4.72,4.72,0,0,0-3.6-1,12,12,0,0,0-3.66.78,24.52,24.52,0,0,0-3.33,1.55q.75,6.65,1,13.25a31.92,31.92,0,0,0,3.76-1.73,17.74,17.74,0,0,0,3.51-2.47,13,13,0,0,0,2.61-3.17A7.12,7.12,0,0,0,294.21,21.66Z"/><path d="M358.39,20.44a19.7,19.7,0,0,1-3.3,10.37,30.64,30.64,0,0,1-7.83,8A50.83,50.83,0,0,1,350,43.6a47.3,47.3,0,0,1,2.49,5.8,47.87,47.87,0,0,1,1.69,6.07,23.4,23.4,0,0,1,.52,5.57,9.22,9.22,0,0,1-1.51,4.82,4.85,4.85,0,0,1-4.54,2,5.64,5.64,0,0,1-4.49-2.66,29.42,29.42,0,0,1-3.3-6.13q-1.44-3.54-2.64-7.2A44.23,44.23,0,0,0,335.93,46c-1.06.33-2.08.69-3.08,1.11s-2,.82-3.06,1.21c-.07,1.24-.18,3-.33,5.12a41.94,41.94,0,0,1-1,6.47,18.43,18.43,0,0,1-2.19,5.59,4.49,4.49,0,0,1-4,2.38,5,5,0,0,1-4.37-2.24,15.46,15.46,0,0,1-2.26-5.39,36.52,36.52,0,0,1-.83-6.38c-.09-2.17-.15-3.88-.17-5.12,0-2.65,0-5.26.05-7.83s.09-5.18,0-7.83q-.06-3.65-.25-7.28c-.13-2.42-.22-4.88-.26-7.36q0-.86,0-2.16a25,25,0,0,1,.09-2.71c.08-.93.17-1.83.28-2.67a5.53,5.53,0,0,1,.61-2.05c.6-1.19,2-2.34,4.16-3.43a47.71,47.71,0,0,1,7.21-2.87A63,63,0,0,1,334.31.65,31.41,31.41,0,0,1,340,0a20,20,0,0,1,8.33,1.79,16.75,16.75,0,0,1,5.88,4.55,18,18,0,0,1,3.35,6.48A23.79,23.79,0,0,1,358.39,20.44Zm-16.81.67a4.66,4.66,0,0,0-1-3.36,4.75,4.75,0,0,0-3.54-1.2,12,12,0,0,0-3.69.55,23.44,23.44,0,0,0-3.42,1.34q.33,6.69.21,13.29a31.82,31.82,0,0,0,3.86-1.5A18.15,18.15,0,0,0,337.63,28a13.19,13.19,0,0,0,2.8-3A7.06,7.06,0,0,0,341.58,21.11Z"/><path d="M394,9.74a5.35,5.35,0,0,1-1,2.8,7.25,7.25,0,0,1-2.24,2,13.42,13.42,0,0,1-2.95,1.25,17.28,17.28,0,0,1-3.08.61q-.9,9.53-2.14,18.35t-3.14,18.18l.52,0a13.08,13.08,0,0,1,2.71.5,7.36,7.36,0,0,1,2.35,1.2,5.91,5.91,0,0,1,1.59,1.91,4.85,4.85,0,0,1,.43,2.63,5,5,0,0,1-1.52,3.27,10.63,10.63,0,0,1-3.45,2.19A24,24,0,0,1,377.46,66a46.19,46.19,0,0,1-5,.73c-1.67.14-3.24.23-4.72.26s-2.68,0-3.59,0c-.68,0-1.51-.11-2.5-.21a11.61,11.61,0,0,1-2.79-.64,6.13,6.13,0,0,1-2.21-1.37,2.93,2.93,0,0,1-.85-2.32,6.79,6.79,0,0,1,.86-3.14,8.88,8.88,0,0,1,2.05-2.41,10.12,10.12,0,0,1,2.8-1.66,15.33,15.33,0,0,1,3.13-.86q.84-4.62,1.62-9.19t1.2-9.31c.3-3.2.59-6.37.88-9.49s.59-6.25.88-9.4L368,17c-.37,0-.7,0-1,0a17.63,17.63,0,0,1-2.72-.39,10.18,10.18,0,0,1-2.7-1A7.5,7.5,0,0,1,359.52,14a3.33,3.33,0,0,1-.77-2.4,5.6,5.6,0,0,1,2.83-4.63A19.5,19.5,0,0,1,368,4.37a41.28,41.28,0,0,1,7.53-1,61.12,61.12,0,0,1,6.15,0c.87.06,2,.21,3.42.42a20.81,20.81,0,0,1,4.15,1.09,12.54,12.54,0,0,1,3.48,1.9A3.17,3.17,0,0,1,394,9.74Z"/><path d="M425.6,11.17a4.86,4.86,0,0,1-1.76,3.19,12.1,12.1,0,0,1-3.45,2c-1.15.45-2.37,1-3.61,1.57a20.82,20.82,0,0,0-3.45,2,11.45,11.45,0,0,0-2.69,2.64,7.27,7.27,0,0,0-1.3,3.52,6.06,6.06,0,0,0,.55,3.3,19.43,19.43,0,0,0,1.88,3.06c.76,1,1.61,2.08,2.53,3.19a21.8,21.8,0,0,1,2.45,3.61,18.72,18.72,0,0,1,1.67,4.34,14.69,14.69,0,0,1,.22,5.4,15,15,0,0,1-1.51,4.64,31,31,0,0,1-3.11,5,39.62,39.62,0,0,1-4.27,4.79,37.23,37.23,0,0,1-4.95,4,23.56,23.56,0,0,1-5.23,2.68,11.55,11.55,0,0,1-5,.74A7.93,7.93,0,0,1,390,69a5,5,0,0,1-1.68-4.48,7.13,7.13,0,0,1,1.26-3.5,17.86,17.86,0,0,1,2.6-3,32.55,32.55,0,0,1,3.34-2.67c1.22-.84,2.34-1.7,3.36-2.56A18.05,18.05,0,0,0,401.53,50a6.31,6.31,0,0,0,1.3-3.23,8.73,8.73,0,0,0-1.29-5.19c-1-1.83-2.21-3.74-3.51-5.7a63.6,63.6,0,0,1-3.55-6,10.79,10.79,0,0,1-1.33-6,16.41,16.41,0,0,1,2.77-7.44A29.38,29.38,0,0,1,402,9.67a30.06,30.06,0,0,1,8-4.76,17.4,17.4,0,0,1,8.5-1.26,8.88,8.88,0,0,1,5.34,2.44A5.74,5.74,0,0,1,425.6,11.17Z"/><path d="M440,76.09a16.35,16.35,0,0,1-8.57-3.92,21.27,21.27,0,0,1-5.36-7.78,35.36,35.36,0,0,1-2.45-10.54,56.77,56.77,0,0,1,.31-12.17A53.51,53.51,0,0,1,426.89,30a37.1,37.1,0,0,1,5.77-10.33,25.07,25.07,0,0,1,8.54-6.9,18.33,18.33,0,0,1,11.24-1.42A16.7,16.7,0,0,1,462.08,16a21.16,21.16,0,0,1,5.08,8.83A37.35,37.35,0,0,1,468.61,36a67.61,67.61,0,0,1-1.2,11.84,55.54,55.54,0,0,1-3.67,12,35.66,35.66,0,0,1-5.93,9.44,22.17,22.17,0,0,1-7.95,5.81A17.6,17.6,0,0,1,440,76.09Zm8.53-46.47a4,4,0,0,0-3.12.79,10,10,0,0,0-2.52,3A19.86,19.86,0,0,0,441,37.82a36.86,36.86,0,0,0-1.14,5.1,44.73,44.73,0,0,0-.5,5.91,29.12,29.12,0,0,0,.37,5.46,12,12,0,0,0,1.36,4.07,3.58,3.58,0,0,0,2.58,1.86A3.46,3.46,0,0,0,447,58.88a16.19,16.19,0,0,0,2.51-4.13,32.48,32.48,0,0,0,1.78-5.2c.45-1.81.79-3.33,1-4.55a39,39,0,0,0,.5-4.81,23.4,23.4,0,0,0-.24-4.8,11.31,11.31,0,0,0-1.29-3.87A3.7,3.7,0,0,0,448.54,29.62Z"/></g></svg>